Fraunces9ptExtraSoft-LightItalic.ufo
<glyph name="exclam" format="2">
  <advance width="592.2"/>
  <unicode hex="0021"/>
  <outline>
    <contour>
      <point x="571.8000000000001" y="1466.4" type="curve" smooth="yes"/>
      <point x="504.8" y="1466.4"/>
      <point x="466.80000000000007" y="1424.4"/>
      <point x="450.59999999999997" y="1365.8000000000002" type="curve" smooth="yes"/>
      <point x="446.4" y="1350.0"/>
      <point x="439.59999999999997" y="1320.2"/>
      <point x="435.00000000000006" y="1295.2" type="curve" smooth="yes"/>
      <point x="273.0" y="529.2" type="line" smooth="yes"/>
      <point x="265.40000000000003" y="483.2"/>
      <point x="275.0" y="465.6"/>
      <point x="303.4" y="465.6" type="curve" smooth="yes"/>
      <point x="332.59999999999997" y="465.6"/>
      <point x="351.4" y="484.0"/>
      <point x="367.79999999999995" y="530.8" type="curve" smooth="yes"/>
      <point x="616.2" y="1295.2" type="line" smooth="yes"/>
      <point x="626.4" y="1320.2"/>
      <point x="634.8" y="1350.0"/>
      <point x="639.0" y="1365.8" type="curve" smooth="yes"/>
      <point x="655.1999999999999" y="1424.4"/>
      <point x="639.6" y="1466.4"/>
    </contour>
    <component base="period" xOffset="19.200000000000003"/>
  </outline>
</glyph>
<glyph name="numbersign" format="2">
  <advance width="1288.8"/>
  <unicode hex="0023"/>
  <outline>
    <contour>
      <point x="575.0" y="685.4" type="curve" smooth="yes"/>
      <point x="664.2" y="855.0"/>
      <point x="837.0" y="1169.4"/>
      <point x="915.0" y="1310.6" type="curve" smooth="yes"/>
      <point x="941.8" y="1360.0"/>
      <point x="940.2" y="1386.4"/>
      <point x="914.4" y="1394.4" type="curve" smooth="yes"/>
      <point x="887.4" y="1404.0"/>
      <point x="859.4" y="1384.8"/>
      <point x="834.1999999999999" y="1338.0" type="curve" smooth="yes"/>
      <point x="760.4" y="1196.8"/>
      <point x="601.8" y="885.0"/>
      <point x="512.2" y="715.8" type="curve" smooth="yes"/>
      <point x="419.2" y="539.8"/>
      <point x="229.79999999999998" y="222.8"/>
      <point x="149.8" y="73.6" type="curve" smooth="yes"/>
      <point x="128.0" y="32.2"/>
      <point x="129.8" y="3.8"/>
      <point x="157.0" y="-3.0" type="curve" smooth="yes"/>
      <point x="185.8" y="-10.0"/>
      <point x="211.79999999999998" y="9.0"/>
      <point x="234.79999999999998" y="50.4" type="curve" smooth="yes"/>
      <point x="307.40000000000003" y="185.0"/>
      <point x="482.4" y="510.6"/>
    </contour>
    <contour>
      <point x="814.6" y="894.0" type="curve" smooth="yes"/>
      <point x="946.0" y="894.0"/>
      <point x="1184.8" y="883.4"/>
      <point x="1295.2" y="881.4" type="curve" smooth="yes"/>
      <point x="1338.0" y="882.6"/>
      <point x="1367.8000000000002" y="899.4000000000001"/>
      <point x="1377.2" y="932.8" type="curve" smooth="yes"/>
      <point x="1384.8" y="963.4"/>
      <point x="1363.8" y="978.4"/>
      <point x="1322.4" y="978.4" type="curve" smooth="yes"/>
      <point x="1210.8000000000002" y="976.2"/>
      <point x="967.6" y="967.8000000000001"/>
      <point x="835.1999999999999" y="967.8000000000001" type="curve" smooth="yes"/>
      <point x="695.0" y="965.8"/>
      <point x="448.6" y="985.8000000000001"/>
      <point x="330.59999999999997" y="984.8" type="curve" smooth="yes"/>
      <point x="293.0" y="984.6"/>
      <point x="267.0" y="969.0"/>
      <point x="258.6" y="937.0" type="curve" smooth="yes"/>
      <point x="250.79999999999998" y="904.8"/>
      <point x="266.6" y="887.0"/>
      <point x="306.40000000000003" y="888.0" type="curve" smooth="yes"/>
      <point x="421.59999999999997" y="887.0"/>
      <point x="677.8000000000001" y="892.0"/>
    </contour>
    <contour>
      <point x="915.6" y="685.4" type="curve" smooth="yes"/>
      <point x="1005.5999999999999" y="855.0"/>
      <point x="1178.4" y="1169.4"/>
      <point x="1256.3999999999999" y="1310.6" type="curve" smooth="yes"/>
      <point x="1282.3999999999999" y="1360.0"/>
      <point x="1281.6" y="1386.4"/>
      <point x="1255.8000000000002" y="1394.4" type="curve" smooth="yes"/>
      <point x="1228.0" y="1404.0"/>
      <point x="1201.0" y="1384.8"/>
      <point x="1175.8" y="1338.0" type="curve" smooth="yes"/>
      <point x="1100.4" y="1196.8"/>
      <point x="943.4" y="885.0"/>
      <point x="853.8" y="715.8" type="curve" smooth="yes"/>
      <point x="759.2" y="539.8"/>
      <point x="570.4" y="222.8"/>
      <point x="490.4" y="73.6" type="curve" smooth="yes"/>
      <point x="469.4" y="32.2"/>
      <point x="471.2" y="3.8"/>
      <point x="498.4" y="-3.0" type="curve" smooth="yes"/>
      <point x="527.1999999999999" y="-10.0"/>
      <point x="553.1999999999999" y="9.0"/>
      <point x="576.1999999999999" y="50.4" type="curve" smooth="yes"/>
      <point x="647.2" y="185.8"/>
      <point x="823.0" y="510.6"/>
    </contour>
    <contour>
      <point x="613.5999999999999" y="454.6" type="curve" smooth="yes"/>
      <point x="745.0" y="454.6"/>
      <point x="984.4" y="444.0"/>
      <point x="1094.2" y="442.0" type="curve" smooth="yes"/>
      <point x="1136.8000000000002" y="443.2"/>
      <point x="1166.8" y="460.0"/>
      <point x="1177.0" y="493.4" type="curve" smooth="yes"/>
      <point x="1183.8" y="524.0"/>
      <point x="1162.6" y="539.0"/>
      <point x="1121.1999999999998" y="539.0" type="curve" smooth="yes"/>
      <point x="1009.8" y="536.8"/>
      <point x="766.6" y="528.4"/>
      <point x="634.2" y="528.4" type="curve" smooth="yes"/>
      <point x="494.8" y="526.4"/>
      <point x="247.6" y="546.4000000000001"/>
      <point x="131.2" y="545.4000000000001" type="curve" smooth="yes"/>
      <point x="92.6" y="545.2"/>
      <point x="65.8" y="529.5999999999999"/>
      <point x="57.599999999999994" y="497.6" type="curve" smooth="yes"/>
      <point x="49.8" y="465.4"/>
      <point x="65.60000000000001" y="447.6"/>
      <point x="105.2" y="448.6" type="curve" smooth="yes"/>
      <point x="220.6" y="447.6"/>
      <point x="477.4" y="452.6"/>
    </contour>
  </outline>
</glyph>
<glyph name="dollar" format="2">
  <advance width="1160.1999999999998"/>
  <unicode hex="0024"/>
  <outline>
    <contour>
      <point x="473.6" y="6.400000000000001" type="curve" smooth="yes"/>
      <point x="730.2637681159421" y="6.400000000000001"/>
      <point x="948.6232137848943" y="132.4681832199029"/>
      <point x="986.5999999999999" y="336.2" type="curve" smooth="yes"/>
      <point x="1020.9366406921431" y="491.20625025578346"/>
      <point x="933.1635852182128" y="642.0690494422367"/>
      <point x="690.8" y="743.4" type="curve" smooth="yes"/>
      <point x="467.79999999999995" y="834.0"/>
      <point x="405.59999999999997" y="937.8"/>
      <point x="439.99999999999994" y="1088.2" type="curve" smooth="yes"/>
      <point x="470.40000000000003" y="1229.4"/>
      <point x="623.0" y="1331.6000000000001"/>
      <point x="818.0" y="1331.6000000000001" type="curve" smooth="yes"/>
      <point x="986.8000000000001" y="1331.6000000000001"/>
      <point x="1063.0" y="1247.8000000000002"/>
      <point x="1033.6" y="1136.3999999999999" type="curve" smooth="yes"/>
      <point x="1018.0" y="1079.4" type="line" smooth="yes"/>
      <point x="1005.8" y="1033.2"/>
      <point x="1031.2" y="1002.8000000000001"/>
      <point x="1078.6000000000001" y="1002.8" type="curve" smooth="yes"/>
      <point x="1124.4" y="1002.8"/>
      <point x="1167.6" y="1042.8"/>
      <point x="1178.8" y="1108.8" type="curve" smooth="yes"/>
      <point x="1212.3999999999999" y="1262.0"/>
      <point x="1089.4" y="1390.8"/>
      <point x="832.6" y="1390.8" type="curve" smooth="yes"/>
      <point x="539.4" y="1390.8"/>
      <point x="343.4" y="1230.2"/>
      <point x="308.2" y="1049.8" type="curve" smooth="yes"/>
      <point x="269.8" y="876.8000000000001"/>
      <point x="333.27889746659946" y="733.693234090998"/>
      <point x="594.4" y="631.4" type="curve" smooth="yes"/>
      <point x="803.4" y="549.4"/>
      <point x="876.0" y="433.6"/>
      <point x="844.8000000000001" y="298.8" type="curve" smooth="yes"/>
      <point x="813.6" y="161.0"/>
      <point x="676.5999999999999" y="70.39999999999999"/>
      <point x="486.0" y="70.39999999999999" type="curve" smooth="yes"/>
      <point x="291.0" y="70.39999999999999"/>
      <point x="206.2" y="157.2"/>
      <point x="237.2" y="270.8" type="curve" smooth="yes"/>
      <point x="252.8" y="329.59999999999997" type="line" smooth="yes"/>
      <point x="266.79999999999995" y="382.8"/>
      <point x="247.0" y="416.20000000000005"/>
      <point x="202.39999999999998" y="416.2" type="curve" smooth="yes"/>
      <point x="151.6" y="416.2"/>
      <point x="103.8" y="367.59999999999997"/>
      <point x="92.6" y="298.2" type="curve" smooth="yes"/>
      <point x="58.2" y="138.8"/>
      <point x="215.4" y="6.400000000000001"/>
    </contour>
    <contour>
      <point x="682.2" y="715.0" type="line"/>
      <point x="838.4" y="1298.0"/>
      <point x="900.4" y="1404.6000000000001"/>
      <point x="919.6" y="1475.2" type="curve" smooth="yes"/>
      <point x="933.5999999999999" y="1528.0"/>
      <point x="914.0" y="1553.6000000000001"/>
      <point x="881.1999999999999" y="1553.6000000000001" type="curve" smooth="yes"/>
      <point x="846.6" y="1553.6000000000001"/>
      <point x="811.4" y="1527.3999999999999"/>
      <point x="797.8" y="1476.8" type="curve" smooth="yes"/>
      <point x="778.4" y="1406.2"/>
      <point x="780.6" y="1298.0"/>
      <point x="622.4" y="715.0" type="curve"/>
    </contour>
    <contour>
      <point x="606.8" y="677.8" type="line"/>
      <point x="457.79999999999995" y="123.6"/>
      <point x="400.59999999999997" y="19.399999999999995"/>
      <point x="381.40000000000003" y="-52.0" type="curve" smooth="yes"/>
      <point x="365.0" y="-112.8"/>
      <point x="382.2" y="-140.8"/>
      <point x="418.20000000000005" y="-140.8" type="curve" smooth="yes"/>
      <point x="456.0" y="-140.8"/>
      <point x="487.20000000000005" y="-113.0"/>
      <point x="503.2" y="-54.4" type="curve" smooth="yes"/>
      <point x="522.6" y="19.2"/>
      <point x="517.2" y="124.0"/>
      <point x="666.6" y="677.8" type="curve"/>
    </contour>
  </outline>
</glyph>
<glyph name="ampersand" format="2">
  <advance width="1333.4"/>
  <unicode hex="0026"/>
  <outline>
    <contour>
      <point x="817.0" y="1345.4" type="curve" smooth="yes"/>
      <point x="672.6155688622754" y="1345.4"/>
      <point x="548.8962617215288" y="1233.9619136607898"/>
      <point x="509.4" y="1085.8000000000002" type="curve" smooth="yes"/>
      <point x="474.2424904549399" y="953.8194648196356"/>
      <point x="508.40000000000003" y="841.4"/>
      <point x="636.8" y="795.0" type="curve" smooth="yes"/>
      <point x="726.0" y="761.6"/>
      <point x="765.1999999999999" y="714.8"/>
      <point x="820.0" y="605.8" type="curve" smooth="yes"/>
      <point x="1036.1999999999998" y="174.4" type="line" smooth="yes"/>
      <point x="1062.0" y="122.60000000000001"/>
      <point x="1083.2" y="101.6"/>
      <point x="1146.6" y="93.6" type="curve" smooth="yes"/>
      <point x="1180.4" y="88.0"/>
      <point x="1197.0" y="73.8"/>
      <point x="1193.0" y="49.0" type="curve" smooth="yes"/>
      <point x="1188.1999999999998" y="17.4"/>
      <point x="1162.0" y="0.8"/>
      <point x="1121.8" y="0.8" type="curve" smooth="yes"/>
      <point x="1036.2" y="0.8" type="line" smooth="yes"/>
      <point x="977.0" y="0.8"/>
      <point x="946.6" y="18.4"/>
      <point x="921.8" y="68.0" type="curve" smooth="yes"/>
      <point x="693.0" y="534.0" type="line" smooth="yes"/>
      <point x="644.1235374825006" y="634.0800165881788"/>
      <point x="607.3063080142495" y="687.4701520374377"/>
      <point x="524.5999999999999" y="715.4" type="curve" smooth="yes"/>
      <point x="372.9726366008345" y="767.0129072637573"/>
      <point x="325.80000000000007" y="898.8"/>
      <point x="366.4" y="1048.6" type="curve" smooth="yes"/>
      <point x="424.3708831682007" y="1260.698973416939"/>
      <point x="625.8000000000001" y="1421.3999999999999"/>
      <point x="854.8000000000001" y="1421.3999999999999" type="curve" smooth="yes"/>
      <point x="1067.6" y="1421.3999999999999"/>
      <point x="1169.4440761679718" y="1271.5623858820013"/>
      <point x="1119.6" y="1085.4" type="curve" smooth="yes"/>
      <point x="1064.8" y="882.8000000000001"/>
      <point x="891.4" y="749.0"/>
      <point x="644.0" y="725.4" type="curve"/>
      <point x="639.4" y="771.4" type="line"/>
      <point x="813.4" y="801.2"/>
      <point x="924.8" y="906.2"/>
      <point x="966.8000000000001" y="1066.2" type="curve" smooth="yes"/>
      <point x="1012.0000000000001" y="1241.3999999999999"/>
      <point x="947.0" y="1345.4"/>
    </contour>
    <contour>
      <point x="567.1999999999999" y="696.2" type="line"/>
      <point x="378.40000000000003" y="669.4000000000001"/>
      <point x="244.60000000000002" y="538.4"/>
      <point x="203.19999999999996" y="385.8" type="curve" smooth="yes"/>
      <point x="150.2" y="186.4"/>
      <point x="236.79999999999998" y="74.39999999999998"/>
      <point x="427.8" y="74.39999999999998" type="curve" smooth="yes"/>
      <point x="583.1999999999999" y="74.39999999999998"/>
      <point x="735.4" y="153.79999999999998"/>
      <point x="848.6" y="290.8" type="curve"/>
      <point x="890.0" y="241.20000000000002" type="line"/>
      <point x="750.0" y="83.00000000000001"/>
      <point x="585.0" y="-22.8"/>
      <point x="343.2" y="-22.8" type="curve" smooth="yes"/>
      <point x="85.6" y="-22.8"/>
      <point x="-6.199999999999989" y="149.4"/>
      <point x="43.80000000000001" y="350.8" type="curve" smooth="yes"/>
      <point x="99.20000000000002" y="572.6"/>
      <point x="297.4" y="729.8000000000001"/>
      <point x="581.4" y="749.0" type="curve"/>
    </contour>
    <contour>
      <point x="927.8000000000001" y="338.20000000000005" type="line"/>
      <point x="1118.0" y="577.1999999999999" type="line" smooth="yes"/>
      <point x="1156.8783085213533" y="624.7936154582555"/>
      <point x="1157.0" y="650.4"/>
      <point x="1119.8" y="658.8" type="curve" smooth="yes"/>
      <point x="1051.8" y="673.0" type="line" smooth="yes"/>
      <point x="1027.6255991847843" y="679.1763003566568"/>
      <point x="1020.8000000000001" y="693.4024691358024"/>
      <point x="1024.0" y="712.0" type="curve" smooth="yes"/>
      <point x="1027.2" y="735.5586206896552"/>
      <point x="1047.8000000000002" y="754.4"/>
      <point x="1080.4" y="754.4" type="curve" smooth="yes"/>
      <point x="1362.8" y="754.4" type="line" smooth="yes"/>
      <point x="1393.2" y="754.4"/>
      <point x="1407.6" y="736.6"/>
      <point x="1403.6000000000001" y="710.4" type="curve" smooth="yes"/>
      <point x="1400.3999999999999" y="689.8000000000001"/>
      <point x="1382.8" y="671.2"/>
      <point x="1347.6000000000001" y="663.8000000000001" type="curve" smooth="yes"/>
      <point x="1283.2" y="655.8"/>
      <point x="1248.8" y="628.8"/>
      <point x="1199.0" y="570.6" type="curve" smooth="yes"/>
      <point x="959.8000000000001" y="278.4" type="line"/>
    </contour>
  </outline>
</glyph>
<glyph name="quotesingle" format="2">
  <advance width="274.4"/>
  <unicode hex="0027"/>
  <outline>
    <contour>
      <point x="285.2" y="956.0" type="curve" smooth="yes"/>
      <point x="308.4" y="956.0"/>
      <point x="328.6" y="969.6"/>
      <point x="342.0" y="1003.8000000000001" type="curve" smooth="yes"/>
      <point x="486.4" y="1428.6" type="line" smooth="yes"/>
      <point x="516.4" y="1506.2"/>
      <point x="501.59999999999997" y="1545.0"/>
      <point x="446.2" y="1545.0" type="curve" smooth="yes"/>
      <point x="391.0" y="1545.0"/>
      <point x="354.40000000000003" y="1504.4"/>
      <point x="342.6" y="1428.4" type="curve" smooth="yes"/>
      <point x="254.8" y="1004.2" type="line" smooth="yes"/>
      <point x="248.79999999999998" y="971.2"/>
      <point x="263.2" y="956.0"/>
    </contour>
  </outline>
</glyph>
<glyph name="parenleft" format="2">
  <advance width="704.6"/>
  <unicode hex="0028"/>
  <outline>
    <contour>
      <point x="241.8" y="660.2" type="curve" smooth="yes"/>
      <point x="129.2" y="240.8"/>
      <point x="235.6" y="-134.8"/>
      <point x="418.0" y="-249.39999999999998" type="curve" smooth="yes"/>
      <point x="444.79999999999995" y="-263.79999999999995"/>
      <point x="469.79999999999995" y="-257.8"/>
      <point x="486.0" y="-236.4" type="curve" smooth="yes"/>
      <point x="500.0" y="-218.39999999999998"/>
      <point x="493.6" y="-197.4"/>
      <point x="476.20000000000005" y="-178.0" type="curve" smooth="yes"/>
      <point x="339.40000000000003" y="-34.400000000000006"/>
      <point x="281.4" y="291.8"/>
      <point x="379.8" y="660.2" type="curve" smooth="yes"/>
      <point x="468.79999999999995" y="992.5999999999999"/>
      <point x="674.2" y="1250.8"/>
      <point x="899.4" y="1402.3999999999999" type="curve" smooth="yes"/>
      <point x="927.6" y="1421.8"/>
      <point x="945.3999999999999" y="1442.0"/>
      <point x="940.9999999999999" y="1460.8" type="curve" smooth="yes"/>
      <point x="936.1999999999999" y="1482.2"/>
      <point x="914.0" y="1488.2"/>
      <point x="879.4" y="1473.8" type="curve" smooth="yes"/>
      <point x="618.5999999999999" y="1350.3999999999999"/>
      <point x="344.0" y="1042.8"/>
    </contour>
  </outline>
</glyph>
<glyph name="asterisk" format="2">
  <advance width="1250.0"/>
  <unicode hex="002A"/>
  <outline>
    <contour>
      <point x="770.0" y="1001.0" type="line"/>
      <point x="811.6" y="1154.8"/>
      <point x="913.0" y="1331.6"/>
      <point x="941.6" y="1439.0" type="curve" smooth="yes"/>
      <point x="957.6" y="1497.6"/>
      <point x="935.8" y="1529.0"/>
      <point x="886.4" y="1529.0" type="curve" smooth="yes"/>
      <point x="832.8000000000001" y="1529.0"/>
      <point x="797.2" y="1497.6000000000001"/>
      <point x="781.1999999999999" y="1439.0" type="curve" smooth="yes"/>
      <point x="752.6" y="1331.6"/>
      <point x="761.6" y="1154.8"/>
      <point x="720.0" y="1001.0" type="curve"/>
    </contour>
    <contour>
      <point x="743.0" y="1024.2" type="curve"/>
      <point x="745.4000000000001" y="976.2" type="line"/>
      <point x="904.4000000000001" y="1024.2"/>
      <point x="1090.3999999999999" y="1026.8"/>
      <point x="1201.8" y="1060.4" type="curve" smooth="yes"/>
      <point x="1262.0" y="1078.0"/>
      <point x="1293.6" y="1116.6"/>
      <point x="1289.8" y="1163.2" type="curve" smooth="yes"/>
      <point x="1287.6" y="1214.6"/>
      <point x="1253.4" y="1230.3999999999999"/>
      <point x="1193.3999999999999" y="1212.8" type="curve" smooth="yes"/>
      <point x="1081.2" y="1179.0"/>
      <point x="902.1999999999999" y="1071.2"/>
    </contour>
    <contour>
      <point x="759.0" y="1025.8" type="line"/>
      <point x="625.4" y="1072.8"/>
      <point x="502.4" y="1179.0"/>
      <point x="409.4" y="1212.8" type="curve" smooth="yes"/>
      <point x="358.6" y="1230.4"/>
      <point x="314.20000000000005" y="1212.1999999999998"/>
      <point x="286.2" y="1164.8" type="curve" smooth="yes"/>
      <point x="255.8" y="1114.2"/>
      <point x="268.4" y="1078.0"/>
      <point x="319.0" y="1060.3999999999999" type="curve" smooth="yes"/>
      <point x="411.6" y="1026.8"/>
      <point x="597.6" y="1025.8"/>
      <point x="731.0" y="977.8000000000001" type="curve"/>
    </contour>
    <contour>
      <point x="727.4" y="1016.0" type="line"/>
      <point x="603.4" y="892.0"/>
      <point x="426.40000000000003" y="780.8"/>
      <point x="339.6" y="694.0" type="curve" smooth="yes"/>
      <point x="291.79999999999995" y="646.0"/>
      <point x="286.79999999999995" y="603.4000000000001"/>
      <point x="318.59999999999997" y="574.0" type="curve" smooth="yes"/>
      <point x="353.8" y="542.8"/>
      <point x="397.2" y="552.2"/>
      <point x="444.2" y="599.4" type="curve" smooth="yes"/>
      <point x="530.0" y="686.2"/>
      <point x="636.4" y="862.0"/>
      <point x="759.4" y="986.8000000000001" type="curve"/>
    </contour>
    <contour>
      <point x="719.4" y="986.0" type="line"/>
      <point x="776.8" y="861.1999999999999"/>
      <point x="789.2" y="686.1999999999999"/>
      <point x="828.6" y="599.4000000000001" type="curve" smooth="yes"/>
      <point x="850.4" y="552.2"/>
      <point x="891.5999999999999" y="544.6"/>
      <point x="939.4" y="573.2" type="curve" smooth="yes"/>
      <point x="991.2" y="605.2"/>
      <point x="1005.8000000000001" y="646.0"/>
      <point x="984.8000000000001" y="694.0" type="curve" smooth="yes"/>
      <point x="944.4000000000001" y="780.8000000000001"/>
      <point x="825.0" y="891.2"/>
      <point x="767.4" y="1015.1999999999999" type="curve"/>
    </contour>
  </outline>
</glyph>
<glyph name="plus" format="2">
  <advance width="1132.0"/>
  <unicode hex="002B"/>
  <outline>
    <contour>
      <point x="516.8" y="246.8" type="curve" smooth="yes"/>
      <point x="550.6" y="246.8"/>
      <point x="577.4000000000001" y="271.59999999999997"/>
      <point x="585.8000000000001" y="300.79999999999995" type="curve" smooth="yes"/>
      <point x="784.6" y="1044.8" type="line" smooth="yes"/>
      <point x="793.0" y="1074.2"/>
      <point x="780.0" y="1098.8"/>
      <point x="745.2" y="1098.8" type="curve" smooth="yes"/>
      <point x="713.6" y="1098.8"/>
      <point x="687.8000000000001" y="1074.4"/>
      <point x="679.4" y="1044.8" type="curve" smooth="yes"/>
      <point x="480.6" y="302.79999999999995" type="line" smooth="yes"/>
      <point x="473.0" y="272.4"/>
      <point x="485.20000000000005" y="246.8"/>
    </contour>
    <component base="minus" xOffset="-2.0"/>
  </outline>
</glyph>
<glyph name="comma" format="2">
  <advance width="492.59999999999997"/>
  <unicode hex="002C"/>
  <outline>
    <contour>
      <point x="184.4" y="3.1999999999999993" type="curve" smooth="yes"/>
      <point x="213.6" y="-0.5999999999999992" type="line" smooth="yes"/>
      <point x="243.8" y="-2.999999999999999"/>
      <point x="258.8" y="1.6000000000000014"/>
      <point x="246.79999999999998" y="-46.0" type="curve" smooth="yes"/>
      <point x="231.6" y="-110.39999999999999"/>
      <point x="153.39999999999998" y="-200.39999999999998"/>
      <point x="59.6" y="-237.20000000000002" type="curve" smooth="yes"/>
      <point x="20.800000000000004" y="-252.0"/>
      <point x="9.200000000000003" y="-266.0"/>
      <point x="10.200000000000003" y="-288.0" type="curve" smooth="yes"/>
      <point x="11.800000000000004" y="-306.4"/>
      <point x="30.599999999999994" y="-315.0"/>
      <point x="65.39999999999999" y="-304.8" type="curve" smooth="yes"/>
      <point x="147.0" y="-283.0"/>
      <point x="309.79999999999995" y="-178.6"/>
      <point x="354.6" y="32.400000000000006" type="curve"/>
      <point x="381.0" y="155.79999999999998"/>
      <point x="340.0" y="223.2"/>
      <point x="261.8" y="223.2" type="curve" smooth="yes"/>
      <point x="185.2" y="223.2"/>
      <point x="122.19999999999999" y="168.99999999999997"/>
      <point x="111.0" y="104.4" type="curve" smooth="yes"/>
      <point x="100.60000000000001" y="50.4"/>
      <point x="134.6" y="7.8"/>
    </contour>
  </outline>
</glyph>
<glyph name="hyphen" format="2">
  <advance width="870.0"/>
  <unicode hex="002D"/>
  <outline>
    <contour>
      <point x="724.4000000000001" y="569.4" type="curve" smooth="yes"/>
      <point x="235.8" y="569.4" type="line" smooth="yes"/>
      <point x="209.60000000000002" y="569.4"/>
      <point x="198.0" y="563.2"/>
      <point x="185.2" y="539.0" type="curve" smooth="yes"/>
      <point x="155.8" y="485.8" type="line" smooth="yes"/>
      <point x="144.0" y="463.2"/>
      <point x="150.2" y="447.4"/>
      <point x="180.4" y="447.4" type="curve" smooth="yes"/>
      <point x="669.0" y="447.4" type="line" smooth="yes"/>
      <point x="695.2" y="447.4"/>
      <point x="707.6" y="453.6"/>
      <point x="719.6" y="477.8" type="curve" smooth="yes"/>
      <point x="749.0" y="531.0" type="line" smooth="yes"/>
      <point x="760.8" y="553.5999999999999"/>
      <point x="754.6" y="569.4"/>
    </contour>
  </outline>
</glyph>
<glyph name="period" format="2">
  <advance width="464.79999999999995"/>
  <unicode hex="002E"/>
  <outline>
    <contour>
      <point x="180.2" y="-12.399999999999999" type="curve" smooth="yes"/>
      <point x="257.0" y="-12.399999999999999"/>
      <point x="320.2" y="40.4"/>
      <point x="330.59999999999997" y="103.2" type="curve" smooth="yes"/>
      <point x="341.8" y="166.2"/>
      <point x="306.6" y="212.79999999999998"/>
      <point x="237.2" y="212.79999999999998" type="curve" smooth="yes"/>
      <point x="158.8" y="212.79999999999998"/>
      <point x="94.2" y="159.4"/>
      <point x="83.0" y="93.6" type="curve" smooth="yes"/>
      <point x="72.6" y="35.6"/>
      <point x="112.19999999999999" y="-12.399999999999999"/>
    </contour>
  </outline>
</glyph>
<glyph name="slash" format="2">
  <advance width="869.0"/>
  <unicode hex="002F"/>
  <outline>
    <contour>
      <point x="522.0" y="600.2" type="curve" smooth="yes"/>
      <point x="642.0" y="829.8"/>
      <point x="909.2" y="1328.8"/>
      <point x="1020.4000000000001" y="1544.8" type="curve" smooth="yes"/>
      <point x="1040.4" y="1582.2"/>
      <point x="1037.1999999999998" y="1625.4"/>
      <point x="1015.0000000000001" y="1633.8" type="curve" smooth="yes"/>
      <point x="982.8000000000001" y="1644.4"/>
      <point x="951.4" y="1624.8"/>
      <point x="928.8" y="1582.8" type="curve" smooth="yes"/>
      <point x="801.4" y="1334.2"/>
      <point x="560.8" y="845.4000000000001"/>
      <point x="449.40000000000003" y="628.8" type="curve" smooth="yes"/>
      <point x="336.8" y="411.4"/>
      <point x="71.4" y="-67.4"/>
      <point x="-56.8" y="-316.20000000000005" type="curve" smooth="yes"/>
      <point x="-80.4" y="-358.4"/>
      <point x="-75.0" y="-391.0"/>
      <point x="-44.599999999999994" y="-402.0" type="curve" smooth="yes"/>
      <point x="-10.800000000000006" y="-413.6"/>
      <point x="19.999999999999993" y="-395.0"/>
      <point x="43.999999999999986" y="-352.8" type="curve" smooth="yes"/>
      <point x="155.39999999999998" y="-135.2"/>
      <point x="406.2" y="371.6"/>
    </contour>
  </outline>
</glyph>
<glyph name="zero" format="2">
  <advance width="1241.2"/>
  <unicode hex="0030"/>
  <outline>
    <contour>
      <point x="889.4" y="1420.4" type="curve" smooth="yes"/>
      <point x="558.4" y="1420.4"/>
      <point x="274.59405260676226" y="1148.9761032668105"/>
      <point x="156.39999999999998" y="702.2" type="curve" smooth="yes"/>
      <point x="37.0" y="249.8"/>
      <point x="157.79999999999998" y="-22.0"/>
      <point x="495.40000000000003" y="-22.0" type="curve" smooth="yes"/>
      <point x="800.1999999999999" y="-22.0"/>
      <point x="1090.2" y="237.2"/>
      <point x="1212.4" y="698.8" type="curve" smooth="yes"/>
      <point x="1331.2120025049564" y="1147.0481153049568"/>
      <point x="1212.3999999999999" y="1420.4"/>
    </contour>
    <contour>
      <point x="1044.8" y="676.1999999999999" type="curve" smooth="yes"/>
      <point x="941.9814440876862" y="285.7257763507447"/>
      <point x="726.3067092651758" y="65.6"/>
      <point x="521.2" y="65.6" type="curve" smooth="yes"/>
      <point x="283.71764705882356" y="65.6"/>
      <point x="205.20685877365898" y="275.4292922218123"/>
      <point x="323.8" y="723.1999999999999" type="curve" smooth="yes"/>
      <point x="423.6159466655144" y="1098.863402405057"/>
      <point x="637.2282051282052" y="1332.8"/>
      <point x="858.4" y="1332.8" type="curve" smooth="yes"/>
      <point x="1086.9714285714285" y="1332.8"/>
      <point x="1161.5645716828653" y="1116.6704130659878"/>
    </contour>
  </outline>
</glyph>
<glyph name="one" format="2">
  <advance width="846.0"/>
  <unicode hex="0031"/>
  <outline>
    <contour>
      <point x="363.8" y="1232.6" type="line" smooth="yes"/>
      <point x="327.0" y="1232.6"/>
      <point x="312.59999999999997" y="1250.0"/>
      <point x="321.2" y="1282.8" type="curve" smooth="yes"/>
      <point x="329.0" y="1310.6"/>
      <point x="352.8" y="1331.8"/>
      <point x="392.6" y="1331.8" type="curve" smooth="yes"/>
      <point x="556.2" y="1331.8" type="line" smooth="yes"/>
      <point x="607.9895104895105" y="1331.8"/>
      <point x="635.7110727323477" y="1349.8148828533735"/>
      <point x="676.8" y="1395.3999999999999" type="curve" smooth="yes"/>
      <point x="700.0864702702314" y="1420.694201544385"/>
      <point x="721.4" y="1434.1999999999998"/>
      <point x="743.2" y="1434.1999999999998" type="curve" smooth="yes"/>
      <point x="775.8" y="1434.1999999999998"/>
      <point x="791.6" y="1416.1999999999998"/>
      <point x="780.1999999999999" y="1374.8000000000002" type="curve" smooth="yes"/>
      <point x="459.4" y="183.0" type="line" smooth="yes"/>
      <point x="444.92267562460006" y="130.3558460991981"/>
      <point x="455.4" y="99.2"/>
      <point x="512.2" y="93.6" type="curve" smooth="yes"/>
      <point x="644.8000000000001" y="81.6" type="line" smooth="yes"/>
      <point x="671.211190000434" y="77.60859999987044"/>
      <point x="684.4" y="63.49999999999999"/>
      <point x="680.4000000000001" y="42.2" type="curve" smooth="yes"/>
      <point x="677.2" y="14.74313725490196"/>
      <point x="656.0" y="0.0"/>
      <point x="623.8" y="0.0" type="curve" smooth="yes"/>
      <point x="37.6" y="0.0" type="line" smooth="yes"/>
      <point x="4.799999999999997" y="0.0"/>
      <point x="-9.000000000000002" y="13.599999999999998"/>
      <point x="-5.8" y="38.8" type="curve" smooth="yes"/>
      <point x="-1.8000000000000007" y="62.8"/>
      <point x="18.799999999999997" y="79.6"/>
      <point x="49.199999999999996" y="83.2" type="curve" smooth="yes"/>
      <point x="204.8" y="95.0" type="line" smooth="yes"/>
      <point x="253.8" y="99.19999999999999"/>
      <point x="289.6593415640098" y="131.11330410027514"/>
      <point x="304.0" y="183.79999999999998" type="curve" smooth="yes"/>
      <point x="563.8" y="1144.2" type="line" smooth="yes"/>
      <point x="582.3637518627207" y="1214.5223153186755"/>
      <point x="569.672340425532" y="1232.6"/>
      <point x="519.0" y="1232.6" type="curve" smooth="yes"/>
    </contour>
  </outline>
</glyph>
<glyph name="two" format="2">
  <advance width="1142.0"/>
  <unicode hex="0032"/>
  <outline>
    <contour>
      <point x="154.2" y="167.4" type="line"/>
      <point x="512.2" y="394.6" type="line" smooth="yes"/>
      <point x="971.4" y="688.6"/>
      <point x="1116.4" y="832.4"/>
      <point x="1165.8" y="1019.0" type="curve" smooth="yes"/>
      <point x="1225.6" y="1241.4"/>
      <point x="1132.0" y="1422.3999999999999"/>
      <point x="856.0" y="1422.3999999999999" type="curve" smooth="yes"/>
      <point x="562.8" y="1422.3999999999999"/>
      <point x="354.8" y="1241.0"/>
      <point x="306.4" y="1061.4" type="curve" smooth="yes"/>
      <point x="284.20000000000005" y="979.2"/>
      <point x="308.0" y="935.4"/>
      <point x="363.2" y="935.4" type="curve"/>
      <point x="415.40000000000003" y="935.4"/>
      <point x="459.6" y="969.6"/>
      <point x="478.2" y="1037.3999999999999" type="curve" smooth="yes"/>
      <point x="496.8" y="1108.2" type="line" smooth="yes"/>
      <point x="528.2" y="1229.2"/>
      <point x="647.4" y="1348.0"/>
      <point x="823.8" y="1348.0" type="curve" smooth="yes"/>
      <point x="994.1999999999999" y="1348.0"/>
      <point x="1055.1999999999998" y="1209.8"/>
      <point x="1004.6" y="1024.3999999999999" type="curve" smooth="yes"/>
      <point x="951.0" y="826.2"/>
      <point x="796.2" y="672.4000000000001"/>
      <point x="418.59999999999997" y="420.8" type="curve" smooth="yes"/>
      <point x="130.2" y="223.6" type="line"/>
    </contour>
    <contour>
      <point x="14.2" y="81.79999999999998" type="curve" smooth="yes"/>
      <point x="-4.3999999999999995" y="12.199999999999996"/>
      <point x="23.0" y="-24.0"/>
      <point x="69.0" y="-24.0" type="curve" smooth="yes"/>
      <point x="127.19999999999999" y="-24.0"/>
      <point x="167.4" y="7.800000000000001"/>
      <point x="194.8" y="81.4" type="curve" smooth="yes"/>
      <point x="220.6" y="151.79999999999998"/>
      <point x="251.39999999999998" y="196.4"/>
      <point x="304.2" y="196.4" type="curve" smooth="yes"/>
      <point x="356.4" y="196.4"/>
      <point x="389.0" y="171.0"/>
      <point x="442.8" y="113.6" type="curve" smooth="yes"/>
      <point x="509.4" y="19.2"/>
      <point x="577.2" y="-23.199999999999996"/>
      <point x="693.2" y="-23.199999999999996" type="curve" smooth="yes"/>
      <point x="831.8" y="-23.199999999999996"/>
      <point x="933.0" y="57.8"/>
      <point x="1011.2" y="249.2" type="curve" smooth="yes"/>
      <point x="1027.6000000000001" y="291.8"/>
      <point x="1020.5999999999999" y="309.8"/>
      <point x="997.2" y="313.2" type="curve" smooth="yes"/>
      <point x="977.8" y="316.2"/>
      <point x="957.6" y="304.8"/>
      <point x="941.8" y="276.2" type="curve" smooth="yes"/>
      <point x="886.8000000000001" y="173.4"/>
      <point x="828.8000000000001" y="121.99999999999997"/>
      <point x="731.0" y="121.99999999999997" type="curve" smooth="yes"/>
      <point x="595.6" y="121.99999999999997"/>
      <point x="476.6" y="278.2"/>
      <point x="312.4" y="278.2" type="curve" smooth="yes"/>
      <point x="152.79999999999998" y="278.2"/>
      <point x="42.4" y="186.4"/>
    </contour>
  </outline>
</glyph>
<glyph name="three" format="2">
  <advance width="1022.8"/>
  <unicode hex="0033"/>
  <outline>
    <contour>
      <point x="507.8" y="731.4" type="line"/>
      <point x="1134.3999999999999" y="1272.3999999999999" type="line" smooth="yes"/>
      <point x="1176.8" y="1306.8"/>
      <point x="1203.6000000000001" y="1328.8000000000002"/>
      <point x="1210.6000000000001" y="1356.0" type="curve" smooth="yes"/>
      <point x="1217.8" y="1381.6"/>
      <point x="1203.6000000000001" y="1400.0"/>
      <point x="1173.8" y="1400.0" type="curve" smooth="yes"/>
      <point x="475.4" y="1400.0" type="line" smooth="yes"/>
      <point x="422.2" y="1400.0"/>
      <point x="391.2" y="1374.4"/>
      <point x="372.6" y="1328.2" type="curve" smooth="yes"/>
      <point x="287.59999999999997" y="1109.6" type="line" smooth="yes"/>
      <point x="270.4" y="1066.6"/>
      <point x="284.40000000000003" y="1049.6"/>
      <point x="310.0" y="1048.8" type="curve" smooth="yes"/>
      <point x="335.0" y="1048.0"/>
      <point x="354.2" y="1065.2"/>
      <point x="368.0" y="1092.6" type="curve" smooth="yes"/>
      <point x="423.8" y="1197.4" type="line" smooth="yes"/>
      <point x="449.6" y="1245.6"/>
      <point x="474.2" y="1267.8000000000002"/>
      <point x="522.1999999999999" y="1267.8000000000002" type="curve" smooth="yes"/>
      <point x="1074.8" y="1267.8000000000002" type="line"/>
      <point x="1085.2" y="1327.2" type="line"/>
      <point x="476.0" y="802.4000000000001" type="line" smooth="yes"/>
      <point x="443.20000000000005" y="775.1999999999999"/>
      <point x="419.8" y="753.4"/>
      <point x="412.2" y="726.6" type="curve" smooth="yes"/>
      <point x="404.0" y="697.8"/>
      <point x="421.0" y="680.1999999999999"/>
      <point x="453.0" y="680.1999999999999" type="curve" smooth="yes"/>
      <point x="517.6" y="680.1999999999999" type="line" smooth="yes"/>
      <point x="766.4000000000001" y="680.1999999999999"/>
      <point x="836.0" y="573.4000000000001"/>
      <point x="778.8" y="363.8" type="curve" smooth="yes"/>
      <point x="724.8" y="164.6"/>
      <point x="565.8000000000001" y="56.0"/>
      <point x="399.2" y="56.0" type="curve" smooth="yes"/>
      <point x="239.79999999999998" y="56.0"/>
      <point x="167.0" y="120.8"/>
      <point x="197.6" y="235.40000000000003" type="curve" smooth="yes"/>
      <point x="218.39999999999998" y="310.0" type="line" smooth="yes"/>
      <point x="235.4" y="373.8"/>
      <point x="218.2" y="410.79999999999995"/>
      <point x="161.0" y="410.79999999999995" type="curve" smooth="yes"/>
      <point x="106.6" y="410.79999999999995"/>
      <point x="55.99999999999999" y="364.6"/>
      <point x="35.0" y="286.2" type="curve" smooth="yes"/>
      <point x="-10.199999999999996" y="121.0"/>
      <point x="101.0" y="-24.0"/>
      <point x="365.8" y="-24.0" type="curve" smooth="yes"/>
      <point x="643.8000000000001" y="-24.0"/>
      <point x="874.8000000000001" y="146.0"/>
      <point x="941.8000000000001" y="394.2" type="curve" smooth="yes"/>
      <point x="1003.6" y="619.2"/>
      <point x="890.2" y="772.8"/>
      <point x="599.2" y="772.8" type="curve" smooth="yes"/>
      <point x="582.0" y="772.8"/>
      <point x="532.6" y="770.6"/>
      <point x="518.4" y="766.8" type="curve"/>
    </contour>
  </outline>
</glyph>
<glyph name="four" format="2">
  <advance width="1097.2"/>
  <unicode hex="0034"/>
  <outline>
    <contour>
      <point x="729.4" y="752.4000000000001" type="curve" smooth="yes"/>
      <point x="575.8" y="183.8" type="line" smooth="yes"/>
      <point x="561.6" y="131.79999999999998"/>
      <point x="526.4" y="103.19999999999999"/>
      <point x="476.40000000000003" y="96.2" type="curve" smooth="yes"/>
      <point x="391.2" y="83.19999999999999" type="line" smooth="yes"/>
      <point x="359.40000000000003" y="77.39999999999999"/>
      <point x="338.20000000000005" y="63.0"/>
      <point x="331.20000000000005" y="39.599999999999994" type="curve" smooth="yes"/>
      <point x="324.4" y="13.999999999999996"/>
      <point x="337.6" y="0.0"/>
      <point x="370.79999999999995" y="0.0" type="curve" smooth="yes"/>
      <point x="826.8" y="0.0" type="line" smooth="yes"/>
      <point x="860.2" y="0.0"/>
      <point x="880.8" y="14.199999999999998"/>
      <point x="887.6" y="39.6" type="curve" smooth="yes"/>
      <point x="894.6" y="62.8"/>
      <point x="880.1999999999999" y="75.8"/>
      <point x="852.4" y="82.99999999999999" type="curve" smooth="yes"/>
      <point x="778.8" y="96.19999999999999" type="line" smooth="yes"/>
      <point x="732.4" y="103.80000000000001"/>
      <point x="712.0" y="131.79999999999998"/>
      <point x="726.2" y="183.8" type="curve" smooth="yes"/>
      <point x="910.8" y="864.8000000000001" type="line" smooth="yes"/>
      <point x="917.2" y="888.2"/>
      <point x="908.5999999999999" y="899.4"/>
      <point x="893.8" y="899.4" type="curve" smooth="yes"/>
      <point x="878.1999999999999" y="899.4"/>
      <point x="865.4" y="894.0"/>
      <point x="845.8" y="878.4" type="curve" smooth="yes"/>
      <point x="774.1999999999999" y="822.4" type="line" smooth="yes"/>
      <point x="756.5999999999999" y="807.0"/>
      <point x="738.8" y="786.5999999999999"/>
    </contour>
    <contour>
      <point x="713.8" y="1057.4" type="curve" smooth="yes"/>
      <point x="73.6" y="485.79999999999995" type="line" smooth="yes"/>
      <point x="36.6" y="455.2"/>
      <point x="21.800000000000004" y="434.8"/>
      <point x="15.600000000000003" y="413.40000000000003" type="curve" smooth="yes"/>
      <point x="6.800000000000004" y="381.20000000000005"/>
      <point x="22.0" y="360.6"/>
      <point x="60.8" y="360.6" type="curve" smooth="yes"/>
      <point x="947.0" y="359.8" type="line" smooth="yes"/>
      <point x="981.4" y="359.8"/>
      <point x="1000.3999999999999" y="374.4"/>
      <point x="1008.4" y="403.4" type="curve" smooth="yes"/>
      <point x="1015.8" y="432.6"/>
      <point x="1000.6" y="444.6"/>
      <point x="971.8" y="444.6" type="curve" smooth="yes"/>
      <point x="95.2" y="444.6" type="line"/>
      <point x="97.19999999999999" y="410.4" type="line"/>
      <point x="834.0" y="1056.6000000000001" type="line" smooth="yes"/>
      <point x="950.8" y="1154.2"/>
      <point x="1003.5999999999999" y="1219.4"/>
      <point x="1026.6" y="1303.8" type="curve" smooth="yes"/>
      <point x="1048.8" y="1383.2"/>
      <point x="1009.8000000000001" y="1430.0"/>
      <point x="942.0" y="1430.0" type="curve" smooth="yes"/>
      <point x="862.8000000000001" y="1430.0"/>
      <point x="805.2" y="1382.0"/>
      <point x="788.4" y="1320.8" type="curve" smooth="yes"/>
      <point x="770.4" y="1254.2"/>
      <point x="820.6" y="1229.8"/>
      <point x="803.6" y="1167.0" type="curve" smooth="yes"/>
      <point x="792.8000000000001" y="1126.2"/>
      <point x="758.4" y="1093.8"/>
    </contour>
  </outline>
</glyph>
<glyph name="five" format="2">
  <advance width="1077.2"/>
  <unicode hex="0035"/>
  <outline>
    <contour>
      <point x="80.0" y="285.8" type="curve" smooth="yes"/>
      <point x="34.19999999999999" y="118.6"/>
      <point x="152.6" y="-24.0"/>
      <point x="407.4" y="-24.0" type="curve" smooth="yes"/>
      <point x="687.0" y="-24.0"/>
      <point x="916.8000000000001" y="151.4"/>
      <point x="991.6" y="424.6" type="curve" smooth="yes"/>
      <point x="1058.8000000000002" y="671.4"/>
      <point x="949.0" y="846.4"/>
      <point x="697.4" y="846.4" type="curve" smooth="yes"/>
      <point x="554.4000000000001" y="846.4"/>
      <point x="414.20000000000005" y="787.2"/>
      <point x="295.8" y="672.6" type="curve"/>
      <point x="323.8" y="666.4000000000001" type="line"/>
      <point x="506.6" y="1344.1999999999998" type="line"/>
      <point x="460.2" y="1300.2" type="line"/>
      <point x="544.6" y="1215.6"/>
      <point x="665.2" y="1165.6"/>
      <point x="824.0" y="1165.6" type="curve" smooth="yes"/>
      <point x="996.8000000000001" y="1165.6"/>
      <point x="1153.0" y="1246.4"/>
      <point x="1229.8" y="1381.4" type="curve" smooth="yes"/>
      <point x="1253.2" y="1422.4"/>
      <point x="1247.2" y="1437.2"/>
      <point x="1236.0" y="1444.3999999999999" type="curve" smooth="yes"/>
      <point x="1219.6000000000001" y="1454.8"/>
      <point x="1198.4" y="1447.0"/>
      <point x="1170.4" y="1419.8" type="curve" smooth="yes"/>
      <point x="1096.2" y="1342.2"/>
      <point x="999.2" y="1298.6000000000001"/>
      <point x="877.6" y="1298.6000000000001" type="curve" smooth="yes"/>
      <point x="738.0" y="1298.6000000000001"/>
      <point x="668.4000000000001" y="1345.4"/>
      <point x="577.8" y="1410.0" type="curve" smooth="yes"/>
      <point x="557.2" y="1424.0"/>
      <point x="540.0" y="1430.0"/>
      <point x="517.2" y="1430.0" type="curve" smooth="yes"/>
      <point x="466.8" y="1430.0"/>
      <point x="436.40000000000003" y="1400.8"/>
      <point x="423.79999999999995" y="1355.0" type="curve" smooth="yes"/>
      <point x="225.20000000000002" y="624.2" type="line" smooth="yes"/>
      <point x="215.0" y="587.4000000000001"/>
      <point x="225.6" y="566.0"/>
      <point x="250.0" y="566.0" type="curve" smooth="yes"/>
      <point x="278.2" y="566.0"/>
      <point x="300.0" y="583.4000000000001"/>
      <point x="333.6" y="610.0" type="curve" smooth="yes"/>
      <point x="435.4" y="708.0"/>
      <point x="535.0" y="753.0"/>
      <point x="634.2" y="753.0" type="curve" smooth="yes"/>
      <point x="806.8000000000001" y="753.0"/>
      <point x="894.8" y="640.6"/>
      <point x="833.4" y="414.4" type="curve" smooth="yes"/>
      <point x="767.6" y="171.8"/>
      <point x="612.4" y="56.0"/>
      <point x="447.2" y="56.0" type="curve" smooth="yes"/>
      <point x="280.79999999999995" y="56.0"/>
      <point x="214.60000000000002" y="128.8"/>
      <point x="242.8" y="235.2" type="curve" smooth="yes"/>
      <point x="263.6" y="309.8" type="line" smooth="yes"/>
      <point x="280.6" y="373.2"/>
      <point x="263.79999999999995" y="410.8"/>
      <point x="207.0" y="410.8" type="curve" smooth="yes"/>
      <point x="152.2" y="410.8"/>
      <point x="101.2" y="364.0"/>
    </contour>
  </outline>
</glyph>
<glyph name="six" format="2">
  <advance width="1131.6"/>
  <unicode hex="0036"/>
  <outline>
    <contour>
      <point x="911.8000000000001" y="1423.2" type="curve" smooth="yes"/>
      <point x="585.4" y="1423.2"/>
      <point x="290.40000000000003" y="1193.2"/>
      <point x="149.0" y="668.4000000000001" type="curve" smooth="yes"/>
      <point x="30.400000000000006" y="229.0"/>
      <point x="149.0" y="-23.199999999999996"/>
      <point x="467.4" y="-23.199999999999996" type="curve" smooth="yes"/>
      <point x="744.8" y="-23.199999999999996"/>
      <point x="969.4" y="142.0"/>
      <point x="1042.6" y="412.0" type="curve" smooth="yes"/>
      <point x="1112.8" y="667.6"/>
      <point x="1006.3999999999999" y="842.2"/>
      <point x="747.8" y="842.2" type="curve" smooth="yes"/>
      <point x="508.0" y="842.2"/>
      <point x="258.0" y="651.4"/>
      <point x="195.4" y="435.59999999999997" type="curve"/>
      <point x="240.59999999999997" y="411.0" type="line"/>
      <point x="293.4" y="585.1999999999999"/>
      <point x="488.4" y="743.0"/>
      <point x="669.8" y="743.0" type="curve" smooth="yes"/>
      <point x="856.6" y="743.0"/>
      <point x="946.0" y="626.0"/>
      <point x="886.0" y="404.2" type="curve" smooth="yes"/>
      <point x="828.1999999999999" y="191.0"/>
      <point x="678.2" y="61.8"/>
      <point x="501.0" y="61.8" type="curve" smooth="yes"/>
      <point x="291.8" y="61.8"/>
      <point x="186.39999999999998" y="225.8"/>
      <point x="311.2" y="686.6" type="curve" smooth="yes"/>
      <point x="442.6" y="1172.3999999999999"/>
      <point x="679.6" y="1336.6"/>
      <point x="869.8" y="1336.6" type="curve" smooth="yes"/>
      <point x="1006.6" y="1336.6"/>
      <point x="1051.0" y="1274.8000000000002"/>
      <point x="1024.0" y="1173.4" type="curve" smooth="yes"/>
      <point x="1008.4" y="1115.2" type="line" smooth="yes"/>
      <point x="990.1999999999999" y="1051.2"/>
      <point x="1009.4000000000001" y="1017.4000000000001"/>
      <point x="1068.4" y="1017.4000000000001" type="curve" smooth="yes"/>
      <point x="1127.6000000000001" y="1017.4000000000001"/>
      <point x="1174.0" y="1061.0"/>
      <point x="1195.4" y="1139.0" type="curve" smooth="yes"/>
      <point x="1236.6000000000001" y="1290.6000000000001"/>
      <point x="1136.4" y="1423.2"/>
    </contour>
  </outline>
</glyph>
<glyph name="seven" format="2">
  <advance width="1034.8"/>
  <unicode hex="0037"/>
  <outline>
    <contour>
      <point x="1120.4" y="1282.2" type="line"/>
      <point x="757.8" y="877.8" type="line" smooth="yes"/>
      <point x="492.20000000000005" y="595.5999999999999"/>
      <point x="329.0" y="402.6"/>
      <point x="272.20000000000005" y="195.6" type="curve" smooth="yes"/>
      <point x="233.6" y="51.199999999999996"/>
      <point x="267.0" y="-23.2"/>
      <point x="349.8" y="-23.2" type="curve" smooth="yes"/>
      <point x="421.99999999999994" y="-23.2"/>
      <point x="472.59999999999997" y="19.199999999999996"/>
      <point x="490.4" y="83.8" type="curve" smooth="yes"/>
      <point x="510.99999999999994" y="159.39999999999998"/>
      <point x="443.59999999999997" y="229.0"/>
      <point x="471.2" y="328.0" type="curve" smooth="yes"/>
      <point x="510.6" y="473.8"/>
      <point x="638.4" y="628.4"/>
      <point x="866.5999999999999" y="879.0" type="curve" smooth="yes"/>
      <point x="1192.8" y="1250.2" type="line" smooth="yes"/>
      <point x="1233.8" y="1288.2"/>
      <point x="1247.0" y="1313.1999999999998"/>
      <point x="1254.4" y="1340.0" type="curve" smooth="yes"/>
      <point x="1264.8000000000002" y="1376.2"/>
      <point x="1248.6" y="1400.0"/>
      <point x="1196.8" y="1400.0" type="curve" smooth="yes"/>
      <point x="469.2" y="1400.0" type="line" smooth="yes"/>
      <point x="418.2" y="1400.0"/>
      <point x="388.59999999999997" y="1373.8"/>
      <point x="370.40000000000003" y="1327.4" type="curve" smooth="yes"/>
      <point x="282.4" y="1095.2" type="line" smooth="yes"/>
      <point x="266.0" y="1052.8"/>
      <point x="277.6" y="1035.1999999999998"/>
      <point x="304.8" y="1034.3999999999999" type="curve" smooth="yes"/>
      <point x="329.4" y="1033.6"/>
      <point x="349.0" y="1050.4"/>
      <point x="362.8" y="1077.8" type="curve" smooth="yes"/>
      <point x="422.0" y="1189.4" type="line" smooth="yes"/>
      <point x="448.8" y="1238.3999999999999"/>
      <point x="470.2" y="1259.2"/>
      <point x="518.8" y="1259.2" type="curve" smooth="yes"/>
      <point x="1135.8000000000002" y="1259.2" type="line"/>
    </contour>
  </outline>
</glyph>
<glyph name="eight" format="2">
  <advance width="1081.2"/>
  <unicode hex="0038"/>
  <outline>
    <contour>
      <point x="404.0" y="-23.800000000000004" type="curve" smooth="yes"/>
      <point x="689.1999999999999" y="-23.800000000000004"/>
      <point x="903.4" y="111.60000000000001"/>
      <point x="960.8000000000001" y="322.40000000000003" type="curve" smooth="yes"/>
      <point x="1004.8" y="484.6"/>
      <point x="926.6" y="612.8"/>
      <point x="663.8000000000001" y="705.6" type="curve" smooth="yes"/>
      <point x="414.59999999999997" y="794.2"/>
      <point x="377.4" y="916.2"/>
      <point x="416.0" y="1057.8" type="curve" smooth="yes"/>
      <point x="459.4" y="1218.8000000000002"/>
      <point x="613.5999999999999" y="1341.2"/>
      <point x="790.0" y="1341.2" type="curve" smooth="yes"/>
      <point x="970.0" y="1341.2"/>
      <point x="1064.1999999999998" y="1238.0"/>
      <point x="1010.4" y="1040.0" type="curve" smooth="yes"/>
      <point x="970.4000000000001" y="890.5999999999999"/>
      <point x="836.0" y="757.8000000000001"/>
      <point x="656.2" y="670.2" type="curve"/>
      <point x="680.6" y="631.6" type="line"/>
      <point x="924.6" y="697.1999999999999"/>
      <point x="1110.2" y="841.8000000000001"/>
      <point x="1164.6" y="1041.0" type="curve" smooth="yes"/>
      <point x="1221.8" y="1248.6"/>
      <point x="1117.8000000000002" y="1422.4"/>
      <point x="831.0" y="1422.4" type="curve" smooth="yes"/>
      <point x="545.5999999999999" y="1422.4"/>
      <point x="318.2" y="1248.8"/>
      <point x="257.6" y="1025.4" type="curve" smooth="yes"/>
      <point x="203.0" y="825.0"/>
      <point x="281.59999999999997" y="700.4"/>
      <point x="547.8000000000001" y="604.8" type="curve" smooth="yes"/>
      <point x="787.2" y="518.2"/>
      <point x="835.4" y="431.8"/>
      <point x="799.4" y="299.4" type="curve" smooth="yes"/>
      <point x="758.4" y="146.0"/>
      <point x="624.2" y="55.19999999999999"/>
      <point x="453.4" y="55.19999999999999" type="curve" smooth="yes"/>
      <point x="269.8" y="55.19999999999999"/>
      <point x="176.39999999999998" y="148.6"/>
      <point x="220.0" y="309.2" type="curve" smooth="yes"/>
      <point x="251.39999999999998" y="425.4"/>
      <point x="355.2" y="552.2"/>
      <point x="532.4" y="621.8000000000001" type="curve"/>
      <point x="520.8000000000001" y="661.5999999999999" type="line"/>
      <point x="292.0" y="621.0"/>
      <point x="110.80000000000001" y="471.2"/>
      <point x="66.0" y="308.20000000000005" type="curve" smooth="yes"/>
      <point x="11.600000000000005" y="107.0"/>
      <point x="121.4" y="-23.800000000000004"/>
    </contour>
  </outline>
</glyph>
<glyph name="nine" format="2">
  <advance width="1139.8"/>
  <unicode hex="0039"/>
  <outline>
    <contour>
      <point x="380.59999999999997" y="-23.199999999999996" type="curve" smooth="yes"/>
      <point x="707.4" y="-23.199999999999996"/>
      <point x="979.2" y="221.8"/>
      <point x="1126.6000000000001" y="729.0" type="curve" smooth="yes"/>
      <point x="1256.0" y="1173.3999999999999"/>
      <point x="1133.8" y="1423.2"/>
      <point x="817.0" y="1423.2" type="curve" smooth="yes"/>
      <point x="543.0" y="1423.2"/>
      <point x="304.8" y="1251.3999999999999"/>
      <point x="230.39999999999998" y="976.8000000000001" type="curve" smooth="yes"/>
      <point x="162.79999999999998" y="729.8"/>
      <point x="270.6" y="554.8000000000001"/>
      <point x="528.6" y="554.8000000000001" type="curve" smooth="yes"/>
      <point x="768.4000000000001" y="554.8000000000001"/>
      <point x="1017.4" y="745.6"/>
      <point x="1080.2" y="961.4" type="curve"/>
      <point x="1035.6" y="986.0" type="line"/>
      <point x="982.0" y="811.8000000000001"/>
      <point x="787.1999999999999" y="654.0"/>
      <point x="605.8" y="654.0" type="curve" smooth="yes"/>
      <point x="421.8" y="654.0"/>
      <point x="330.4" y="771.4"/>
      <point x="390.79999999999995" y="994.1999999999999" type="curve" smooth="yes"/>
      <point x="449.0" y="1208.8000000000002"/>
      <point x="607.2" y="1338.1999999999998"/>
      <point x="784.2" y="1338.1999999999998" type="curve" smooth="yes"/>
      <point x="993.3999999999999" y="1338.1999999999998"/>
      <point x="1098.6" y="1175.2"/>
      <point x="967.4000000000001" y="720.4" type="curve" smooth="yes"/>
      <point x="827.4" y="236.0"/>
      <point x="614.4" y="63.400000000000006"/>
      <point x="422.6" y="63.400000000000006" type="curve" smooth="yes"/>
      <point x="285.8" y="63.400000000000006"/>
      <point x="217.39999999999998" y="125.19999999999999"/>
      <point x="244.39999999999998" y="226.6" type="curve" smooth="yes"/>
      <point x="260.79999999999995" y="284.79999999999995" type="line" smooth="yes"/>
      <point x="278.2" y="348.8"/>
      <point x="259.0" y="382.59999999999997"/>
      <point x="199.99999999999997" y="382.59999999999997" type="curve" smooth="yes"/>
      <point x="140.8" y="382.59999999999997"/>
      <point x="95.2" y="339.0"/>
      <point x="73.0" y="261.0" type="curve" smooth="yes"/>
      <point x="31.800000000000004" y="109.4"/>
      <point x="156.0" y="-23.199999999999996"/>
    </contour>
  </outline>
</glyph>
<glyph name="less" format="2">
  <advance width="1032.8"/>
  <unicode hex="003C"/>
  <outline>
    <contour>
      <point x="296.59999999999997" y="687.4" type="line"/>
      <point x="852.6" y="338.8" type="line" smooth="yes"/>
      <point x="881.6" y="320.0"/>
      <point x="891.4" y="297.4"/>
      <point x="886.6" y="277.2" type="curve" smooth="yes"/>
      <point x="880.7926373000745" y="255.2223898752795"/>
      <point x="863.4" y="242.8"/>
      <point x="834.0" y="242.8" type="curve" smooth="yes"/>
      <point x="809.6" y="242.8"/>
      <point x="788.8" y="255.60000000000002"/>
      <point x="758.8" y="274.4" type="curve" smooth="yes"/>
      <point x="228.0" y="593.0" type="line" smooth="yes"/>
      <point x="191.60000000000002" y="615.0"/>
      <point x="177.0" y="647.8000000000001"/>
      <point x="186.6" y="688.8" type="curve" smooth="yes"/>
      <point x="196.4" y="728.1999999999999"/>
      <point x="227.60000000000002" y="757.8"/>
      <point x="278.8" y="781.4000000000001" type="curve" smooth="yes"/>
      <point x="980.0" y="1100.8" type="line" smooth="yes"/>
      <point x="1019.3900485234135" y="1119.0955110187135"/>
      <point x="1046.9857142857143" y="1129.4"/>
      <point x="1071.6000000000001" y="1129.4" type="curve" smooth="yes"/>
      <point x="1099.6000000000001" y="1129.4"/>
      <point x="1109.6000000000001" y="1107.4"/>
      <point x="1102.0" y="1080.2" type="curve" smooth="yes"/>
      <point x="1096.0" y="1059.0"/>
      <point x="1073.8" y="1036.0"/>
      <point x="1034.6" y="1017.4" type="curve" smooth="yes"/>
      <point x="292.4" y="671.4" type="line"/>
    </contour>
  </outline>
</glyph>
<glyph name="question" format="2">
  <advance width="912.8"/>
  <unicode hex="003F"/>
  <outline>
    <contour>
      <point x="391.20000000000005" y="679.4" type="line" smooth="yes"/>
      <point x="398.20000000000005" y="726.8000000000001"/>
      <point x="423.2" y="764.0"/>
      <point x="469.59999999999997" y="784.8000000000001" type="curve" smooth="yes"/>
      <point x="553.0" y="821.2" type="line" smooth="yes"/>
      <point x="727.6" y="898.2"/>
      <point x="800.5999999999999" y="1002.4"/>
      <point x="832.0" y="1119.0" type="curve" smooth="yes"/>
      <point x="874.8000000000001" y="1279.2"/>
      <point x="800.4" y="1360.4"/>
      <point x="676.0" y="1360.4" type="curve" smooth="yes"/>
      <point x="558.2" y="1360.4"/>
      <point x="472.0" y="1307.2"/>
      <point x="442.59999999999997" y="1196.1999999999998" type="curve" smooth="yes"/>
      <point x="429.20000000000005" y="1147.8" type="line" smooth="yes"/>
      <point x="412.59999999999997" y="1085.6"/>
      <point x="366.0" y="1050.4"/>
      <point x="306.2" y="1050.4" type="curve" smooth="yes"/>
      <point x="253.40000000000003" y="1050.4"/>
      <point x="228.0" y="1093.4"/>
      <point x="244.2" y="1153.0" type="curve" smooth="yes"/>
      <point x="283.8" y="1301.4"/>
      <point x="490.4" y="1446.3999999999999"/>
      <point x="704.6" y="1446.3999999999999" type="curve" smooth="yes"/>
      <point x="930.0" y="1446.3999999999999"/>
      <point x="1042.6000000000001" y="1318.8000000000002"/>
      <point x="989.0" y="1116.2" type="curve" smooth="yes"/>
      <point x="948.0" y="961.8"/>
      <point x="839.0" y="828.1999999999999"/>
      <point x="635.4" y="760.4" type="curve" smooth="yes"/>
      <point x="571.8" y="738.0" type="line" smooth="yes"/>
      <point x="537.8" y="727.2"/>
      <point x="521.4" y="704.2"/>
      <point x="508.20000000000005" y="668.0" type="curve" smooth="yes"/>
      <point x="458.8" y="515.6" type="line" smooth="yes"/>
      <point x="438.79999999999995" y="472.6"/>
      <point x="419.20000000000005" y="453.6"/>
      <point x="391.6" y="453.6" type="curve" smooth="yes"/>
      <point x="363.6" y="453.6"/>
      <point x="351.4" y="474.2"/>
      <point x="356.8" y="514.4" type="curve" smooth="yes"/>
    </contour>
    <component base="period" xOffset="115.6" yOffset="-6.4"/>
  </outline>
</glyph>
<glyph name="at" format="2">
  <advance width="1730.8"/>
  <unicode hex="0040"/>
  <outline>
    <contour>
      <point x="611.6" y="384.2" type="curve" smooth="yes"/>
      <point x="618.3999999999999" y="656.6"/>
      <point x="868.0" y="935.4"/>
      <point x="1077.0" y="935.4" type="curve" smooth="yes"/>
      <point x="1130.6000000000001" y="935.4"/>
      <point x="1162.0" y="912.4"/>
      <point x="1160.3999999999999" y="862.8" type="curve" smooth="yes"/>
      <point x="1154.4" y="646.5999999999999"/>
      <point x="887.8" y="231.6"/>
      <point x="713.1999999999999" y="231.6" type="curve" smooth="yes"/>
      <point x="645.1999999999999" y="231.6"/>
      <point x="608.0" y="267.2"/>
    </contour>
    <contour>
      <point x="1152.6000000000001" y="136.0" type="curve" smooth="yes"/>
      <point x="1357.2" y="136.0"/>
      <point x="1562.6000000000001" y="312.2"/>
      <point x="1638.2" y="593.1999999999999" type="curve" smooth="yes"/>
      <point x="1768.8" y="1078.8"/>
      <point x="1523.8000000000002" y="1364.4"/>
      <point x="1135.6" y="1364.4" type="curve" smooth="yes"/>
      <point x="647.6" y="1364.4"/>
      <point x="260.4" y="1027.0"/>
      <point x="142.0" y="581.1999999999999" type="curve" smooth="yes"/>
      <point x="4.800000000000004" y="69.2"/>
      <point x="267.8" y="-250.39999999999998"/>
      <point x="711.4" y="-250.39999999999998" type="curve" smooth="yes"/>
      <point x="1002.6" y="-250.39999999999998"/>
      <point x="1285.8" y="-146.4"/>
      <point x="1471.8000000000002" y="27.000000000000007" type="curve" smooth="yes"/>
      <point x="1503.8" y="55.2"/>
      <point x="1518.2" y="82.6"/>
      <point x="1503.4" y="102.4" type="curve" smooth="yes"/>
      <point x="1488.0" y="121.8"/>
      <point x="1455.6" y="111.0"/>
      <point x="1427.2" y="88.80000000000001" type="curve" smooth="yes"/>
      <point x="1236.3999999999999" y="-70.0"/>
      <point x="999.0" y="-164.2"/>
      <point x="737.5999999999999" y="-164.2" type="curve" smooth="yes"/>
      <point x="338.79999999999995" y="-164.2"/>
      <point x="121.6" y="136.2"/>
      <point x="241.6" y="581.2" type="curve" smooth="yes"/>
      <point x="351.0" y="993.1999999999999"/>
      <point x="693.8" y="1281.2"/>
      <point x="1109.4" y="1281.2" type="curve" smooth="yes"/>
      <point x="1445.8000000000002" y="1281.2"/>
      <point x="1648.4" y="1013.0"/>
      <point x="1535.8" y="592.0" type="curve" smooth="yes"/>
      <point x="1469.8" y="342.99999999999994"/>
      <point x="1328.6000000000001" y="237.8"/>
      <point x="1213.0" y="237.8" type="curve" smooth="yes"/>
      <point x="1153.8941176470587" y="237.8"/>
      <point x="1130.315572450157" y="281.46313890493514"/>
      <point x="1152.2" y="365.59999999999997" type="curve" smooth="yes"/>
      <point x="1270.8" y="829.4" type="line" smooth="yes"/>
      <point x="1281.4" y="868.0"/>
      <point x="1320.0" y="887.6"/>
      <point x="1322.1999999999998" y="929.8000000000001" type="curve" smooth="yes"/>
      <point x="1324.8" y="986.6"/>
      <point x="1255.0" y="1020.0"/>
      <point x="1116.0" y="1020.0" type="curve" smooth="yes"/>
      <point x="789.5999999999999" y="1020.0"/>
      <point x="483.4" y="694.0"/>
      <point x="476.0" y="358.79999999999995" type="curve" smooth="yes"/>
      <point x="469.8" y="199.2"/>
      <point x="541.6" y="135.8"/>
      <point x="649.0" y="135.8" type="curve" smooth="yes"/>
      <point x="819.6" y="135.8"/>
      <point x="994.8" y="285.6"/>
      <point x="1123.8" y="586.6" type="curve"/>
      <point x="1113.0" y="612.6" type="line"/>
      <point x="1043.1219003699937" y="386.47675746332686"/>
      <point x="1033.0" y="342.0"/>
      <point x="1023.4000000000001" y="291.6" type="curve" smooth="yes"/>
      <point x="1004.2" y="198.6"/>
      <point x="1060.53591160221" y="136.0"/>
    </contour>
  </outline>
</glyph>
<glyph name="A" format="2">
  <advance width="1265.2"/>
  <unicode hex="0041"/>
  <anchor x="996.8000000000001" y="1532.0" name="center"/>
  <outline>
    <contour>
      <point x="236.6" y="213.6" type="curve" smooth="yes"/>
      <point x="737.8000000000001" y="998.4" type="line" smooth="yes"/>
      <point x="828.0" y="1140.4"/>
      <point x="896.5999999999999" y="1222.3999999999999"/>
      <point x="934.8" y="1254.0" type="curve"/>
      <point x="896.2" y="1276.0" type="line"/>
      <point x="894.8" y="992.8"/>
      <point x="888.4" y="431.2"/>
      <point x="883.0" y="200.0" type="curve" smooth="yes"/>
      <point x="881.1999999999999" y="143.59999999999997"/>
      <point x="857.6" y="111.8"/>
      <point x="814.8" y="99.60000000000001" type="curve" smooth="yes"/>
      <point x="750.0" y="83.99999999999999" type="line" smooth="yes"/>
      <point x="726.6" y="74.8"/>
      <point x="710.8000000000001" y="60.0"/>
      <point x="710.8000000000001" y="38.8" type="curve" smooth="yes"/>
      <point x="710.8" y="15.399999999999999"/>
      <point x="726.4" y="0.0"/>
      <point x="753.1999999999999" y="0.0" type="curve" smooth="yes"/>
      <point x="1107.2" y="0.0" type="line" smooth="yes"/>
      <point x="1143.4" y="0.0"/>
      <point x="1160.6" y="17.2"/>
      <point x="1160.6" y="42.8" type="curve" smooth="yes"/>
      <point x="1160.6" y="62.2"/>
      <point x="1150.0" y="75.99999999999999"/>
      <point x="1128.2" y="83.39999999999999" type="curve" smooth="yes"/>
      <point x="1064.8000000000002" y="103.6"/>
      <point x="1032.6000000000001" y="127.79999999999998"/>
      <point x="1032.0" y="192.39999999999998" type="curve" smooth="yes"/>
      <point x="1029.8" y="411.2"/>
      <point x="1037.8" y="958.4"/>
      <point x="1039.3999999999999" y="1220.4" type="curve" smooth="yes"/>
      <point x="1039.4" y="1282.8"/>
      <point x="1065.2" y="1314.0"/>
      <point x="1110.6000000000001" y="1326.4" type="curve" smooth="yes"/>
      <point x="1135.6" y="1334.2"/>
      <point x="1149.3999999999999" y="1351.0"/>
      <point x="1149.3999999999999" y="1372.8000000000002" type="curve" smooth="yes"/>
      <point x="1149.3999999999999" y="1398.6"/>
      <point x="1130.4" y="1415.2"/>
      <point x="1085.4" y="1415.2" type="curve" smooth="yes"/>
      <point x="959.0" y="1415.2"/>
      <point x="829.8000000000001" y="1296.6"/>
      <point x="672.2" y="1050.0" type="curve" smooth="yes"/>
      <point x="130.4" y="211.6" type="line" smooth="yes"/>
      <point x="92.2" y="151.59999999999997"/>
      <point x="49.4" y="114.8"/>
      <point x="5.6" y="103.2" type="curve" smooth="yes"/>
      <point x="-36.6" y="87.6"/>
      <point x="-54.2" y="71.6"/>
      <point x="-54.199999999999996" y="44.8" type="curve" smooth="yes"/>
      <point x="-54.199999999999996" y="15.399999999999997"/>
      <point x="-34.2" y="0.0"/>
      <point x="6.800000000000001" y="0.0" type="curve" smooth="yes"/>
      <point x="293.2" y="0.0" type="line" smooth="yes"/>
      <point x="328.4" y="0.0"/>
      <point x="349.2" y="16.599999999999998"/>
      <point x="349.2" y="45.2" type="curve" smooth="yes"/>
      <point x="349.19999999999993" y="63.99999999999999"/>
      <point x="338.6" y="80.6"/>
      <point x="311.4" y="88.4" type="curve" smooth="yes"/>
      <point x="243.79999999999998" y="101.19999999999999" type="line" smooth="yes"/>
      <point x="201.39999999999998" y="111.4"/>
      <point x="197.0" y="151.6"/>
    </contour>
    <contour>
      <point x="346.2" y="483.20000000000005" type="line"/>
      <point x="939.0" y="483.20000000000005" type="line"/>
      <point x="945.4" y="560.4" type="line"/>
      <point x="376.59999999999997" y="560.4" type="line"/>
    </contour>
  </outline>
</glyph>
<glyph name="B" format="2">
  <advance width="1287.2"/>
  <unicode hex="0042"/>
  <outline>
    <contour>
      <point x="644.4" y="1229.2" type="curve" smooth="yes"/>
      <point x="661.0" y="1288.4"/>
      <point x="704.0" y="1315.6"/>
      <point x="807.6" y="1315.6" type="curve" smooth="yes"/>
      <point x="1011.6" y="1315.6"/>
      <point x="1125.6" y="1210.0"/>
      <point x="1093.6" y="1018.8000000000001" type="curve" smooth="yes"/>
      <point x="1059.8" y="810.0"/>
      <point x="887.2" y="683.2"/>
      <point x="678.0" y="683.2" type="curve" smooth="yes"/>
      <point x="442.6" y="683.2" type="line"/>
      <point x="414.20000000000005" y="609.2" type="line"/>
      <point x="718.4" y="609.2" type="line" smooth="yes"/>
      <point x="923.1999999999999" y="609.2"/>
      <point x="1023.1999999999999" y="521.0"/>
      <point x="997.6" y="355.2" type="curve" smooth="yes"/>
      <point x="970.2" y="176.39999999999998"/>
      <point x="808.0" y="79.8"/>
      <point x="558.4" y="79.8" type="curve" smooth="yes"/>
      <point x="393.4" y="79.8"/>
      <point x="347.6" y="112.8"/>
      <point x="361.0" y="173.39999999999998" type="curve" smooth="yes"/>
      <point x="390.99999999999994" y="327.0"/>
      <point x="565.6" y="957.4000000000001"/>
    </contour>
    <contour>
      <point x="437.40000000000003" y="1400.0" type="line" smooth="yes"/>
      <point x="379.79999999999995" y="1400.0"/>
      <point x="355.4" y="1377.6"/>
      <point x="355.4" y="1349.6000000000001" type="curve" smooth="yes"/>
      <point x="355.4" y="1331.8"/>
      <point x="372.0" y="1322.0"/>
      <point x="398.8" y="1314.4" type="curve" smooth="yes"/>
      <point x="455.20000000000005" y="1305.0" type="line" smooth="yes"/>
      <point x="486.79999999999995" y="1295.6000000000001"/>
      <point x="497.2" y="1275.4"/>
      <point x="487.6" y="1223.6000000000001" type="curve" smooth="yes"/>
      <point x="472.6" y="1137.6"/>
      <point x="340.2" y="626.6"/>
      <point x="202.2" y="168.79999999999998" type="curve" smooth="yes"/>
      <point x="191.2" y="132.8"/>
      <point x="161.20000000000002" y="106.59999999999998"/>
      <point x="111.0" y="93.39999999999999" type="curve" smooth="yes"/>
      <point x="66.19999999999999" y="82.2" type="line" smooth="yes"/>
      <point x="18.8" y="71.2"/>
      <point x="-4.600000000000001" y="55.2"/>
      <point x="-4.600000000000001" y="37.199999999999996" type="curve" smooth="yes"/>
      <point x="-4.600000000000001" y="14.799999999999997"/>
      <point x="9.2" y="0.0"/>
      <point x="48.400000000000006" y="0.0" type="curve" smooth="yes"/>
      <point x="547.4000000000001" y="0.0" type="line" smooth="yes"/>
      <point x="915.2" y="0.0"/>
      <point x="1119.8" y="136.2"/>
      <point x="1149.4" y="347.0" type="curve" smooth="yes"/>
      <point x="1176.2" y="538.4"/>
      <point x="1048.4" y="665.6"/>
      <point x="750.6" y="665.6" type="curve"/>
      <point x="753.0" y="646.0" type="line"/>
      <point x="1014.4" y="646.0"/>
      <point x="1213.4" y="790.4"/>
      <point x="1245.1999999999998" y="1020.2" type="curve" smooth="yes"/>
      <point x="1277.6000000000001" y="1253.8"/>
      <point x="1129.4" y="1400.0"/>
      <point x="804.4000000000001" y="1400.0" type="curve" smooth="yes"/>
    </contour>
  </outline>
</glyph>
<glyph name="C" format="2">
  <advance width="1288.8"/>
  <unicode hex="0043"/>
  <anchor x="947.1999999999999" y="1510.0" name="center"/>
  <outline>
    <contour>
      <point x="1188.3999999999999" y="394.79999999999995" type="curve" smooth="yes"/>
      <point x="1163.0" y="407.0"/>
      <point x="1140.4" y="391.0"/>
      <point x="1115.2" y="356.4" type="curve" smooth="yes"/>
      <point x="1001.6" y="168.59999999999997"/>
      <point x="854.8000000000001" y="74.8"/>
      <point x="660.4000000000001" y="74.8" type="curve" smooth="yes"/>
      <point x="424.2" y="74.8"/>
      <point x="272.0" y="285.59999999999997"/>
      <point x="326.59999999999997" y="645.4" type="curve" smooth="yes"/>
      <point x="380.4" y="1010.0000000000001"/>
      <point x="628.6" y="1343.1999999999998"/>
      <point x="955.0" y="1343.1999999999998" type="curve" smooth="yes"/>
      <point x="1117.6" y="1343.1999999999998"/>
      <point x="1206.8" y="1278.4"/>
      <point x="1248.3999999999999" y="1151.0" type="curve" smooth="yes"/>
      <point x="1273.8000000000002" y="1073.6" type="line" smooth="yes"/>
      <point x="1281.0" y="1050.8"/>
      <point x="1296.4" y="1036.4"/>
      <point x="1318.8000000000002" y="1036.4" type="curve" smooth="yes"/>
      <point x="1344.8" y="1036.4"/>
      <point x="1366.6" y="1056.0"/>
      <point x="1363.8" y="1085.4" type="curve" smooth="yes"/>
      <point x="1324.1999999999998" y="1376.8" type="line" smooth="yes"/>
      <point x="1320.4" y="1410.0"/>
      <point x="1306.6" y="1430.0"/>
      <point x="1279.6" y="1430.0" type="curve" smooth="yes"/>
      <point x="1237.3999999999999" y="1430.0"/>
      <point x="1223.0" y="1381.6"/>
      <point x="1189.8" y="1381.6" type="curve" smooth="yes"/>
      <point x="1160.0" y="1381.6"/>
      <point x="1099.8" y="1430.0"/>
      <point x="959.6" y="1430.0" type="curve" smooth="yes"/>
      <point x="542.0" y="1430.0"/>
      <point x="215.8" y="1053.2"/>
      <point x="157.60000000000002" y="640.8" type="curve" smooth="yes"/>
      <point x="98.4" y="223.79999999999998"/>
      <point x="292.0" y="-30.0"/>
      <point x="619.4" y="-30.0" type="curve" smooth="yes"/>
      <point x="882.8" y="-30.0"/>
      <point x="1084.0" y="105.2"/>
      <point x="1187.8" y="304.4" type="curve" smooth="yes"/>
      <point x="1211.8" y="349.79999999999995"/>
      <point x="1208.8" y="385.0"/>
    </contour>
  </outline>
</glyph>
<glyph name="D" format="2">
  <advance width="1486.8"/>
  <unicode hex="0044"/>
  <anchor x="981.4" y="1485.0" name="center"/>
  <outline>
    <contour>
      <point x="13.0" y="37.8" type="curve" smooth="yes"/>
      <point x="13.0" y="15.6"/>
      <point x="22.8" y="0.0"/>
      <point x="55.60000000000001" y="0.0" type="curve" smooth="yes"/>
      <point x="557.8" y="0.0" type="line" smooth="yes"/>
      <point x="1009.6" y="0.0"/>
      <point x="1367.4" y="232.8"/>
      <point x="1442.1999999999998" y="694.2" type="curve" smooth="yes"/>
      <point x="1507.1999999999998" y="1095.0"/>
      <point x="1233.2" y="1400.0"/>
      <point x="870.2" y="1400.0" type="curve" smooth="yes"/>
      <point x="416.8" y="1400.0" type="line" smooth="yes"/>
      <point x="375.2" y="1400.0"/>
      <point x="357.0" y="1384.2"/>
      <point x="357.0" y="1358.3999999999999" type="curve" smooth="yes"/>
      <point x="357.0" y="1335.2"/>
      <point x="368.0" y="1325.6000000000001"/>
      <point x="404.4" y="1316.0" type="curve" smooth="yes"/>
      <point x="450.2" y="1304.6" type="line" smooth="yes"/>
      <point x="490.4" y="1294.6"/>
      <point x="503.0" y="1269.8"/>
      <point x="491.59999999999997" y="1217.8" type="curve" smooth="yes"/>
      <point x="466.8" y="1105.8000000000002"/>
      <point x="247.2" y="304.2"/>
      <point x="214.79999999999998" y="206.0" type="curve" smooth="yes"/>
      <point x="188.6" y="128.2"/>
      <point x="155.4" y="100.80000000000001"/>
      <point x="121.4" y="94.2" type="curve" smooth="yes"/>
      <point x="66.2" y="84.6" type="line" smooth="yes"/>
      <point x="28.599999999999998" y="76.2"/>
      <point x="13.0" y="62.199999999999996"/>
    </contour>
    <contour>
      <point x="571.6" y="92.39999999999999" type="curve" smooth="yes"/>
      <point x="422.79999999999995" y="92.39999999999999" type="line" smooth="yes"/>
      <point x="375.2" y="92.39999999999999"/>
      <point x="358.99999999999994" y="113.99999999999999"/>
      <point x="365.59999999999997" y="162.6" type="curve" smooth="yes"/>
      <point x="378.8" y="262.79999999999995"/>
      <point x="627.5999999999999" y="1148.6"/>
      <point x="658.2" y="1246.8000000000002" type="curve" smooth="yes"/>
      <point x="671.8000000000001" y="1289.3999999999999"/>
      <point x="698.0" y="1316.0"/>
      <point x="741.0" y="1316.0" type="curve" smooth="yes"/>
      <point x="862.6" y="1316.0" type="line" smooth="yes"/>
      <point x="1108.8" y="1316.0"/>
      <point x="1340.6" y="1078.2"/>
      <point x="1280.8" y="696.0" type="curve" smooth="yes"/>
      <point x="1223.0" y="321.6"/>
      <point x="947.8" y="92.39999999999999"/>
    </contour>
  </outline>
</glyph>
<glyph name="E" format="2">
  <advance width="1221.0"/>
  <unicode hex="0045"/>
  <anchor x="856.4000000000001" y="1468.0" name="center"/>
  <outline>
    <contour>
      <point x="430.0" y="732.4000000000001" type="line"/>
      <point x="409.6" y="655.6" type="line"/>
      <point x="832.8" y="655.6" type="line" smooth="yes"/>
      <point x="892.1999999999999" y="655.6"/>
      <point x="918.0" y="641.4"/>
      <point x="944.8" y="558.4" type="curve" smooth="yes"/>
      <point x="955.0" y="532.4"/>
      <point x="970.0" y="518.6"/>
      <point x="993.4" y="518.6" type="curve" smooth="yes"/>
      <point x="1016.6000000000001" y="518.6"/>
      <point x="1036.2" y="537.4"/>
      <point x="1029.2" y="576.4" type="curve" smooth="yes"/>
      <point x="972.0" y="845.4" type="line" smooth="yes"/>
      <point x="969.0" y="866.1999999999999"/>
      <point x="956.6" y="882.8000000000001"/>
      <point x="929.4" y="882.8000000000001" type="curve" smooth="yes"/>
      <point x="911.0" y="882.8000000000001"/>
      <point x="897.4" y="871.8000000000001"/>
      <point x="894.0" y="847.1999999999999" type="curve" smooth="yes"/>
      <point x="898.2" y="755.2"/>
      <point x="875.8" y="732.4000000000001"/>
      <point x="820.0" y="732.4000000000001" type="curve" smooth="yes"/>
    </contour>
    <contour>
      <point x="752.4" y="0.0" type="line" smooth="yes"/>
      <point x="797.8000000000001" y="0.0"/>
      <point x="821.4000000000001" y="-31.2"/>
      <point x="855.8" y="-31.2" type="curve" smooth="yes"/>
      <point x="976.4" y="-31.2"/>
      <point x="1092.4" y="132.8"/>
      <point x="1092.3999999999999" y="283.79999999999995" type="curve" smooth="yes"/>
      <point x="1092.4" y="312.8"/>
      <point x="1079.3999999999999" y="329.8"/>
      <point x="1058.2" y="329.8" type="curve" smooth="yes"/>
      <point x="1042.4" y="329.8"/>
      <point x="1024.6000000000001" y="316.0"/>
      <point x="1013.8000000000001" y="292.2" type="curve" smooth="yes"/>
      <point x="955.2" y="130.39999999999998"/>
      <point x="871.4" y="76.8"/>
      <point x="734.8" y="76.8" type="curve" smooth="yes"/>
      <point x="422.4" y="76.8" type="line" smooth="yes"/>
      <point x="368.4" y="76.8"/>
      <point x="343.4" y="112.0"/>
      <point x="358.4" y="169.2" type="curve" smooth="yes"/>
      <point x="379.3793209133831" y="256.4899872591979"/>
      <point x="597.3908027472595" y="1067.5668099140232"/>
      <point x="670.5999999999999" y="1326.4" type="curve"/>
      <point x="1006.6000000000001" y="1326.4" type="line" smooth="yes"/>
      <point x="1080.0" y="1326.4"/>
      <point x="1132.9702923296525" y="1292.5204926507156"/>
      <point x="1188.3999999999999" y="1162.8000000000002" type="curve" smooth="yes"/>
      <point x="1205.3999999999999" y="1119.6000000000001"/>
      <point x="1224.2" y="1101.6"/>
      <point x="1253.2" y="1103.8" type="curve" smooth="yes"/>
      <point x="1278.8" y="1105.6000000000001"/>
      <point x="1296.2" y="1127.0"/>
      <point x="1287.6000000000001" y="1166.6" type="curve" smooth="yes"/>
      <point x="1234.6" y="1388.0" type="line" smooth="yes"/>
      <point x="1226.6000000000001" y="1425.6000000000001"/>
      <point x="1212.6" y="1440.8000000000002"/>
      <point x="1184.3999999999999" y="1440.8000000000002" type="curve" smooth="yes"/>
      <point x="1147.0" y="1440.8000000000002"/>
      <point x="1111.1999999999998" y="1400.0"/>
      <point x="1056.6000000000001" y="1400.0" type="curve" smooth="yes"/>
      <point x="428.0" y="1400.0" type="line" smooth="yes"/>
      <point x="394.0" y="1400.0"/>
      <point x="374.6" y="1383.8"/>
      <point x="374.6" y="1356.0" type="curve" smooth="yes"/>
      <point x="374.6" y="1336.2"/>
      <point x="390.40000000000003" y="1322.2"/>
      <point x="413.2" y="1316.0" type="curve" smooth="yes"/>
      <point x="467.0" y="1304.6000000000001" type="line" smooth="yes"/>
      <point x="497.4" y="1297.8"/>
      <point x="505.59999999999997" y="1261.2"/>
      <point x="494.0" y="1210.6000000000001" type="curve" smooth="yes"/>
      <point x="455.20000000000005" y="1058.4"/>
      <point x="231.79999999999998" y="257.2"/>
      <point x="207.6" y="180.79999999999998" type="curve" smooth="yes"/>
      <point x="190.6" y="127.8"/>
      <point x="164.8" y="109.79999999999998"/>
      <point x="120.60000000000001" y="99.79999999999998" type="curve" smooth="yes"/>
      <point x="55.0" y="85.39999999999999" type="line" smooth="yes"/>
      <point x="29.0" y="77.99999999999999"/>
      <point x="11.400000000000002" y="63.6"/>
      <point x="11.400000000000002" y="40.4" type="curve" smooth="yes"/>
      <point x="11.4" y="18.0"/>
      <point x="23.599999999999998" y="0.0"/>
      <point x="56.4" y="0.0" type="curve" smooth="yes"/>
    </contour>
  </outline>
</glyph>
<glyph name="F" format="2">
  <advance width="1171.8"/>
  <unicode hex="0046"/>
  <outline>
    <contour>
      <point x="369.8" y="1359.2" type="curve" smooth="yes"/>
      <point x="366.6" y="1332.8"/>
      <point x="385.4" y="1324.2"/>
      <point x="419.6" y="1314.4" type="curve" smooth="yes"/>
      <point x="455.8" y="1304.6000000000001" type="line" smooth="yes"/>
      <point x="489.0" y="1295.3999999999999"/>
      <point x="502.0" y="1272.6"/>
      <point x="492.4" y="1228.2" type="curve" smooth="yes"/>
      <point x="432.79999999999995" y="975.0"/>
      <point x="302.6" y="508.8"/>
      <point x="207.6" y="185.4" type="curve" smooth="yes"/>
      <point x="192.8" y="134.8"/>
      <point x="167.8" y="110.6"/>
      <point x="123.80000000000001" y="101.4" type="curve" smooth="yes"/>
      <point x="88.60000000000001" y="93.39999999999999" type="line" smooth="yes"/>
      <point x="35.4" y="81.19999999999999"/>
      <point x="16.200000000000003" y="68.19999999999999"/>
      <point x="14.600000000000001" y="42.0" type="curve" smooth="yes"/>
      <point x="13.0" y="14.799999999999997"/>
      <point x="26.8" y="0.0"/>
      <point x="62.800000000000004" y="0.0" type="curve" smooth="yes"/>
      <point x="435.79999999999995" y="0.0" type="line" smooth="yes"/>
      <point x="496.4" y="0.0"/>
      <point x="518.0" y="20.599999999999998"/>
      <point x="518.0" y="48.599999999999994" type="curve" smooth="yes"/>
      <point x="518.0" y="69.99999999999999"/>
      <point x="498.79999999999995" y="84.39999999999999"/>
      <point x="450.6" y="92.0" type="curve" smooth="yes"/>
      <point x="410.79999999999995" y="98.8" type="line" smooth="yes"/>
      <point x="356.79999999999995" y="108.39999999999998"/>
      <point x="350.0" y="131.20000000000002"/>
      <point x="361.6" y="177.99999999999997" type="curve" smooth="yes"/>
      <point x="420.0" y="415.6"/>
      <point x="574.2" y="978.4000000000001"/>
      <point x="673.1999999999999" y="1326.3999999999999" type="curve"/>
      <point x="992.8" y="1326.3999999999999" type="line" smooth="yes"/>
      <point x="1081.6000000000001" y="1326.3999999999999"/>
      <point x="1130.6" y="1283.6"/>
      <point x="1156.0" y="1224.8000000000002" type="curve" smooth="yes"/>
      <point x="1173.6000000000001" y="1183.2" type="line" smooth="yes"/>
      <point x="1196.6" y="1128.8"/>
      <point x="1213.2" y="1103.2"/>
      <point x="1248.6" y="1105.4" type="curve" smooth="yes"/>
      <point x="1276.0" y="1107.2"/>
      <point x="1290.2" y="1128.4"/>
      <point x="1281.6000000000001" y="1168.0" type="curve" smooth="yes"/>
      <point x="1227.0" y="1396.0" type="line" smooth="yes"/>
      <point x="1219.8" y="1427.2"/>
      <point x="1205.0" y="1440.8000000000002"/>
      <point x="1180.0" y="1440.8000000000002" type="curve" smooth="yes"/>
      <point x="1137.8" y="1440.8000000000002"/>
      <point x="1106.6" y="1400.0"/>
      <point x="1049.0" y="1400.0" type="curve" smooth="yes"/>
      <point x="434.40000000000003" y="1400.0" type="line" smooth="yes"/>
      <point x="397.2" y="1400.0"/>
      <point x="373.0" y="1387.2"/>
    </contour>
    <contour>
      <point x="426.0" y="690.8000000000001" type="line"/>
      <point x="404.0" y="614.0" type="line"/>
      <point x="825.6" y="614.0" type="line" smooth="yes"/>
      <point x="893.0" y="614.0"/>
      <point x="912.4" y="595.0"/>
      <point x="936.0" y="528.0" type="curve" smooth="yes"/>
      <point x="949.4" y="490.8"/>
      <point x="964.4" y="475.40000000000003"/>
      <point x="987.8" y="475.40000000000003" type="curve" smooth="yes"/>
      <point x="1011.0" y="475.40000000000003"/>
      <point x="1032.2" y="494.2"/>
      <point x="1025.2" y="531.5999999999999" type="curve" smooth="yes"/>
      <point x="971.2" y="797.4" type="line" smooth="yes"/>
      <point x="966.6" y="823.0"/>
      <point x="952.6" y="841.1999999999999"/>
      <point x="927.0" y="841.1999999999999" type="curve" smooth="yes"/>
      <point x="905.4" y="841.1999999999999"/>
      <point x="895.0" y="825.4000000000001"/>
      <point x="893.2" y="796.0" type="curve" smooth="yes"/>
      <point x="897.4" y="710.4"/>
      <point x="867.0" y="690.8000000000001"/>
      <point x="814.4" y="690.8000000000001" type="curve" smooth="yes"/>
    </contour>
  </outline>
</glyph>
<glyph name="G" format="2">
  <advance width="1381.8"/>
  <unicode hex="0047"/>
  <anchor x="956.6" y="1566.0" name="center"/>
  <outline>
    <contour>
      <point x="954.4" y="1428.0" type="curve" smooth="yes"/>
      <point x="575.2" y="1428.0"/>
      <point x="241.2" y="1095.4"/>
      <point x="161.2" y="664.5999999999999" type="curve" smooth="yes"/>
      <point x="81.4" y="236.2"/>
      <point x="274.4" y="-33.2"/>
      <point x="608.8" y="-33.2" type="curve" smooth="yes"/>
      <point x="822.0" y="-33.2"/>
      <point x="914.8" y="41.599999999999994"/>
      <point x="955.0" y="41.599999999999994" type="curve" smooth="yes"/>
      <point x="992.8000000000001" y="41.599999999999994"/>
      <point x="975.6" y="-33.2"/>
      <point x="1021.6" y="-33.2" type="curve" smooth="yes"/>
      <point x="1054.8000000000002" y="-33.2"/>
      <point x="1074.8" y="-17.0"/>
      <point x="1089.0" y="33.2" type="curve" smooth="yes"/>
      <point x="1218.3999999999999" y="471.8" type="line" smooth="yes"/>
      <point x="1226.6000000000001" y="499.8"/>
      <point x="1243.8" y="518.8"/>
      <point x="1283.4" y="527.6" type="curve" smooth="yes"/>
      <point x="1320.2" y="535.8000000000001" type="line" smooth="yes"/>
      <point x="1354.8" y="543.8000000000001"/>
      <point x="1373.4" y="561.4"/>
      <point x="1375.0" y="583.8" type="curve" smooth="yes"/>
      <point x="1376.6000000000001" y="612.4"/>
      <point x="1366.2" y="625.8"/>
      <point x="1328.4" y="625.8" type="curve" smooth="yes"/>
      <point x="974.6" y="625.8" type="line" smooth="yes"/>
      <point x="939.4" y="625.8"/>
      <point x="918.0" y="611.6"/>
      <point x="918.0" y="581.8000000000001" type="curve" smooth="yes"/>
      <point x="918.0" y="559.0"/>
      <point x="929.0" y="540.4"/>
      <point x="956.6" y="537.0" type="curve" smooth="yes"/>
      <point x="1025.2" y="528.8" type="line" smooth="yes"/>
      <point x="1071.2" y="523.6"/>
      <point x="1083.3999999999999" y="494.2"/>
      <point x="1068.0" y="438.2" type="curve" smooth="yes"/>
      <point x="1015.1999999999999" y="246.8" type="line" smooth="yes"/>
      <point x="980.8" y="121.19999999999997"/>
      <point x="854.2" y="60.39999999999999"/>
      <point x="670.4" y="60.39999999999999" type="curve" smooth="yes"/>
      <point x="418.8" y="60.39999999999999"/>
      <point x="251.99999999999997" y="266.4"/>
      <point x="329.6" y="661.2" type="curve" smooth="yes"/>
      <point x="409.40000000000003" y="1071.6"/>
      <point x="670.5999999999999" y="1342.4"/>
      <point x="986.0" y="1342.4" type="curve" smooth="yes"/>
      <point x="1128.0" y="1342.4"/>
      <point x="1231.6" y="1295.0"/>
      <point x="1294.4" y="1141.8" type="curve" smooth="yes"/>
      <point x="1320.2" y="1078.2" type="line" smooth="yes"/>
      <point x="1327.8" y="1058.4"/>
      <point x="1347.8" y="1038.8"/>
      <point x="1370.6000000000001" y="1040.0" type="curve" smooth="yes"/>
      <point x="1393.4" y="1041.2"/>
      <point x="1414.4" y="1056.2"/>
      <point x="1410.3999999999999" y="1090.0" type="curve" smooth="yes"/>
      <point x="1368.4" y="1361.6" type="line" smooth="yes"/>
      <point x="1362.6000000000001" y="1407.8"/>
      <point x="1342.8" y="1428.0"/>
      <point x="1312.8" y="1428.0" type="curve" smooth="yes"/>
      <point x="1276.3999999999999" y="1428.0"/>
      <point x="1262.0" y="1381.4"/>
      <point x="1220.0" y="1381.4" type="curve" smooth="yes"/>
      <point x="1188.2" y="1381.4"/>
      <point x="1090.8" y="1428.0"/>
    </contour>
  </outline>
</glyph>
<glyph name="H" format="2">
  <advance width="1548.4"/>
  <unicode hex="0048"/>
  <anchor x="1055.6000000000001" y="1498.0" name="center"/>
  <outline>
    <contour>
      <point x="365.0" y="186.79999999999998" type="curve" smooth="yes"/>
      <point x="378.2" y="257.0"/>
      <point x="592.6" y="1052.2"/>
      <point x="647.8" y="1228.2" type="curve" smooth="yes"/>
      <point x="660.8000000000001" y="1272.6"/>
      <point x="684.2" y="1292.3999999999999"/>
      <point x="733.6" y="1303.3999999999999" type="curve" smooth="yes"/>
      <point x="789.6" y="1316.2" type="line" smooth="yes"/>
      <point x="827.6" y="1326.3999999999999"/>
      <point x="844.4" y="1340.4"/>
      <point x="844.4" y="1366.0" type="curve" smooth="yes"/>
      <point x="844.4" y="1388.3999999999999"/>
      <point x="833.8000000000001" y="1400.0"/>
      <point x="796.1999999999999" y="1400.0" type="curve" smooth="yes"/>
      <point x="431.2" y="1400.0" type="line" smooth="yes"/>
      <point x="381.6" y="1400.0"/>
      <point x="355.4" y="1387.4"/>
      <point x="355.4" y="1360.8" type="curve" smooth="yes"/>
      <point x="355.4" y="1336.6"/>
      <point x="367.2" y="1325.2"/>
      <point x="400.4" y="1316.0" type="curve" smooth="yes"/>
      <point x="447.8" y="1304.6" type="line" smooth="yes"/>
      <point x="493.20000000000005" y="1293.4"/>
      <point x="498.79999999999995" y="1266.8"/>
      <point x="487.59999999999997" y="1213.2" type="curve" smooth="yes"/>
      <point x="456.2" y="1059.0"/>
      <point x="245.8" y="300.79999999999995"/>
      <point x="209.6" y="189.20000000000002" type="curve" smooth="yes"/>
      <point x="192.0" y="135.39999999999998"/>
      <point x="163.20000000000002" y="102.6"/>
      <point x="112.6" y="93.39999999999999" type="curve" smooth="yes"/>
      <point x="59.8" y="83.8" type="line" smooth="yes"/>
      <point x="26.599999999999998" y="76.8"/>
      <point x="9.8" y="59.599999999999994"/>
      <point x="11.4" y="37.2" type="curve" smooth="yes"/>
      <point x="11.4" y="13.199999999999998"/>
      <point x="22.0" y="0.0"/>
      <point x="61.2" y="0.0" type="curve" smooth="yes"/>
      <point x="432.59999999999997" y="0.0" type="line" smooth="yes"/>
      <point x="466.0" y="0.0"/>
      <point x="492.40000000000003" y="14.199999999999998"/>
      <point x="492.40000000000003" y="39.199999999999996" type="curve" smooth="yes"/>
      <point x="492.4" y="61.999999999999986"/>
      <point x="480.4" y="74.79999999999998"/>
      <point x="449.0" y="84.0" type="curve" smooth="yes"/>
      <point x="406.4" y="93.8" type="line" smooth="yes"/>
      <point x="362.4" y="102.60000000000001"/>
      <point x="353.4" y="127.99999999999999"/>
    </contour>
    <contour>
      <point x="433.8" y="694.2" type="line"/>
      <point x="410.2" y="608.2" type="line"/>
      <point x="1233.8" y="608.2" type="line"/>
      <point x="1259.0" y="694.2" type="line"/>
    </contour>
    <contour>
      <point x="1208.0" y="186.8" type="curve" smooth="yes"/>
      <point x="1221.1999999999998" y="257.0"/>
      <point x="1435.4" y="1052.2"/>
      <point x="1490.8" y="1228.2" type="curve" smooth="yes"/>
      <point x="1503.8" y="1272.6"/>
      <point x="1527.1999999999998" y="1292.3999999999999"/>
      <point x="1576.6000000000001" y="1303.4" type="curve" smooth="yes"/>
      <point x="1632.6000000000001" y="1316.2" type="line" smooth="yes"/>
      <point x="1670.6" y="1326.4"/>
      <point x="1687.4" y="1340.3999999999999"/>
      <point x="1687.3999999999999" y="1366.0" type="curve" smooth="yes"/>
      <point x="1687.3999999999999" y="1388.3999999999999"/>
      <point x="1676.8" y="1400.0"/>
      <point x="1639.2" y="1400.0" type="curve" smooth="yes"/>
      <point x="1274.2" y="1400.0" type="line" smooth="yes"/>
      <point x="1224.6" y="1400.0"/>
      <point x="1198.4" y="1387.4"/>
      <point x="1198.4" y="1360.8" type="curve" smooth="yes"/>
      <point x="1198.4" y="1336.6000000000001"/>
      <point x="1210.2" y="1325.2"/>
      <point x="1243.4" y="1316.0" type="curve" smooth="yes"/>
      <point x="1290.8" y="1304.6000000000001" type="line" smooth="yes"/>
      <point x="1336.1999999999998" y="1293.4"/>
      <point x="1341.8" y="1266.8"/>
      <point x="1330.6000000000001" y="1213.1999999999998" type="curve" smooth="yes"/>
      <point x="1299.0" y="1059.0"/>
      <point x="1088.8" y="300.8"/>
      <point x="1052.6" y="189.2" type="curve" smooth="yes"/>
      <point x="1035.0" y="135.4"/>
      <point x="1006.1999999999999" y="102.6"/>
      <point x="955.5999999999999" y="93.39999999999998" type="curve" smooth="yes"/>
      <point x="902.8" y="83.8" type="line" smooth="yes"/>
      <point x="869.6" y="76.8"/>
      <point x="852.8" y="59.599999999999994"/>
      <point x="854.4" y="37.199999999999996" type="curve" smooth="yes"/>
      <point x="854.4" y="13.199999999999998"/>
      <point x="865.0" y="0.0"/>
      <point x="904.1999999999999" y="0.0" type="curve" smooth="yes"/>
      <point x="1275.6000000000001" y="0.0" type="line" smooth="yes"/>
      <point x="1309.0" y="0.0"/>
      <point x="1335.3999999999999" y="14.2"/>
      <point x="1335.3999999999999" y="39.2" type="curve" smooth="yes"/>
      <point x="1335.4" y="61.99999999999999"/>
      <point x="1323.4" y="74.8"/>
      <point x="1292.0" y="83.99999999999999" type="curve" smooth="yes"/>
      <point x="1249.4" y="93.8" type="line" smooth="yes"/>
      <point x="1205.4" y="102.6"/>
      <point x="1196.4" y="128.0"/>
    </contour>
  </outline>
</glyph>
<glyph name="I" format="2">
  <advance width="710.1999999999999"/>
  <unicode hex="0049"/>
  <anchor x="644.2" y="1468.0" name="center"/>
  <outline>
    <contour>
      <point x="367.8" y="186.79999999999998" type="curve" smooth="yes"/>
      <point x="381.0" y="257.0"/>
      <point x="596.2" y="1053.0"/>
      <point x="650.6" y="1228.2" type="curve" smooth="yes"/>
      <point x="663.5999999999999" y="1272.6"/>
      <point x="687.0" y="1292.3999999999999"/>
      <point x="736.4" y="1303.3999999999999" type="curve" smooth="yes"/>
      <point x="792.4" y="1316.2" type="line" smooth="yes"/>
      <point x="830.4" y="1326.3999999999999"/>
      <point x="847.2" y="1340.4"/>
      <point x="847.2" y="1366.0" type="curve" smooth="yes"/>
      <point x="847.2" y="1388.4"/>
      <point x="836.6" y="1400.0"/>
      <point x="799.0" y="1400.0" type="curve" smooth="yes"/>
      <point x="434.0" y="1400.0" type="line" smooth="yes"/>
      <point x="384.40000000000003" y="1400.0"/>
      <point x="358.2" y="1387.4"/>
      <point x="358.2" y="1360.8" type="curve" smooth="yes"/>
      <point x="358.2" y="1336.6"/>
      <point x="370.0" y="1325.2"/>
      <point x="403.2" y="1316.0" type="curve" smooth="yes"/>
      <point x="450.6" y="1304.6" type="line" smooth="yes"/>
      <point x="495.99999999999994" y="1293.4"/>
      <point x="501.6" y="1266.8"/>
      <point x="490.40000000000003" y="1213.2" type="curve" smooth="yes"/>
      <point x="459.0" y="1058.2"/>
      <point x="248.6" y="300.79999999999995"/>
      <point x="212.4" y="189.20000000000002" type="curve" smooth="yes"/>
      <point x="194.79999999999998" y="135.39999999999998"/>
      <point x="166.0" y="102.6"/>
      <point x="115.4" y="93.39999999999999" type="curve" smooth="yes"/>
      <point x="62.6" y="83.8" type="line" smooth="yes"/>
      <point x="29.4" y="76.8"/>
      <point x="12.599999999999998" y="59.599999999999994"/>
      <point x="14.2" y="37.2" type="curve" smooth="yes"/>
      <point x="14.2" y="13.199999999999998"/>
      <point x="24.799999999999997" y="0.0"/>
      <point x="63.99999999999999" y="0.0" type="curve" smooth="yes"/>
      <point x="435.40000000000003" y="0.0" type="line" smooth="yes"/>
      <point x="468.79999999999995" y="0.0"/>
      <point x="495.19999999999993" y="14.199999999999998"/>
      <point x="495.19999999999993" y="39.199999999999996" type="curve" smooth="yes"/>
      <point x="495.20000000000005" y="61.999999999999986"/>
      <point x="483.20000000000005" y="74.79999999999998"/>
      <point x="451.8" y="84.0" type="curve" smooth="yes"/>
      <point x="409.2" y="93.8" type="line" smooth="yes"/>
      <point x="365.20000000000005" y="102.60000000000001"/>
      <point x="356.2" y="127.99999999999999"/>
    </contour>
  </outline>
</glyph>
<glyph name="J" format="2">
  <advance width="685.4"/>
  <unicode hex="004A"/>
  <anchor x="621.0" y="1468.0" name="center"/>
  <outline>
    <contour>
      <point x="635.2" y="1191.6000000000001" type="curve" smooth="yes"/>
      <point x="658.4" y="1268.8000000000002"/>
      <point x="678.4000000000001" y="1287.0"/>
      <point x="730.5999999999999" y="1302.6" type="curve" smooth="yes"/>
      <point x="781.8" y="1317.8" type="line" smooth="yes"/>
      <point x="808.6" y="1326.4"/>
      <point x="827.8000000000001" y="1340.4"/>
      <point x="827.8" y="1366.0" type="curve" smooth="yes"/>
      <point x="827.8" y="1387.6"/>
      <point x="816.4000000000001" y="1400.0"/>
      <point x="779.6" y="1400.0" type="curve" smooth="yes"/>
      <point x="405.0" y="1400.0" type="line" smooth="yes"/>
      <point x="358.40000000000003" y="1400.0"/>
      <point x="338.79999999999995" y="1384.8000000000002"/>
      <point x="338.8" y="1358.3999999999999" type="curve" smooth="yes"/>
      <point x="338.8" y="1336.6000000000001"/>
      <point x="351.4" y="1323.6000000000001"/>
      <point x="381.4" y="1316.0" type="curve" smooth="yes"/>
      <point x="441.6" y="1305.4" type="line" smooth="yes"/>
      <point x="490.8" y="1295.8"/>
      <point x="498.0" y="1276.4"/>
      <point x="486.2" y="1210.0" type="curve" smooth="yes"/>
      <point x="464.79999999999995" y="1095.4"/>
      <point x="212.4" y="196.8"/>
      <point x="203.8" y="166.2" type="curve" smooth="yes"/>
      <point x="172.2" y="54.99999999999999"/>
      <point x="200.6" y="-13.399999999999999"/>
      <point x="200.60000000000002" y="-75.0" type="curve" smooth="yes"/>
      <point x="200.6" y="-183.39999999999998"/>
      <point x="154.6" y="-221.4"/>
      <point x="102.6" y="-221.4" type="curve" smooth="yes"/>
      <point x="55.62539682539682" y="-221.4"/>
      <point x="6.257142857142856" y="-173.4"/>
      <point x="-49.599999999999994" y="-173.4" type="curve" smooth="yes"/>
      <point x="-106.0" y="-173.4"/>
      <point x="-138.0" y="-210.8"/>
      <point x="-138.0" y="-254.2" type="curve" smooth="yes"/>
      <point x="-138.0" y="-311.2"/>
      <point x="-92.96769759450171" y="-355.8"/>
      <point x="2.1999999999999993" y="-355.8" type="curve" smooth="yes"/>
      <point x="148.2" y="-355.8"/>
      <point x="251.0" y="-269.4"/>
      <point x="296.0" y="-82.80000000000001" type="curve" smooth="yes"/>
      <point x="366.8" y="211.0"/>
      <point x="607.6" y="1102.8"/>
    </contour>
  </outline>
</glyph>
<glyph name="K" format="2">
  <advance width="1375.2"/>
  <unicode hex="004B"/>
  <anchor x="637.6" y="1487.0" name="center"/>
  <outline>
    <contour>
      <point x="359.0" y="183.6" type="curve" smooth="yes"/>
      <point x="372.59999999999997" y="254.0"/>
      <point x="589.8000000000001" y="1054.4"/>
      <point x="643.6" y="1229.6000000000001" type="curve" smooth="yes"/>
      <point x="656.4" y="1273.8"/>
      <point x="683.0" y="1295.6"/>
      <point x="730.0" y="1305.6" type="curve" smooth="yes"/>
      <point x="783.2" y="1317.2" type="line" smooth="yes"/>
      <point x="822.8" y="1328.8"/>
      <point x="839.5999999999999" y="1340.4"/>
      <point x="839.5999999999999" y="1366.4" type="curve" smooth="yes"/>
      <point x="839.5999999999999" y="1388.8"/>
      <point x="827.4" y="1400.0"/>
      <point x="793.6" y="1400.0" type="curve" smooth="yes"/>
      <point x="431.4" y="1400.0" type="line" smooth="yes"/>
      <point x="382.2" y="1400.0"/>
      <point x="355.8" y="1387.4"/>
      <point x="355.8" y="1361.0" type="curve" smooth="yes"/>
      <point x="355.8" y="1336.6000000000001"/>
      <point x="367.6" y="1325.2"/>
      <point x="400.8" y="1316.0" type="curve" smooth="yes"/>
      <point x="447.6" y="1305.0" type="line" smooth="yes"/>
      <point x="491.8" y="1294.6000000000001"/>
      <point x="499.0" y="1269.1999999999998"/>
      <point x="488.20000000000005" y="1216.8" type="curve" smooth="yes"/>
      <point x="457.00000000000006" y="1061.8"/>
      <point x="246.6" y="300.8"/>
      <point x="209.60000000000002" y="189.2" type="curve" smooth="yes"/>
      <point x="192.2" y="135.99999999999997"/>
      <point x="162.8" y="102.39999999999999"/>
      <point x="112.6" y="93.39999999999999" type="curve" smooth="yes"/>
      <point x="59.8" y="83.8" type="line" smooth="yes"/>
      <point x="26.599999999999998" y="76.8"/>
      <point x="9.8" y="59.8"/>
      <point x="11.4" y="37.2" type="curve" smooth="yes"/>
      <point x="11.4" y="13.2"/>
      <point x="22.0" y="0.0"/>
      <point x="61.2" y="0.0" type="curve" smooth="yes"/>
      <point x="427.99999999999994" y="0.0" type="line" smooth="yes"/>
      <point x="461.4" y="0.0"/>
      <point x="487.20000000000005" y="13.599999999999998"/>
      <point x="487.20000000000005" y="38.39999999999999" type="curve" smooth="yes"/>
      <point x="487.2" y="62.79999999999999"/>
      <point x="473.4" y="75.99999999999999"/>
      <point x="443.2" y="85.6" type="curve" smooth="yes"/>
      <point x="401.79999999999995" y="95.6" type="line" smooth="yes"/>
      <point x="358.40000000000003" y="104.8"/>
      <point x="348.6" y="129.6"/>
    </contour>
    <contour>
      <point x="688.0" y="774.4" type="line"/>
      <point x="944.6" y="107.8" type="line" smooth="yes"/>
      <point x="979.4" y="19.0"/>
      <point x="1025.2" y="-20.4"/>
      <point x="1100.4" y="-20.4" type="curve" smooth="yes"/>
      <point x="1179.2" y="-20.4"/>
      <point x="1239.6000000000001" y="23.0"/>
      <point x="1268.0" y="88.4" type="curve" smooth="yes"/>
      <point x="1281.8" y="119.39999999999998"/>
      <point x="1272.0" y="144.99999999999997"/>
      <point x="1255.0" y="151.6" type="curve" smooth="yes"/>
      <point x="1240.6" y="158.2"/>
      <point x="1221.8" y="151.99999999999997"/>
      <point x="1209.1999999999998" y="135.6" type="curve" smooth="yes"/>
      <point x="1194.8" y="116.39999999999998"/>
      <point x="1179.0" y="106.39999999999998"/>
      <point x="1156.2" y="106.39999999999998" type="curve" smooth="yes"/>
      <point x="1118.8" y="106.39999999999998"/>
      <point x="1097.6000000000001" y="130.79999999999998"/>
      <point x="1078.4" y="177.99999999999997" type="curve" smooth="yes"/>
      <point x="808.1999999999999" y="858.4" type="line"/>
    </contour>
    <contour>
      <point x="393.4" y="426.0" type="line"/>
      <point x="1172.2" y="1168.6000000000001" type="line" smooth="yes"/>
      <point x="1228.8000000000002" y="1223.3999999999999"/>
      <point x="1280.4" y="1254.0"/>
      <point x="1317.4" y="1254.0" type="curve" smooth="yes"/>
      <point x="1362.8" y="1254.0"/>
      <point x="1391.4" y="1226.6"/>
      <point x="1443.8" y="1226.6" type="curve" smooth="yes"/>
      <point x="1496.2" y="1226.6"/>
      <point x="1542.0" y="1259.0"/>
      <point x="1545.6000000000001" y="1316.8" type="curve" smooth="yes"/>
      <point x="1549.2" y="1373.4"/>
      <point x="1505.3999999999999" y="1418.8"/>
      <point x="1436.0" y="1418.8" type="curve" smooth="yes"/>
      <point x="1343.0" y="1418.8"/>
      <point x="1267.3999999999999" y="1373.8"/>
      <point x="1154.2" y="1264.4" type="curve" smooth="yes"/>
      <point x="377.8" y="517.4" type="line"/>
    </contour>
  </outline>
</glyph>
<glyph name="L" format="2">
  <advance width="1074.6"/>
  <unicode hex="004C"/>
  <anchor x="915.785222502099" y="1236.0" name="right"/>
  <outline>
    <contour>
      <point x="635.4" y="0.0" type="line" smooth="yes"/>
      <point x="692.4" y="0.0"/>
      <point x="717.4" y="-28.0"/>
      <point x="755.5999999999999" y="-28.0" type="curve" smooth="yes"/>
      <point x="869.2" y="-28.0"/>
      <point x="996.9999999999999" y="141.20000000000002"/>
      <point x="997.0" y="314.0" type="curve" smooth="yes"/>
      <point x="997.0" y="342.6031746031746"/>
      <point x="985.5450549450549" y="359.4"/>
      <point x="961.0" y="359.4" type="curve" smooth="yes"/>
      <point x="936.0676691729324" y="359.4"/>
      <point x="920.8" y="339.6"/>
      <point x="908.2" y="307.20000000000005" type="curve" smooth="yes"/>
      <point x="856.5999999999999" y="135.0"/>
      <point x="781.8" y="80.0"/>
      <point x="651.6" y="80.0" type="curve" smooth="yes"/>
      <point x="422.2" y="80.0" type="line" smooth="yes"/>
      <point x="374.59999999999997" y="80.0"/>
      <point x="347.6" y="103.8"/>
      <point x="361.2" y="168.6" type="curve" smooth="yes"/>
      <point x="390.8" y="309.8"/>
      <point x="596.0" y="1043.2"/>
      <point x="647.8" y="1212.0" type="curve" smooth="yes"/>
      <point x="665.0" y="1267.6000000000001"/>
      <point x="685.4" y="1295.3999999999999"/>
      <point x="727.2" y="1302.6" type="curve" smooth="yes"/>
      <point x="794.8000000000001" y="1314.0" type="line" smooth="yes"/>
      <point x="823.0" y="1320.2"/>
      <point x="846.0" y="1336.6"/>
      <point x="846.0" y="1361.2" type="curve" smooth="yes"/>
      <point x="846.0" y="1385.0"/>
      <point x="831.6" y="1400.0"/>
      <point x="796.2" y="1400.0" type="curve" smooth="yes"/>
      <point x="414.2" y="1400.0" type="line"/>
      <point x="377.59999999999997" y="1400.0"/>
      <point x="356.2" y="1384.8"/>
      <point x="356.2" y="1360.8000000000002" type="curve" smooth="yes"/>
      <point x="356.2" y="1335.4"/>
      <point x="372.2" y="1325.4"/>
      <point x="400.40000000000003" y="1316.8" type="curve" smooth="yes"/>
      <point x="462.2" y="1300.6000000000001" type="line" smooth="yes"/>
      <point x="488.4" y="1293.6"/>
      <point x="500.2" y="1268.6000000000001"/>
      <point x="493.4" y="1237.2" type="curve" smooth="yes"/>
      <point x="461.79999999999995" y="1088.2"/>
      <point x="273.0" y="398.6"/>
      <point x="218.6" y="208.79999999999998" type="curve" smooth="yes"/>
      <point x="198.79999999999998" y="141.0"/>
      <point x="172.79999999999998" y="107.80000000000001"/>
      <point x="120.6" y="96.60000000000001" type="curve" smooth="yes"/>
      <point x="72.6" y="86.2" type="line" smooth="yes"/>
      <point x="40.2" y="78.0"/>
      <point x="18.6" y="64.39999999999999"/>
      <point x="17.8" y="40.4" type="curve" smooth="yes"/>
      <point x="13.0" y="16.4"/>
      <point x="29.2" y="0.0"/>
      <point x="67.6" y="0.0" type="curve"/>
    </contour>
  </outline>
</glyph>
<glyph name="M" format="2">
  <advance width="1639.4"/>
  <unicode hex="004D"/>
  <anchor x="707.4" y="1444.0" name="center"/>
  <outline>
    <contour>
      <point x="839.0" y="322.0" type="line"/>
      <point x="770.8000000000001" y="637.0"/>
      <point x="720.0" y="973.6"/>
      <point x="663.6" y="1284.0" type="curve" smooth="yes"/>
      <point x="649.8000000000001" y="1363.2"/>
      <point x="618.0" y="1400.0"/>
      <point x="570.4" y="1400.0" type="curve" smooth="yes"/>
      <point x="417.59999999999997" y="1400.0" type="line" smooth="yes"/>
      <point x="384.8" y="1400.0"/>
      <point x="364.2" y="1386.6000000000001"/>
      <point x="361.0" y="1361.0" type="curve" smooth="yes"/>
      <point x="357.8" y="1336.6000000000001"/>
      <point x="371.20000000000005" y="1324.4"/>
      <point x="393.2" y="1316.0" type="curve" smooth="yes"/>
      <point x="459.80000000000007" y="1296.6" type="line" smooth="yes"/>
      <point x="497.79999999999995" y="1285.0"/>
      <point x="510.2" y="1239.8"/>
      <point x="492.4" y="1180.3999999999999" type="curve" smooth="yes"/>
      <point x="202.4" y="228.0" type="line" smooth="yes"/>
      <point x="180.0" y="150.6"/>
      <point x="160.6" y="124.19999999999999"/>
      <point x="108.60000000000001" y="111.0" type="curve" smooth="yes"/>
      <point x="51.0" y="96.6" type="line" smooth="yes"/>
      <point x="14.599999999999996" y="86.4"/>
      <point x="-2.200000000000003" y="74.0"/>
      <point x="-5.4" y="45.2" type="curve" smooth="yes"/>
      <point x="-8.599999999999998" y="19.599999999999998"/>
      <point x="6.799999999999997" y="0.0"/>
      <point x="45.99999999999999" y="0.0" type="curve" smooth="yes"/>
      <point x="347.4" y="0.0" type="line" smooth="yes"/>
      <point x="387.2" y="0.0"/>
      <point x="412.0" y="15.8"/>
      <point x="416.8" y="45.599999999999994" type="curve" smooth="yes"/>
      <point x="420.0" y="64.6"/>
      <point x="407.0" y="77.6"/>
      <point x="384.59999999999997" y="87.19999999999999" type="curve" smooth="yes"/>
      <point x="311.59999999999997" y="109.8" type="line" smooth="yes"/>
      <point x="277.4" y="120.99999999999999"/>
      <point x="271.8" y="148.8"/>
      <point x="284.8" y="191.79999999999998" type="curve" smooth="yes"/>
      <point x="591.1999999999999" y="1193.6000000000001" type="line"/>
      <point x="537.6" y="1184.3999999999999" type="line"/>
      <point x="597.4" y="909.0"/>
      <point x="646.0" y="580.0"/>
      <point x="708.4" y="242.0" type="curve" smooth="yes"/>
      <point x="716.0" y="205.8"/>
      <point x="734.4" y="179.20000000000002"/>
      <point x="762.0" y="179.20000000000002" type="curve" smooth="yes"/>
      <point x="795.0" y="179.20000000000002"/>
      <point x="814.8" y="196.4"/>
      <point x="851.0" y="253.6" type="curve" smooth="yes"/>
      <point x="1444.6" y="1183.6" type="line"/>
      <point x="1413.0" y="1197.6000000000001" type="line"/>
      <point x="1376.0" y="951.0"/>
      <point x="1258.0" y="336.59999999999997"/>
      <point x="1229.6000000000001" y="188.0" type="curve" smooth="yes"/>
      <point x="1220.2" y="135.20000000000002"/>
      <point x="1189.0" y="112.8"/>
      <point x="1148.4" y="101.4" type="curve" smooth="yes"/>
      <point x="1087.6" y="85.39999999999999" type="line" smooth="yes"/>
      <point x="1065.4" y="78.19999999999999"/>
      <point x="1045.6" y="68.99999999999999"/>
      <point x="1042.3999999999999" y="43.599999999999994" type="curve" smooth="yes"/>
      <point x="1040.8" y="18.6"/>
      <point x="1052.2" y="0.0"/>
      <point x="1089.1999999999998" y="0.0" type="curve" smooth="yes"/>
      <point x="1450.2" y="0.0" type="line" smooth="yes"/>
      <point x="1485.2" y="0.0"/>
      <point x="1503.6" y="12.599999999999996"/>
      <point x="1506.8" y="40.8" type="curve" smooth="yes"/>
      <point x="1510.0" y="65.2"/>
      <point x="1496.2" y="75.0"/>
      <point x="1473.0" y="84.0" type="curve" smooth="yes"/>
      <point x="1416.0" y="101.8" type="line" smooth="yes"/>
      <point x="1378.6000000000001" y="114.6"/>
      <point x="1367.1999999999998" y="138.2"/>
      <point x="1375.4" y="186.79999999999998" type="curve" smooth="yes"/>
      <point x="1398.3999999999999" y="340.2"/>
      <point x="1523.0" y="992.5999999999999"/>
      <point x="1562.2" y="1218.2" type="curve" smooth="yes"/>
      <point x="1570.6000000000001" y="1266.8"/>
      <point x="1595.6000000000001" y="1296.6"/>
      <point x="1633.2" y="1303.3999999999999" type="curve" smooth="yes"/>
      <point x="1676.8" y="1311.6000000000001" type="line" smooth="yes"/>
      <point x="1703.3999999999999" y="1317.6"/>
      <point x="1725.0" y="1327.6"/>
      <point x="1728.2" y="1361.2" type="curve" smooth="yes"/>
      <point x="1729.8" y="1385.2"/>
      <point x="1719.4" y="1400.0"/>
      <point x="1683.1999999999998" y="1400.0" type="curve" smooth="yes"/>
      <point x="1542.2" y="1400.0" type="line" smooth="yes"/>
      <point x="1508.0" y="1400.0"/>
      <point x="1464.6" y="1376.6"/>
      <point x="1432.4" y="1324.8" type="curve" smooth="yes"/>
      <point x="788.8" y="303.2" type="line"/>
    </contour>
  </outline>
</glyph>
<glyph name="N" format="2">
  <advance width="1420.6"/>
  <unicode hex="004E"/>
  <anchor x="992.9999999999999" y="1497.0" name="center"/>
  <outline>
    <contour>
      <point x="320.40000000000003" y="222.79999999999998" type="line" smooth="yes"/>
      <point x="303.8" y="162.4"/>
      <point x="321.8" y="114.6"/>
      <point x="389.0" y="94.99999999999999" type="curve" smooth="yes"/>
      <point x="425.79999999999995" y="85.8" type="line" smooth="yes"/>
      <point x="449.79999999999995" y="78.8"/>
      <point x="463.0" y="61.199999999999996"/>
      <point x="463.0" y="39.6" type="curve" smooth="yes"/>
      <point x="463.0" y="11.999999999999996"/>
      <point x="443.4" y="0.0"/>
      <point x="413.8" y="0.0" type="curve" smooth="yes"/>
      <point x="60.400000000000006" y="0.0" type="line" smooth="yes"/>
      <point x="27.4" y="0.0"/>
      <point x="10.599999999999998" y="16.4"/>
      <point x="10.6" y="42.0" type="curve" smooth="yes"/>
      <point x="10.600000000000001" y="60.8"/>
      <point x="27.0" y="80.39999999999999"/>
      <point x="57.2" y="88.39999999999999" type="curve" smooth="yes"/>
      <point x="102.80000000000001" y="99.39999999999998" type="line" smooth="yes"/>
      <point x="162.4" y="112.6"/>
      <point x="208.2" y="160.6"/>
      <point x="226.20000000000002" y="225.6" type="curve" smooth="yes"/>
      <point x="457.6" y="1047.4" type="line" smooth="yes"/>
      <point x="472.4" y="1101.0"/>
      <point x="467.2" y="1161.4"/>
      <point x="441.6" y="1199.2" type="curve" smooth="yes"/>
      <point x="374.8" y="1310.0" type="line" smooth="yes"/>
      <point x="345.20000000000005" y="1350.8"/>
      <point x="358.4" y="1400.0"/>
      <point x="406.0" y="1400.0" type="curve" smooth="yes"/>
      <point x="483.4" y="1400.0" type="line" smooth="yes"/>
      <point x="531.0" y="1400.0"/>
      <point x="547.8" y="1370.4"/>
      <point x="575.6" y="1314.0" type="curve" smooth="yes"/>
      <point x="657.4000000000001" y="1149.2"/>
      <point x="986.0" y="438.4"/>
      <point x="1094.0" y="226.39999999999998" type="curve"/>
      <point x="1016.4" y="196.79999999999998" type="line"/>
      <point x="1253.0" y="1127.2" type="line" smooth="yes"/>
      <point x="1304.0" y="1327.0"/>
      <point x="1398.6000000000001" y="1427.6"/>
      <point x="1502.4" y="1427.6" type="curve" smooth="yes"/>
      <point x="1548.8" y="1427.6"/>
      <point x="1579.4" y="1398.8"/>
      <point x="1579.0" y="1354.0" type="curve" smooth="yes"/>
      <point x="1578.6" y="1304.0"/>
      <point x="1548.0" y="1272.6"/>
      <point x="1487.3999999999999" y="1248.4" type="curve" smooth="yes"/>
      <point x="1403.6000000000001" y="1216.6000000000001"/>
      <point x="1349.0" y="1150.8"/>
      <point x="1317.6000000000001" y="1028.0" type="curve" smooth="yes"/>
      <point x="1132.0" y="289.2" type="line" smooth="yes"/>
      <point x="1122.0" y="251.0"/>
      <point x="1120.4" y="226.0"/>
      <point x="1134.2" y="188.6" type="curve" smooth="yes"/>
      <point x="1172.4" y="88.0" type="line" smooth="yes"/>
      <point x="1192.8" y="35.0"/>
      <point x="1170.6000000000001" y="0.0"/>
      <point x="1124.2" y="0.0" type="curve" smooth="yes"/>
      <point x="1022.0" y="0.0" type="line" smooth="yes"/>
      <point x="980.4" y="0.0"/>
      <point x="956.0" y="33.599999999999994"/>
      <point x="956.2" y="85.19999999999999" type="curve" smooth="yes"/>
      <point x="956.6" y="132.8"/>
      <point x="950.0" y="165.99999999999997"/>
      <point x="925.6" y="219.2" type="curve" smooth="yes"/>
      <point x="857.0" y="371.8"/>
      <point x="627.0" y="868.8"/>
      <point x="503.0" y="1120.4" type="curve"/>
      <point x="576.5999999999999" y="1136.0" type="line"/>
    </contour>
  </outline>
</glyph>
<glyph name="O" format="2">
  <advance width="1537.8"/>
  <unicode hex="004F"/>
  <anchor x="1048.8000000000002" y="1546.0" name="center"/>
  <outline>
    <contour>
      <point x="1037.1999999999998" y="1426.8" type="curve" smooth="yes"/>
      <point x="677.6" y="1451.3999999999999"/>
      <point x="312.6" y="1177.2"/>
      <point x="196.00000000000003" y="780.0" type="curve" smooth="yes"/>
      <point x="63.60000000000001" y="329.40000000000003"/>
      <point x="267.0" y="-3.9999999999999964"/>
      <point x="613.8" y="-28.4" type="curve" smooth="yes"/>
      <point x="1011.8" y="-57.6"/>
      <point x="1368.0" y="197.2"/>
      <point x="1484.8" y="664.8" type="curve" smooth="yes"/>
      <point x="1590.8" y="1087.8"/>
      <point x="1381.6000000000001" y="1403.1999999999998"/>
    </contour>
    <contour>
      <point x="651.6" y="58.8" type="curve" smooth="yes"/>
      <point x="459.6" y="74.8"/>
      <point x="321.99999999999994" y="208.4"/>
      <point x="320.6" y="468.20000000000005" type="curve" smooth="yes"/>
      <point x="320.0" y="553.0"/>
      <point x="332.79999999999995" y="652.4"/>
      <point x="363.2" y="768.4" type="curve" smooth="yes"/>
      <point x="458.99999999999994" y="1139.6000000000001"/>
      <point x="748.0" y="1363.0"/>
      <point x="1007.8000000000001" y="1338.3999999999999" type="curve" smooth="yes"/>
      <point x="1197.6" y="1320.8"/>
      <point x="1350.0" y="1170.4"/>
      <point x="1352.0" y="920.2" type="curve" smooth="yes"/>
      <point x="1352.4" y="849.1999999999999"/>
      <point x="1341.6000000000001" y="768.2"/>
      <point x="1316.3999999999999" y="676.2" type="curve" smooth="yes"/>
      <point x="1193.0" y="229.79999999999998"/>
      <point x="916.4" y="37.599999999999994"/>
    </contour>
  </outline>
</glyph>
<glyph name="P" format="2">
  <advance width="1266.0"/>
  <unicode hex="0050"/>
  <outline>
    <contour>
      <point x="1301.6" y="877.6" type="curve" smooth="yes"/>
      <point x="1357.6" y="1156.6000000000001"/>
      <point x="1167.2" y="1400.0"/>
      <point x="825.5999999999999" y="1400.0" type="curve" smooth="yes"/>
      <point x="420.79999999999995" y="1400.0" type="line" smooth="yes"/>
      <point x="382.40000000000003" y="1400.0"/>
      <point x="361.0" y="1385.8"/>
      <point x="361.0" y="1357.6" type="curve" smooth="yes"/>
      <point x="361.0" y="1334.8"/>
      <point x="374.6" y="1323.6000000000001"/>
      <point x="400.40000000000003" y="1316.0" type="curve" smooth="yes"/>
      <point x="455.8" y="1303.0" type="line" smooth="yes"/>
      <point x="485.8" y="1296.0"/>
      <point x="499.6" y="1268.6000000000001"/>
      <point x="492.8" y="1232.6" type="curve" smooth="yes"/>
      <point x="459.0" y="1067.0"/>
      <point x="265.6" y="365.4"/>
      <point x="209.2" y="184.79999999999998" type="curve" smooth="yes"/>
      <point x="190.0" y="123.60000000000001"/>
      <point x="164.2" y="99.6"/>
      <point x="108.60000000000001" y="91.80000000000001" type="curve" smooth="yes"/>
      <point x="70.2" y="85.39999999999999" type="line" smooth="yes"/>
      <point x="34.599999999999994" y="79.2"/>
      <point x="14.600000000000001" y="63.599999999999994"/>
      <point x="14.599999999999998" y="38.199999999999996" type="curve" smooth="yes"/>
      <point x="14.600000000000001" y="13.4"/>
      <point x="28.0" y="0.0"/>
      <point x="60.4" y="0.0" type="curve" smooth="yes"/>
      <point x="450.0" y="0.0" type="line" smooth="yes"/>
      <point x="483.4" y="0.0"/>
      <point x="503.4" y="18.999999999999996"/>
      <point x="503.4" y="43.8" type="curve" smooth="yes"/>
      <point x="503.4" y="62.19999999999999"/>
      <point x="490.59999999999997" y="77.8"/>
      <point x="460.0" y="84.0" type="curve" smooth="yes"/>
      <point x="403.2" y="95.39999999999999" type="line" smooth="yes"/>
      <point x="371.0" y="101.6"/>
      <point x="355.59999999999997" y="129.8"/>
      <point x="370.4" y="196.8" type="curve" smooth="yes"/>
      <point x="408.2" y="362.6"/>
      <point x="628.0" y="1154.0"/>
      <point x="641.0" y="1203.0" type="curve" smooth="yes"/>
      <point x="664.4" y="1286.0"/>
      <point x="707.0" y="1318.8"/>
      <point x="795.6" y="1318.8" type="curve" smooth="yes"/>
      <point x="1048.2" y="1318.8"/>
      <point x="1184.0" y="1147.4"/>
      <point x="1144.2" y="893.8000000000001" type="curve" smooth="yes"/>
      <point x="1107.4" y="656.6"/>
      <point x="949.4" y="540.0"/>
      <point x="717.6" y="540.0" type="curve" smooth="yes"/>
      <point x="616.6" y="540.0"/>
      <point x="511.99999999999994" y="573.6"/>
      <point x="443.99999999999994" y="622.1999999999999" type="curve"/>
      <point x="406.20000000000005" y="543.2" type="line"/>
      <point x="497.2" y="494.6"/>
      <point x="587.4" y="458.20000000000005"/>
      <point x="748.8" y="458.20000000000005" type="curve" smooth="yes"/>
      <point x="1031.8" y="458.20000000000005"/>
      <point x="1248.8" y="614.6"/>
    </contour>
  </outline>
</glyph>
<glyph name="Q" format="2">
  <advance width="1537.6"/>
  <unicode hex="0051"/>
  <outline>
    <contour>
      <point x="694.0" y="371.0" type="curve" smooth="yes"/>
      <point x="575.4000000000001" y="-75.39999999999999"/>
      <point x="709.2" y="-321.6"/>
      <point x="955.1999999999999" y="-346.2" type="curve" smooth="yes"/>
      <point x="1073.6000000000001" y="-358.2"/>
      <point x="1119.4" y="-336.0"/>
      <point x="1142.6" y="-298.40000000000003" type="curve" smooth="yes"/>
      <point x="1192.8" y="-217.20000000000002" type="line" smooth="yes"/>
      <point x="1204.6" y="-198.8"/>
      <point x="1194.8" y="-181.0"/>
      <point x="1183.2" y="-178.8" type="curve" smooth="yes"/>
      <point x="1162.3999999999999" y="-175.8"/>
      <point x="1117.8" y="-238.2"/>
      <point x="961.4" y="-212.0" type="curve" smooth="yes"/>
      <point x="767.2" y="-179.4"/>
      <point x="662.0" y="-18.200000000000003"/>
      <point x="756.4" y="360.0" type="curve" smooth="yes"/>
      <point x="764.2" y="391.8"/>
      <point x="760.8" y="415.0"/>
      <point x="737.6" y="418.8" type="curve" smooth="yes"/>
      <point x="711.8" y="423.40000000000003"/>
      <point x="700.8000000000001" y="396.0"/>
    </contour>
    <contour>
      <point x="1037.2" y="1426.8" type="curve" smooth="yes"/>
      <point x="677.6" y="1451.3999999999999"/>
      <point x="312.59999999999997" y="1177.2"/>
      <point x="196.0" y="780.0" type="curve" smooth="yes"/>
      <point x="63.6" y="329.4"/>
      <point x="267.0" y="-4.0"/>
      <point x="613.8" y="-28.4" type="curve" smooth="yes"/>
      <point x="1011.8" y="-57.6"/>
      <point x="1368.0" y="197.20000000000002"/>
      <point x="1484.8" y="664.8" type="curve" smooth="yes"/>
      <point x="1590.8" y="1087.8"/>
      <point x="1381.6" y="1403.1999999999998"/>
    </contour>
    <contour>
      <point x="651.6" y="58.79999999999999" type="curve" smooth="yes"/>
      <point x="459.59999999999997" y="74.79999999999998"/>
      <point x="321.99999999999994" y="208.4"/>
      <point x="320.6" y="468.2" type="curve" smooth="yes"/>
      <point x="320.0" y="553.0"/>
      <point x="332.8" y="652.4"/>
      <point x="363.2" y="768.4" type="curve" smooth="yes"/>
      <point x="459.0" y="1139.6"/>
      <point x="748.0" y="1363.0"/>
      <point x="1007.8" y="1338.3999999999999" type="curve" smooth="yes"/>
      <point x="1197.6000000000001" y="1320.8"/>
      <point x="1350.0" y="1170.4"/>
      <point x="1352.0" y="920.1999999999999" type="curve" smooth="yes"/>
      <point x="1352.4" y="849.1999999999999"/>
      <point x="1341.6000000000001" y="768.2"/>
      <point x="1316.4" y="676.2" type="curve" smooth="yes"/>
      <point x="1193.0" y="229.8"/>
      <point x="916.4" y="37.599999999999994"/>
    </contour>
  </outline>
</glyph>
<glyph name="R" format="2">
  <advance width="1327.2"/>
  <unicode hex="0052"/>
  <anchor x="904.6" y="1485.0" name="center"/>
  <outline>
    <contour>
      <point x="398.6" y="602.0" type="line"/>
      <point x="479.59999999999997" y="553.6"/>
      <point x="587.4000000000001" y="521.2"/>
      <point x="717.0" y="524.4" type="curve" smooth="yes"/>
      <point x="1019.6" y="530.8000000000001"/>
      <point x="1236.4" y="672.8000000000001"/>
      <point x="1285.2" y="906.1999999999999" type="curve" smooth="yes"/>
      <point x="1347.6" y="1205.8"/>
      <point x="1150.8" y="1400.0"/>
      <point x="843.8000000000001" y="1400.0" type="curve" smooth="yes"/>
      <point x="414.6" y="1400.0" type="line" smooth="yes"/>
      <point x="378.2" y="1400.0"/>
      <point x="358.2" y="1384.2"/>
      <point x="358.2" y="1357.8000000000002" type="curve" smooth="yes"/>
      <point x="358.2" y="1337.8"/>
      <point x="367.4" y="1324.8"/>
      <point x="398.4" y="1316.0" type="curve" smooth="yes"/>
      <point x="448.40000000000003" y="1305.0" type="line" smooth="yes"/>
      <point x="492.2" y="1293.6"/>
      <point x="497.20000000000005" y="1270.4"/>
      <point x="487.6" y="1216.8" type="curve" smooth="yes"/>
      <point x="464.20000000000005" y="1092.6000000000001"/>
      <point x="245.8" y="297.4"/>
      <point x="208.6" y="185.4" type="curve" smooth="yes"/>
      <point x="188.4" y="123.99999999999999"/>
      <point x="156.0" y="99.4"/>
      <point x="105.39999999999999" y="91.80000000000001" type="curve" smooth="yes"/>
      <point x="65.4" y="85.39999999999999" type="line" smooth="yes"/>
      <point x="29.0" y="78.4"/>
      <point x="12.2" y="63.0"/>
      <point x="12.2" y="37.199999999999996" type="curve" smooth="yes"/>
      <point x="12.2" y="14.599999999999998"/>
      <point x="23.0" y="0.0"/>
      <point x="55.599999999999994" y="0.0" type="curve" smooth="yes"/>
      <point x="431.59999999999997" y="0.0" type="line" smooth="yes"/>
      <point x="466.79999999999995" y="0.0"/>
      <point x="489.2" y="15.399999999999997"/>
      <point x="489.2" y="41.6" type="curve" smooth="yes"/>
      <point x="489.2" y="64.0"/>
      <point x="474.6" y="75.39999999999999"/>
      <point x="445.2" y="85.6" type="curve" smooth="yes"/>
      <point x="395.79999999999995" y="97.2" type="line" smooth="yes"/>
      <point x="367.6" y="105.4"/>
      <point x="348.4" y="129.2"/>
      <point x="361.0" y="184.6" type="curve" smooth="yes"/>
      <point x="387.59999999999997" y="305.79999999999995"/>
      <point x="605.2" y="1087.8"/>
      <point x="639.4" y="1215.6" type="curve" smooth="yes"/>
      <point x="659.8" y="1287.8"/>
      <point x="692.6" y="1322.0"/>
      <point x="816.0" y="1322.0" type="curve" smooth="yes"/>
      <point x="1034.6" y="1322.0"/>
      <point x="1186.2" y="1178.0"/>
      <point x="1132.4" y="925.4" type="curve" smooth="yes"/>
      <point x="1091.2" y="727.0"/>
      <point x="938.0" y="604.0"/>
      <point x="696.5999999999999" y="604.0" type="curve" smooth="yes"/>
      <point x="591.6" y="604.0"/>
      <point x="506.0" y="637.5999999999999"/>
      <point x="454.20000000000005" y="670.8" type="curve"/>
    </contour>
    <contour>
      <point x="727.2" y="549.2" type="line"/>
      <point x="842.0" y="154.4" type="line" smooth="yes"/>
      <point x="882.0" y="15.400000000000002"/>
      <point x="939.8000000000001" y="-20.4"/>
      <point x="1012.8" y="-20.4" type="curve" smooth="yes"/>
      <point x="1100.0" y="-20.4"/>
      <point x="1165.2" y="22.2"/>
      <point x="1195.6000000000001" y="90.6" type="curve" smooth="yes"/>
      <point x="1208.6000000000001" y="118.4"/>
      <point x="1201.8" y="145.6"/>
      <point x="1183.6" y="153.8" type="curve" smooth="yes"/>
      <point x="1168.6000000000001" y="161.2"/>
      <point x="1149.6" y="154.2"/>
      <point x="1139.2" y="139.4" type="curve" smooth="yes"/>
      <point x="1122.6" y="117.6"/>
      <point x="1101.4" y="106.39999999999998"/>
      <point x="1074.2" y="106.39999999999998" type="curve" smooth="yes"/>
      <point x="1036.8" y="106.39999999999998"/>
      <point x="1008.0" y="127.59999999999998"/>
      <point x="978.8" y="221.8" type="curve" smooth="yes"/>
      <point x="870.0" y="571.2" type="line"/>
    </contour>
  </outline>
</glyph>
<glyph name="S" format="2">
  <advance width="1114.1999999999998"/>
  <unicode hex="0053"/>
  <anchor x="839.0" y="1528.0" name="center"/>
  <outline>
    <contour>
      <point x="517.4" y="-22.0" type="curve" smooth="yes"/>
      <point x="758.1999999999999" y="-22.0"/>
      <point x="929.1999999999999" y="116.8"/>
      <point x="952.0" y="319.6" type="curve" smooth="yes"/>
      <point x="971.1999999999999" y="489.0"/>
      <point x="912.4000000000001" y="600.2"/>
      <point x="692.8" y="743.6" type="curve" smooth="yes"/>
      <point x="512.8" y="863.0"/>
      <point x="447.59999999999997" y="960.4"/>
      <point x="471.0" y="1106.8" type="curve" smooth="yes"/>
      <point x="491.40000000000003" y="1234.8"/>
      <point x="611.1999999999999" y="1339.0"/>
      <point x="804.0" y="1339.0" type="curve" smooth="yes"/>
      <point x="931.2" y="1339.0"/>
      <point x="1017.4000000000001" y="1280.6000000000001"/>
      <point x="1046.8" y="1173.4" type="curve" smooth="yes"/>
      <point x="1060.0" y="1127.8" type="line" smooth="yes"/>
      <point x="1073.6000000000001" y="1087.4"/>
      <point x="1096.6" y="1063.3999999999999"/>
      <point x="1138.8000000000002" y="1063.3999999999999" type="curve" smooth="yes"/>
      <point x="1179.0" y="1063.3999999999999"/>
      <point x="1206.0" y="1101.0"/>
      <point x="1206.6" y="1144.6000000000001" type="curve" smooth="yes"/>
      <point x="1208.1999999999998" y="1284.0"/>
      <point x="1068.0" y="1423.0"/>
      <point x="817.8000000000001" y="1423.0" type="curve" smooth="yes"/>
      <point x="518.4" y="1423.0"/>
      <point x="352.0" y="1248.0"/>
      <point x="326.40000000000003" y="1059.2" type="curve" smooth="yes"/>
      <point x="301.0" y="873.0"/>
      <point x="388.6" y="756.0"/>
      <point x="585.4" y="630.6" type="curve" smooth="yes"/>
      <point x="770.0" y="512.8000000000001"/>
      <point x="817.2" y="420.4"/>
      <point x="793.2" y="289.8" type="curve" smooth="yes"/>
      <point x="766.8" y="143.6"/>
      <point x="655.2" y="64.8"/>
      <point x="489.0" y="64.8" type="curve" smooth="yes"/>
      <point x="322.79999999999995" y="64.8"/>
      <point x="201.39999999999998" y="156.8"/>
      <point x="197.79999999999998" y="313.2" type="curve" smooth="yes"/>
      <point x="193.4" y="363.20000000000005" type="line" smooth="yes"/>
      <point x="186.2" y="401.6"/>
      <point x="169.36993464052284" y="425.19999999999993"/>
      <point x="144.4" y="425.19999999999993" type="curve" smooth="yes"/>
      <point x="118.7206106870229" y="425.19999999999993"/>
      <point x="99.0140426888415" y="403.4013507507225"/>
      <point x="95.0" y="361.6" type="curve" smooth="yes"/>
      <point x="57.4" y="40.400000000000006" type="line" smooth="yes"/>
      <point x="53.39999999999999" y="-0.8000000000000007"/>
      <point x="70.2" y="-19.6"/>
      <point x="101.8" y="-19.6" type="curve" smooth="yes"/>
      <point x="138.79999999999998" y="-19.6"/>
      <point x="165.4" y="79.2"/>
      <point x="190.59999999999997" y="79.2" type="curve" smooth="yes"/>
      <point x="221.39999999999998" y="79.2"/>
      <point x="275.4" y="-22.0"/>
    </contour>
  </outline>
</glyph>
<glyph name="T" format="2">
  <advance width="1122.0"/>
  <unicode hex="0054"/>
  <anchor x="403.2" y="1516.0" name="center"/>
  <outline>
    <contour>
      <point x="528.0" y="1419.6" type="curve" smooth="yes"/>
      <point x="326.20000000000005" y="1419.6"/>
      <point x="224.4" y="1319.3999999999999"/>
      <point x="223.6" y="1178.0" type="curve" smooth="yes"/>
      <point x="223.0" y="1112.6000000000001"/>
      <point x="257.59999999999997" y="1075.0"/>
      <point x="309.0" y="1075.0" type="curve" smooth="yes"/>
      <point x="354.8" y="1075.0"/>
      <point x="385.0" y="1109.0"/>
      <point x="385.0" y="1144.1999999999998" type="curve" smooth="yes"/>
      <point x="385.0" y="1180.2"/>
      <point x="360.0" y="1206.2"/>
      <point x="360.2" y="1230.8" type="curve" smooth="yes"/>
      <point x="360.4" y="1295.6"/>
      <point x="403.8" y="1336.4"/>
      <point x="540.5999999999999" y="1336.4" type="curve" smooth="yes"/>
      <point x="699.8" y="1336.4"/>
      <point x="1020.4" y="1237.6000000000001"/>
      <point x="1160.8000000000002" y="1237.6000000000001" type="curve" smooth="yes"/>
      <point x="1289.2" y="1237.6000000000001"/>
      <point x="1367.4" y="1306.3999999999999"/>
      <point x="1368.0" y="1405.2" type="curve" smooth="yes"/>
      <point x="1368.4" y="1467.0"/>
      <point x="1339.6000000000001" y="1495.6000000000001"/>
      <point x="1297.6000000000001" y="1495.6000000000001" type="curve" smooth="yes"/>
      <point x="1254.8" y="1495.6000000000001"/>
      <point x="1232.6" y="1471.2"/>
      <point x="1221.6" y="1432.0" type="curve" smooth="yes"/>
      <point x="1218.2" y="1420.6000000000001"/>
      <point x="1216.6000000000001" y="1404.8"/>
      <point x="1206.8" y="1382.2" type="curve" smooth="yes"/>
      <point x="1194.8" y="1354.2"/>
      <point x="1167.6000000000001" y="1337.1999999999998"/>
      <point x="1114.0" y="1337.1999999999998" type="curve" smooth="yes"/>
      <point x="1005.8" y="1337.1999999999998"/>
      <point x="705.6" y="1419.6"/>
    </contour>
    <contour>
      <point x="577.2" y="151.79999999999998" type="curve" smooth="yes"/>
      <point x="611.4" y="289.0"/>
      <point x="832.4" y="1095.4"/>
      <point x="904.0" y="1339.2" type="curve"/>
      <point x="763.8" y="1365.3999999999999" type="line"/>
      <point x="710.8000000000001" y="1180.3999999999999"/>
      <point x="477.61092919623644" y="330.4356542631321"/>
      <point x="430.2" y="175.4" type="curve" smooth="yes"/>
      <point x="416.0" y="125.4"/>
      <point x="392.59999999999997" y="108.39999999999999"/>
      <point x="352.79999999999995" y="100.39999999999999" type="curve" smooth="yes"/>
      <point x="286.2" y="86.8" type="line" smooth="yes"/>
      <point x="251.60000000000002" y="77.19999999999999"/>
      <point x="231.20000000000002" y="65.2"/>
      <point x="229.6" y="39.4" type="curve" smooth="yes"/>
      <point x="228.0" y="17.2"/>
      <point x="243.6" y="0.0"/>
      <point x="277.8" y="0.0" type="curve" smooth="yes"/>
      <point x="657.2" y="0.0" type="line" smooth="yes"/>
      <point x="695.4" y="0.0"/>
      <point x="718.6" y="11.999999999999996"/>
      <point x="723.4" y="39.599999999999994" type="curve" smooth="yes"/>
      <point x="728.2" y="61.99999999999999"/>
      <point x="713.8" y="73.6"/>
      <point x="689.6" y="82.0" type="curve" smooth="yes"/>
      <point x="616.6" y="97.80000000000001" type="line" smooth="yes"/>
      <point x="584.5999999999999" y="104.60000000000001"/>
      <point x="569.4" y="118.79999999999998"/>
    </contour>
  </outline>
</glyph>
<glyph name="U" format="2">
  <advance width="1415.8000000000002"/>
  <unicode hex="0055"/>
  <anchor x="1001.9999999999999" y="1479.0" name="center"/>
  <outline>
    <contour>
      <point x="1052.0" y="411.2" type="line" smooth="yes"/>
      <point x="982.6" y="171.2"/>
      <point x="848.8" y="66.80000000000001"/>
      <point x="661.1999999999999" y="66.80000000000001" type="curve" smooth="yes"/>
      <point x="489.6" y="66.80000000000001"/>
      <point x="387.79999999999995" y="157.6"/>
      <point x="388.2" y="332.4" type="curve" smooth="yes"/>
      <point x="388.4" y="404.4"/>
      <point x="404.79999999999995" y="494.0"/>
      <point x="435.4" y="598.0" type="curve" smooth="yes"/>
      <point x="616.8000000000001" y="1223.4" type="line" smooth="yes"/>
      <point x="629.8" y="1269.6000000000001"/>
      <point x="653.1999999999999" y="1290.4"/>
      <point x="693.0" y="1301.0" type="curve" smooth="yes"/>
      <point x="751.0" y="1313.8" type="line" smooth="yes"/>
      <point x="795.8000000000001" y="1326.0"/>
      <point x="812.2" y="1343.8"/>
      <point x="812.4000000000001" y="1366.4" type="curve" smooth="yes"/>
      <point x="812.6" y="1387.6000000000001"/>
      <point x="797.8" y="1400.0"/>
      <point x="765.0" y="1400.0" type="curve" smooth="yes"/>
      <point x="398.20000000000005" y="1400.0" type="line" smooth="yes"/>
      <point x="357.0" y="1400.0"/>
      <point x="335.79999999999995" y="1383.2"/>
      <point x="335.59999999999997" y="1362.0" type="curve" smooth="yes"/>
      <point x="335.4" y="1337.6"/>
      <point x="346.40000000000003" y="1325.6000000000001"/>
      <point x="382.4" y="1313.1999999999998" type="curve" smooth="yes"/>
      <point x="428.40000000000003" y="1302.8" type="line" smooth="yes"/>
      <point x="466.8" y="1292.2"/>
      <point x="474.4" y="1256.0"/>
      <point x="462.2" y="1215.2" type="curve" smooth="yes"/>
      <point x="281.6" y="598.0" type="line" smooth="yes"/>
      <point x="253.6" y="502.40000000000003"/>
      <point x="229.0" y="396.0"/>
      <point x="228.60000000000002" y="314.4" type="curve" smooth="yes"/>
      <point x="228.0" y="120.0"/>
      <point x="344.4" y="-30.0"/>
      <point x="597.0" y="-30.0" type="curve"/>
      <point x="884.2" y="-30.0"/>
      <point x="1058.2" y="114.2"/>
      <point x="1140.8000000000002" y="396.4" type="curve" smooth="yes"/>
      <point x="1377.0" y="1202.0" type="line" smooth="yes"/>
      <point x="1394.0" y="1260.6000000000001"/>
      <point x="1421.4" y="1278.8"/>
      <point x="1472.1999999999998" y="1294.1999999999998" type="curve" smooth="yes"/>
      <point x="1530.3999999999999" y="1309.0" type="line" smooth="yes"/>
      <point x="1577.2" y="1323.0"/>
      <point x="1587.8" y="1335.4"/>
      <point x="1587.8" y="1363.6" type="curve" smooth="yes"/>
      <point x="1587.8" y="1384.0"/>
      <point x="1570.3999999999999" y="1400.0"/>
      <point x="1539.6" y="1400.0" type="curve" smooth="yes"/>
      <point x="1211.3999999999999" y="1400.0" type="line" smooth="yes"/>
      <point x="1172.2" y="1400.0"/>
      <point x="1151.6000000000001" y="1382.6"/>
      <point x="1151.4" y="1357.0" type="curve" smooth="yes"/>
      <point x="1151.2" y="1333.8"/>
      <point x="1169.2" y="1323.6000000000001"/>
      <point x="1206.2" y="1308.0" type="curve" smooth="yes"/>
      <point x="1246.4" y="1294.8000000000002" type="line" smooth="yes"/>
      <point x="1293.2" y="1276.8"/>
      <point x="1297.1999999999998" y="1251.3999999999999"/>
      <point x="1282.6000000000001" y="1204.0" type="curve" smooth="yes"/>
    </contour>
  </outline>
</glyph>
<glyph name="V" format="2">
  <advance width="1217.3999999999999"/>
  <unicode hex="0056"/>
  <outline>
    <contour>
      <point x="1042.6" y="1359.2" type="curve" smooth="yes"/>
      <point x="1042.6" y="1338.0"/>
      <point x="1060.0" y="1321.3999999999999"/>
      <point x="1086.6000000000001" y="1311.1999999999998" type="curve" smooth="yes"/>
      <point x="1144.2" y="1296.4" type="line" smooth="yes"/>
      <point x="1187.3999999999999" y="1280.0"/>
      <point x="1197.0" y="1231.2"/>
      <point x="1154.2" y="1167.6" type="curve" smooth="yes"/>
      <point x="471.2" y="114.8" type="line"/>
      <point x="528.0" y="125.99999999999999" type="line"/>
      <point x="523.5999999999999" y="330.6"/>
      <point x="507.6" y="1064.3999999999999"/>
      <point x="507.4" y="1203.6000000000001" type="curve" smooth="yes"/>
      <point x="506.99999999999994" y="1263.2"/>
      <point x="522.6" y="1293.2"/>
      <point x="564.8" y="1300.8" type="curve" smooth="yes"/>
      <point x="644.8000000000001" y="1313.6000000000001" type="line" smooth="yes"/>
      <point x="670.2" y="1318.4"/>
      <point x="685.2" y="1337.2"/>
      <point x="685.2" y="1361.6" type="curve" smooth="yes"/>
      <point x="685.2" y="1385.2"/>
      <point x="670.0" y="1400.0"/>
      <point x="646.4" y="1400.0" type="curve" smooth="yes"/>
      <point x="277.40000000000003" y="1400.0" type="line" smooth="yes"/>
      <point x="251.79999999999998" y="1400.0"/>
      <point x="229.0" y="1382.0"/>
      <point x="229.0" y="1358.8" type="curve" smooth="yes"/>
      <point x="229.0" y="1337.7642857142857"/>
      <point x="238.34247919983886" y="1321.2502204667608"/>
      <point x="263.79999999999995" y="1314.4" type="curve" smooth="yes"/>
      <point x="304.59999999999997" y="1306.6" type="line" smooth="yes"/>
      <point x="338.18362217567613" y="1298.076220397522"/>
      <point x="351.6" y="1266.6"/>
      <point x="353.6" y="1218.6" type="curve" smooth="yes"/>
      <point x="361.6" y="1063.0"/>
      <point x="377.2" y="329.19999999999993"/>
      <point x="376.4" y="232.39999999999998" type="curve" smooth="yes"/>
      <point x="376.8" y="190.0"/>
      <point x="382.0" y="160.20000000000002"/>
      <point x="366.8" y="119.19999999999999" type="curve" smooth="yes"/>
      <point x="348.8" y="68.0" type="line" smooth="yes"/>
      <point x="336.59999999999997" y="32.400000000000006"/>
      <point x="351.0" y="0.0"/>
      <point x="386.0" y="0.0" type="curve" smooth="yes"/>
      <point x="492.2" y="0.0" type="line" smooth="yes"/>
      <point x="529.4" y="0.0"/>
      <point x="549.0" y="24.799999999999997"/>
      <point x="559.4" y="61.199999999999996" type="curve" smooth="yes"/>
      <point x="570.8000000000001" y="100.8" type="line" smooth="yes"/>
      <point x="581.0" y="134.2"/>
      <point x="599.4000000000001" y="160.4"/>
      <point x="618.4" y="189.60000000000002" type="curve" smooth="yes"/>
      <point x="1257.8" y="1168.8000000000002" type="line" smooth="yes"/>
      <point x="1309.3808864322864" y="1248.7624609369773"/>
      <point x="1341.1749377804788" y="1287.6874688902394"/>
      <point x="1407.3999999999999" y="1304.0" type="curve" smooth="yes"/>
      <point x="1445.0" y="1311.6" type="line" smooth="yes"/>
      <point x="1476.8801006708186" y="1320.3400503354094"/>
      <point x="1490.6000000000001" y="1340.3999999999999"/>
      <point x="1490.6000000000001" y="1365.4" type="curve" smooth="yes"/>
      <point x="1490.6000000000001" y="1386.8000000000002"/>
      <point x="1473.4" y="1400.0"/>
      <point x="1438.1999999999998" y="1400.0" type="curve" smooth="yes"/>
      <point x="1090.2" y="1400.0" type="line" smooth="yes"/>
      <point x="1063.8" y="1400.0"/>
      <point x="1042.6" y="1383.2"/>
    </contour>
  </outline>
</glyph>
<glyph name="W" format="2">
  <advance width="1907.2"/>
  <unicode hex="0057"/>
  <anchor x="1194.0" y="1478.0" name="center"/>
  <outline>
    <contour>
      <point x="1089.6" y="1081.2" type="line"/>
      <point x="468.2" y="142.79999999999998" type="line"/>
      <point x="517.8" y="142.79999999999998" type="line"/>
      <point x="512.4" y="349.8"/>
      <point x="501.20000000000005" y="1042.8"/>
      <point x="504.40000000000003" y="1213.4" type="curve" smooth="yes"/>
      <point x="505.4" y="1273.6"/>
      <point x="524.2" y="1292.2"/>
      <point x="569.6" y="1301.6" type="curve" smooth="yes"/>
      <point x="627.2" y="1312.0" type="line" smooth="yes"/>
      <point x="663.8" y="1320.8"/>
      <point x="681.5999999999999" y="1338.3999999999999"/>
      <point x="681.6" y="1362.4" type="curve" smooth="yes"/>
      <point x="681.6" y="1388.4"/>
      <point x="668.4" y="1400.0"/>
      <point x="636.4" y="1400.0" type="curve" smooth="yes"/>
      <point x="278.4" y="1400.0" type="line" smooth="yes"/>
      <point x="248.00000000000003" y="1400.0"/>
      <point x="229.00000000000003" y="1385.0"/>
      <point x="229.00000000000003" y="1357.3999999999999" type="curve" smooth="yes"/>
      <point x="229.00000000000003" y="1336.0"/>
      <point x="244.79999999999998" y="1321.4"/>
      <point x="281.2" y="1312.6000000000001" type="curve" smooth="yes"/>
      <point x="302.0" y="1308.4" type="line" smooth="yes"/>
      <point x="338.2" y="1301.1999999999998"/>
      <point x="350.20000000000005" y="1272.4"/>
      <point x="351.2" y="1225.6" type="curve" smooth="yes"/>
      <point x="355.8" y="1056.0"/>
      <point x="373.40000000000003" y="330.79999999999995"/>
      <point x="372.0" y="213.0" type="curve" smooth="yes"/>
      <point x="371.6" y="167.0"/>
      <point x="371.2" y="144.0"/>
      <point x="358.8" y="111.8" type="curve" smooth="yes"/>
      <point x="344.0" y="70.0" type="line" smooth="yes"/>
      <point x="327.8" y="25.199999999999996"/>
      <point x="345.4" y="0.0"/>
      <point x="388.8" y="0.0" type="curve" smooth="yes"/>
      <point x="462.79999999999995" y="0.0" type="line" smooth="yes"/>
      <point x="503.6" y="0.0"/>
      <point x="526.0" y="21.799999999999997"/>
      <point x="538.3999999999999" y="60.8" type="curve" smooth="yes"/>
      <point x="549.8" y="97.4" type="line" smooth="yes"/>
      <point x="560.3999999999999" y="130.8"/>
      <point x="576.8" y="153.6"/>
      <point x="604.8000000000001" y="196.0" type="curve" smooth="yes"/>
      <point x="1111.8" y="967.6" type="line"/>
    </contour>
    <contour>
      <point x="1704.4" y="1358.2" type="curve" smooth="yes"/>
      <point x="1704.4" y="1337.6000000000001"/>
      <point x="1716.4" y="1323.6"/>
      <point x="1745.4" y="1315.2" type="curve" smooth="yes"/>
      <point x="1806.2" y="1298.8" type="line" smooth="yes"/>
      <point x="1852.8000000000002" y="1282.2"/>
      <point x="1859.2" y="1238.4"/>
      <point x="1824.8" y="1180.8" type="curve" smooth="yes"/>
      <point x="1214.8000000000002" y="147.2" type="line"/>
      <point x="1264.4" y="146.79999999999998" type="line"/>
      <point x="1253.2" y="353.0"/>
      <point x="1211.8000000000002" y="1042.6"/>
      <point x="1204.8" y="1200.4" type="curve" smooth="yes"/>
      <point x="1201.6" y="1264.2"/>
      <point x="1214.2" y="1289.8"/>
      <point x="1263.2" y="1300.6" type="curve" smooth="yes"/>
      <point x="1338.0" y="1314.6000000000001" type="line" smooth="yes"/>
      <point x="1359.2" y="1321.6"/>
      <point x="1380.2" y="1336.8"/>
      <point x="1380.2" y="1363.4" type="curve" smooth="yes"/>
      <point x="1380.2" y="1389.6"/>
      <point x="1365.8" y="1400.0"/>
      <point x="1335.2" y="1400.0" type="curve" smooth="yes"/>
      <point x="988.5999999999999" y="1400.0" type="line" smooth="yes"/>
      <point x="951.8000000000001" y="1400.0"/>
      <point x="932.4000000000001" y="1382.6"/>
      <point x="932.4000000000001" y="1356.8" type="curve" smooth="yes"/>
      <point x="932.4000000000001" y="1337.8000000000002"/>
      <point x="947.2" y="1322.0"/>
      <point x="967.0" y="1316.6" type="curve" smooth="yes"/>
      <point x="1000.8" y="1309.0" type="line" smooth="yes"/>
      <point x="1038.3999999999999" y="1301.8000000000002"/>
      <point x="1051.2" y="1275.2"/>
      <point x="1057.4" y="1210.0" type="curve" smooth="yes"/>
      <point x="1076.4" y="1016.0000000000001"/>
      <point x="1113.6" y="364.4"/>
      <point x="1118.1999999999998" y="208.0" type="curve" smooth="yes"/>
      <point x="1118.6000000000001" y="176.0"/>
      <point x="1119.2" y="155.0"/>
      <point x="1107.4" y="122.4" type="curve" smooth="yes"/>
      <point x="1090.3999999999999" y="73.2" type="line" smooth="yes"/>
      <point x="1074.8" y="28.399999999999995"/>
      <point x="1094.0" y="0.0"/>
      <point x="1130.6" y="0.0" type="curve" smooth="yes"/>
      <point x="1217.8" y="0.0" type="line" smooth="yes"/>
      <point x="1248.6000000000001" y="0.0"/>
      <point x="1272.8" y="20.4"/>
      <point x="1283.0" y="58.199999999999996" type="curve" smooth="yes"/>
      <point x="1295.4" y="102.19999999999999" type="line" smooth="yes"/>
      <point x="1304.3999999999999" y="135.79999999999998"/>
      <point x="1322.0" y="161.4"/>
      <point x="1340.2" y="192.39999999999998" type="curve" smooth="yes"/>
      <point x="1912.6" y="1160.6" type="line" smooth="yes"/>
      <point x="1966.8" y="1252.2"/>
      <point x="1999.6000000000001" y="1290.2"/>
      <point x="2044.0" y="1304.6" type="curve" smooth="yes"/>
      <point x="2078.4" y="1315.6000000000001" type="line" smooth="yes"/>
      <point x="2111.8" y="1326.8"/>
      <point x="2128.4" y="1344.8"/>
      <point x="2128.3999999999996" y="1364.2" type="curve" smooth="yes"/>
      <point x="2128.4" y="1387.0"/>
      <point x="2117.0" y="1400.0"/>
      <point x="2081.0" y="1400.0" type="curve" smooth="yes"/>
      <point x="1757.0" y="1400.0" type="line" smooth="yes"/>
      <point x="1725.2" y="1400.0"/>
      <point x="1704.4" y="1382.6"/>
    </contour>
  </outline>
</glyph>
<glyph name="X" format="2">
  <advance width="1263.6"/>
  <unicode hex="0058"/>
  <outline>
    <contour>
      <point x="633.4" y="724.2" type="line"/>
      <point x="241.0" y="239.79999999999998" type="line" smooth="yes"/>
      <point x="151.8" y="128.6"/>
      <point x="100.2" y="100.79999999999998"/>
      <point x="12.999999999999993" y="80.0" type="curve" smooth="yes"/>
      <point x="-19.6" y="69.39999999999999"/>
      <point x="-29.6" y="56.39999999999999"/>
      <point x="-29.6" y="36.6" type="curve" smooth="yes"/>
      <point x="-29.6" y="14.599999999999998"/>
      <point x="-14.400000000000002" y="0.0"/>
      <point x="14.599999999999994" y="0.0" type="curve" smooth="yes"/>
      <point x="331.8" y="0.0" type="line" smooth="yes"/>
      <point x="363.8" y="0.0"/>
      <point x="387.0" y="18.0"/>
      <point x="387.0" y="44.6" type="curve" smooth="yes"/>
      <point x="387.0" y="63.8"/>
      <point x="375.2" y="73.39999999999999"/>
      <point x="350.6" y="80.8" type="curve" smooth="yes"/>
      <point x="317.4" y="89.39999999999999" type="line" smooth="yes"/>
      <point x="280.0" y="100.4"/>
      <point x="276.0" y="143.8"/>
      <point x="330.8" y="211.6" type="curve" smooth="yes"/>
      <point x="676.6" y="647.0" type="line"/>
    </contour>
    <contour>
      <point x="581.8000000000001" y="1227.1999999999998" type="curve" smooth="yes"/>
      <point x="569.4000000000001" y="1264.1999999999998"/>
      <point x="580.1999999999999" y="1296.4"/>
      <point x="608.0" y="1303.2" type="curve" smooth="yes"/>
      <point x="662.1999999999999" y="1315.2" type="line" smooth="yes"/>
      <point x="693.6" y="1324.8"/>
      <point x="712.6" y="1339.3999999999999"/>
      <point x="712.6" y="1362.8" type="curve" smooth="yes"/>
      <point x="713.4" y="1386.6"/>
      <point x="697.6" y="1400.0"/>
      <point x="660.0" y="1400.0" type="curve" smooth="yes"/>
      <point x="340.6" y="1400.0" type="line" smooth="yes"/>
      <point x="307.4" y="1400.0"/>
      <point x="283.2" y="1385.2"/>
      <point x="282.40000000000003" y="1360.8" type="curve" smooth="yes"/>
      <point x="282.40000000000003" y="1339.6"/>
      <point x="294.8" y="1325.2"/>
      <point x="327.59999999999997" y="1315.8" type="curve" smooth="yes"/>
      <point x="373.59999999999997" y="1305.6"/>
      <point x="392.79999999999995" y="1286.0"/>
      <point x="416.6" y="1226.8" type="curve" smooth="yes"/>
      <point x="486.14728231565687" y="1061.3054353686862"/>
      <point x="767.962833054962" y="310.2822177875083"/>
      <point x="819.4" y="169.2" type="curve" smooth="yes"/>
      <point x="835.6" y="125.59999999999998"/>
      <point x="822.1999999999999" y="97.8"/>
      <point x="787.0" y="89.0" type="curve" smooth="yes"/>
      <point x="750.4000000000001" y="82.2" type="line" smooth="yes"/>
      <point x="717.6" y="72.4"/>
      <point x="702.8" y="56.4"/>
      <point x="702.0" y="35.6" type="curve" smooth="yes"/>
      <point x="702.0" y="14.999999999999996"/>
      <point x="714.8" y="0.0"/>
      <point x="753.4000000000001" y="0.0" type="curve" smooth="yes"/>
      <point x="1068.2" y="0.0" type="line" smooth="yes"/>
      <point x="1103.1999999999998" y="0.0"/>
      <point x="1127.2" y="18.8"/>
      <point x="1128.0" y="42.39999999999999" type="curve" smooth="yes"/>
      <point x="1128.0" y="62.19999999999999"/>
      <point x="1116.8" y="73.99999999999999"/>
      <point x="1083.6" y="83.60000000000001" type="curve" smooth="yes"/>
      <point x="1031.1999999999998" y="95.0"/>
      <point x="996.2" y="116.80000000000001"/>
      <point x="977.8" y="164.4" type="curve" smooth="yes"/>
      <point x="898.2822061391752" y="366.8636338789888"/>
      <point x="624.4611751193142" y="1102.459404550348"/>
    </contour>
    <contour>
      <point x="747.6" y="676.2" type="line"/>
      <point x="1065.4" y="1097.8" type="line" smooth="yes"/>
      <point x="1135.9000848534954" y="1190.1600991807172"/>
      <point x="1179.5919875189898" y="1234.6675898405538"/>
      <point x="1236.2" y="1250.8" type="curve" smooth="yes"/>
      <point x="1279.031826396213" y="1265.0794422824101"/>
      <point x="1305.8471793029105" y="1264.1999999999998"/>
      <point x="1341.3999999999999" y="1264.1999999999998" type="curve" smooth="yes"/>
      <point x="1403.607729468599" y="1264.1999999999998"/>
      <point x="1443.2" y="1297.6154506437767"/>
      <point x="1443.2" y="1351.2" type="curve" smooth="yes"/>
      <point x="1443.2" y="1393.0795811518326"/>
      <point x="1412.3999999999999" y="1429.0"/>
      <point x="1354.8" y="1429.0" type="curve" smooth="yes"/>
      <point x="1254.1282686322686" y="1429.0"/>
      <point x="1173.2972514452074" y="1375.470144254679"/>
      <point x="1037.8" y="1194.6" type="curve" smooth="yes"/>
      <point x="696.8000000000001" y="742.8000000000001" type="line"/>
    </contour>
  </outline>
</glyph>
<glyph name="Y" format="2">
  <advance width="1137.3999999999999"/>
  <unicode hex="0059"/>
  <anchor x="825.4" y="1498.0" name="center"/>
  <outline>
    <contour>
      <point x="593.1999999999999" y="522.8" type="line"/>
      <point x="643.8" y="515.2" type="line"/>
      <point x="608.2" y="685.2"/>
      <point x="527.0" y="1133.6"/>
      <point x="498.2" y="1275.8" type="curve" smooth="yes"/>
      <point x="481.0" y="1366.4"/>
      <point x="439.79999999999995" y="1400.0"/>
      <point x="354.0" y="1400.0" type="curve" smooth="yes"/>
      <point x="256.20000000000005" y="1400.0" type="line" smooth="yes"/>
      <point x="223.6" y="1400.0"/>
      <point x="200.39999999999998" y="1381.0"/>
      <point x="201.2" y="1356.4" type="curve" smooth="yes"/>
      <point x="202.0" y="1334.8"/>
      <point x="220.2" y="1317.6000000000001"/>
      <point x="256.6" y="1311.6" type="curve" smooth="yes"/>
      <point x="312.8" y="1304.4"/>
      <point x="350.2" y="1274.8"/>
      <point x="361.40000000000003" y="1219.0" type="curve" smooth="yes"/>
      <point x="386.0" y="1092.6000000000001"/>
      <point x="464.0" y="689.0"/>
      <point x="490.40000000000003" y="548.1999999999999" type="curve" smooth="yes"/>
      <point x="498.2" y="507.0"/>
      <point x="499.2" y="467.40000000000003"/>
      <point x="486.59999999999997" y="425.2" type="curve" smooth="yes"/>
      <point x="419.40000000000003" y="197.20000000000002" type="line" smooth="yes"/>
      <point x="401.2" y="134.2"/>
      <point x="371.0" y="102.80000000000001"/>
      <point x="323.20000000000005" y="94.2" type="curve" smooth="yes"/>
      <point x="270.40000000000003" y="84.6" type="line" smooth="yes"/>
      <point x="237.8" y="76.6"/>
      <point x="219.6" y="59.39999999999999"/>
      <point x="219.6" y="38.0" type="curve" smooth="yes"/>
      <point x="219.6" y="13.999999999999996"/>
      <point x="232.6" y="0.0"/>
      <point x="264.6" y="0.0" type="curve" smooth="yes"/>
      <point x="639.2" y="0.0" type="line" smooth="yes"/>
      <point x="680.1999999999999" y="0.0"/>
      <point x="700.6" y="14.599999999999998"/>
      <point x="700.6" y="41.599999999999994" type="curve" smooth="yes"/>
      <point x="700.6" y="60.8"/>
      <point x="691.2020750517297" y="73.80568014208949"/>
      <point x="659.6" y="83.19999999999999" type="curve" smooth="yes"/>
      <point x="606.6" y="95.4" type="line" smooth="yes"/>
      <point x="569.2" y="104.39999999999999"/>
      <point x="561.4000000000001" y="139.2"/>
      <point x="574.8" y="189.0" type="curve" smooth="yes"/>
      <point x="640.6" y="426.59999999999997" type="line" smooth="yes"/>
      <point x="649.6951982277379" y="458.7510719136501"/>
      <point x="662.4" y="485.40000000000003"/>
      <point x="690.2" y="532.0" type="curve" smooth="yes"/>
      <point x="1011.6" y="1050.2" type="line" smooth="yes"/>
      <point x="1100.0" y="1196.0"/>
      <point x="1180.2" y="1237.1999999999998"/>
      <point x="1250.8" y="1249.8" type="curve" smooth="yes"/>
      <point x="1344.4" y="1265.8"/>
      <point x="1383.6" y="1302.0"/>
      <point x="1383.6" y="1357.3999999999999" type="curve" smooth="yes"/>
      <point x="1383.6" y="1395.4"/>
      <point x="1354.2" y="1429.0"/>
      <point x="1286.2" y="1429.0" type="curve" smooth="yes"/>
      <point x="1184.2" y="1429.0"/>
      <point x="1096.4" y="1365.4"/>
      <point x="972.0" y="1155.6000000000001" type="curve" smooth="yes"/>
    </contour>
  </outline>
</glyph>
<glyph name="Z" format="2">
  <advance width="1160.0"/>
  <unicode hex="005A"/>
  <anchor x="904.2" y="1504.0" name="center"/>
  <outline>
    <contour>
      <point x="708.0" y="0.0" type="line" smooth="yes"/>
      <point x="758.6" y="0.0"/>
      <point x="784.2" y="-28.0"/>
      <point x="823.0" y="-28.0" type="curve" smooth="yes"/>
      <point x="933.8000000000001" y="-28.0"/>
      <point x="1057.8" y="127.79999999999998"/>
      <point x="1057.8000000000002" y="296.59999999999997" type="curve" smooth="yes"/>
      <point x="1057.8000000000002" y="325.19999999999993"/>
      <point x="1045.8" y="344.0"/>
      <point x="1022.0" y="344.0" type="curve" smooth="yes"/>
      <point x="1001.0" y="344.0"/>
      <point x="988.1999999999999" y="328.59999999999997"/>
      <point x="973.4" y="294.8" type="curve" smooth="yes"/>
      <point x="906.8000000000001" y="124.99999999999999"/>
      <point x="810.4" y="77.8"/>
      <point x="678.6" y="77.8" type="curve" smooth="yes"/>
      <point x="175.2" y="77.8" type="line"/>
      <point x="194.59999999999997" y="61.199999999999996" type="line"/>
      <point x="411.19999999999993" y="320.79999999999995"/>
      <point x="1125.8" y="1141.8000000000002"/>
      <point x="1248.6" y="1279.6" type="curve" smooth="yes"/>
      <point x="1278.8" y="1312.4"/>
      <point x="1297.6" y="1337.8"/>
      <point x="1297.6" y="1358.4" type="curve" smooth="yes"/>
      <point x="1297.6" y="1385.4"/>
      <point x="1283.1999999999998" y="1399.2"/>
      <point x="1242.0" y="1399.2" type="curve" smooth="yes"/>
      <point x="657.4" y="1399.2" type="line" smooth="yes"/>
      <point x="591.8" y="1399.2"/>
      <point x="577.2" y="1431.2"/>
      <point x="529.5999999999999" y="1431.2" type="curve" smooth="yes"/>
      <point x="502.6" y="1431.2"/>
      <point x="482.8" y="1413.8"/>
      <point x="457.40000000000003" y="1371.6" type="curve" smooth="yes"/>
      <point x="340.59999999999997" y="1200.4" type="line" smooth="yes"/>
      <point x="311.40000000000003" y="1154.0"/>
      <point x="312.4" y="1126.4"/>
      <point x="338.20000000000005" y="1116.0" type="curve" smooth="yes"/>
      <point x="361.59999999999997" y="1106.4"/>
      <point x="392.8" y="1117.2"/>
      <point x="421.4" y="1155.2" type="curve" smooth="yes"/>
      <point x="522.0" y="1283.6000000000001"/>
      <point x="590.4" y="1324.4"/>
      <point x="664.8000000000001" y="1324.4" type="curve" smooth="yes"/>
      <point x="1145.3999999999999" y="1324.4" type="line"/>
      <point x="1122.8000000000002" y="1352.4" type="line"/>
      <point x="938.2" y="1132.2"/>
      <point x="243.0" y="332.0"/>
      <point x="50.79999999999999" y="126.39999999999998" type="curve" smooth="yes"/>
      <point x="25.599999999999994" y="98.99999999999997"/>
      <point x="9.2" y="73.8"/>
      <point x="9.2" y="44.8" type="curve" smooth="yes"/>
      <point x="9.2" y="15.199999999999998"/>
      <point x="27.2" y="0.0"/>
      <point x="67.19999999999999" y="0.0" type="curve" smooth="yes"/>
    </contour>
  </outline>
</glyph>
<glyph name="bracketleft" format="2">
  <advance width="702.4"/>
  <unicode hex="005B"/>
  <outline>
    <contour>
      <point x="614.4" y="1348.3999999999999" type="line" smooth="yes"/>
      <point x="622.5999999999999" y="1379.6000000000001"/>
      <point x="640.0" y="1393.1999999999998"/>
      <point x="671.4" y="1393.1999999999998" type="curve" smooth="yes"/>
      <point x="893.6" y="1393.1999999999998" type="line" smooth="yes"/>
      <point x="923.2" y="1393.1999999999998"/>
      <point x="944.0" y="1407.8"/>
      <point x="951.2" y="1436.6" type="curve" smooth="yes"/>
      <point x="958.8" y="1463.8"/>
      <point x="946.6" y="1479.8"/>
      <point x="917.0" y="1479.8" type="curve" smooth="yes"/>
      <point x="584.4" y="1479.8" type="line" smooth="yes"/>
      <point x="541.2" y="1479.8"/>
      <point x="516.6" y="1458.6000000000001"/>
      <point x="505.0" y="1413.8" type="curve" smooth="yes"/>
      <point x="74.8" y="-190.0" type="line" smooth="yes"/>
      <point x="63.400000000000006" y="-234.8"/>
      <point x="75.40000000000002" y="-256.0"/>
      <point x="118.60000000000001" y="-256.0" type="curve" smooth="yes"/>
      <point x="451.2" y="-256.0" type="line" smooth="yes"/>
      <point x="480.8" y="-256.0"/>
      <point x="501.99999999999994" y="-240.0"/>
      <point x="509.6" y="-212.8" type="curve" smooth="yes"/>
      <point x="516.8000000000001" y="-184.0"/>
      <point x="504.40000000000003" y="-169.4"/>
      <point x="474.8" y="-169.4" type="curve" smooth="yes"/>
      <point x="252.59999999999997" y="-169.4" type="line" smooth="yes"/>
      <point x="221.2" y="-169.4"/>
      <point x="211.59999999999997" y="-155.8"/>
      <point x="219.99999999999997" y="-124.6" type="curve" smooth="yes"/>
    </contour>
  </outline>
</glyph>
<glyph name="asciicircum" format="2">
  <advance width="993.4000000000001"/>
  <unicode hex="005E"/>
  <outline>
    <contour>
      <point x="778.2" y="1322.1999999999998" type="line"/>
      <point x="336.0" y="807.6" type="line" smooth="yes"/>
      <point x="304.0" y="772.5999999999999"/>
      <point x="275.8" y="761.1999999999999"/>
      <point x="253.8" y="761.1999999999999" type="curve" smooth="yes"/>
      <point x="215.50685191276148" y="761.1999999999999"/>
      <point x="222.4872414265921" y="810.8487931608619"/>
      <point x="267.6" y="866.0" type="curve" smooth="yes"/>
      <point x="657.0" y="1352.0" type="line" smooth="yes"/>
      <point x="704.4" y="1411.2"/>
      <point x="727.2" y="1424.0"/>
      <point x="759.6" y="1424.0" type="curve" smooth="yes"/>
      <point x="792.0" y="1424.0"/>
      <point x="808.4" y="1411.2"/>
      <point x="825.0" y="1352.0" type="curve" smooth="yes"/>
      <point x="953.6" y="866.0" type="line" smooth="yes"/>
      <point x="968.1179310209737" y="809.0487931608619"/>
      <point x="950.6931480872386" y="761.1999999999999"/>
      <point x="911.8000000000001" y="761.1999999999999" type="curve" smooth="yes"/>
      <point x="889.8000000000001" y="761.1999999999999"/>
      <point x="872.1999999999999" y="772.5999999999999"/>
      <point x="858.4" y="807.6" type="curve" smooth="yes"/>
      <point x="692.2" y="1322.1999999999998" type="line"/>
    </contour>
  </outline>
</glyph>
<glyph name="underscore" format="2">
  <advance width="958.6000000000001"/>
  <unicode hex="005F"/>
  <outline>
    <contour>
      <point x="-64.99999999999999" y="-215.0" type="curve" smooth="yes"/>
      <point x="-71.6" y="-246.2"/>
      <point x="-64.6" y="-266.0"/>
      <point x="-38.199999999999996" y="-266.0" type="curve" smooth="yes"/>
      <point x="830.2" y="-266.0" type="line" smooth="yes"/>
      <point x="857.4000000000001" y="-266.0"/>
      <point x="873.6" y="-246.2"/>
      <point x="880.1999999999999" y="-215.0" type="curve" smooth="yes"/>
      <point x="887.4" y="-183.8"/>
      <point x="880.5999999999999" y="-163.2"/>
      <point x="853.4" y="-163.2" type="curve" smooth="yes"/>
      <point x="-15.0" y="-163.2" type="line" smooth="yes"/>
      <point x="-41.4" y="-163.2"/>
      <point x="-57.8" y="-183.8"/>
    </contour>
  </outline>
</glyph>
<glyph name="a" format="2">
  <advance width="1051.2"/>
  <unicode hex="0061"/>
  <anchor x="691.0" y="1010.0" name="center"/>
  <outline>
    <contour>
      <point x="772.0" y="194.0" type="curve" smooth="yes"/>
      <point x="908.0" y="724.0" type="line" smooth="yes"/>
      <point x="918.8" y="765.0"/>
      <point x="959.6" y="786.2"/>
      <point x="962.0" y="830.8000000000001" type="curve" smooth="yes"/>
      <point x="964.8" y="891.1999999999999"/>
      <point x="890.8000000000001" y="926.8000000000001"/>
      <point x="742.8" y="926.8000000000001" type="curve" smooth="yes"/>
      <point x="394.2" y="926.8000000000001"/>
      <point x="67.19999999999999" y="578.4"/>
      <point x="59.400000000000006" y="220.2" type="curve" smooth="yes"/>
      <point x="52.80000000000001" y="50.19999999999999"/>
      <point x="129.6" y="-17.6"/>
      <point x="244.4" y="-17.6" type="curve" smooth="yes"/>
      <point x="425.8" y="-17.6"/>
      <point x="613.4000000000001" y="142.6"/>
      <point x="751.6" y="464.8" type="curve"/>
      <point x="738.0" y="492.0" type="line"/>
      <point x="648.0" y="201.39999999999998"/>
      <point x="631.6" y="142.39999999999998"/>
      <point x="631.6" y="81.6" type="curve" smooth="yes"/>
      <point x="631.6" y="12.799999999999997"/>
      <point x="668.0" y="-17.6"/>
      <point x="727.6" y="-17.6" type="curve" smooth="yes"/>
      <point x="822.0" y="-17.6"/>
      <point x="904.8000000000001" y="39.199999999999996"/>
      <point x="934.0" y="98.0" type="curve" smooth="yes"/>
      <point x="948.0" y="127.59999999999998"/>
      <point x="944.8000000000001" y="149.2"/>
      <point x="930.0" y="157.6" type="curve" smooth="yes"/>
      <point x="917.4" y="165.0"/>
      <point x="902.5999999999999" y="156.99999999999997"/>
      <point x="880.1999999999999" y="140.0" type="curve" smooth="yes"/>
      <point x="853.0" y="120.19999999999997"/>
      <point x="830.4" y="106.39999999999999"/>
      <point x="803.9999999999999" y="106.39999999999999" type="curve" smooth="yes"/>
      <point x="761.1999999999999" y="106.39999999999999"/>
      <point x="757.8" y="138.79999999999998"/>
    </contour>
    <contour>
      <point x="203.2" y="247.60000000000002" type="curve" smooth="yes"/>
      <point x="210.2" y="538.6"/>
      <point x="477.79999999999995" y="836.8"/>
      <point x="701.2" y="836.8" type="curve" smooth="yes"/>
      <point x="758.4" y="836.8"/>
      <point x="792.6" y="812.6"/>
      <point x="790.8" y="759.2" type="curve" smooth="yes"/>
      <point x="784.6" y="528.8"/>
      <point x="499.0" y="84.0"/>
      <point x="312.4" y="84.0" type="curve" smooth="yes"/>
      <point x="239.2" y="84.0"/>
      <point x="199.4" y="122.39999999999998"/>
    </contour>
  </outline>
</glyph>
<glyph name="b" format="2">
  <advance width="1065.6000000000001"/>
  <unicode hex="0062"/>
  <outline>
    <contour>
      <point x="398.8" y="1165.6" type="curve" smooth="yes"/>
      <point x="94.39999999999999" y="123.39999999999999" type="line" smooth="yes"/>
      <point x="63.4" y="17.799999999999994"/>
      <point x="87.6" y="-3.2"/>
      <point x="122.8" y="-3.2" type="curve" smooth="yes"/>
      <point x="147.20000000000002" y="-3.2"/>
      <point x="165.0" y="10.999999999999998"/>
      <point x="175.99999999999997" y="29.999999999999996" type="curve" smooth="yes"/>
      <point x="249.99999999999997" y="189.2" type="line"/>
      <point x="208.8" y="210.2" type="line"/>
      <point x="208.79999999999998" y="57.60000000000001"/>
      <point x="292.59999999999997" y="-17.2"/>
      <point x="442.8" y="-17.2" type="curve" smooth="yes"/>
      <point x="711.8" y="-17.2"/>
      <point x="1007.9999999999999" y="270.0"/>
      <point x="1016.0" y="681.5999999999999" type="curve" smooth="yes"/>
      <point x="1018.4" y="832.1999999999999"/>
      <point x="942.0" y="923.6"/>
      <point x="805.4" y="923.6" type="curve" smooth="yes"/>
      <point x="589.0" y="923.6"/>
      <point x="383.59999999999997" y="720.8"/>
      <point x="292.19999999999993" y="488.0" type="curve"/>
      <point x="319.99999999999994" y="485.6" type="line"/>
      <point x="550.2" y="1233.0" type="line" smooth="yes"/>
      <point x="595.0" y="1377.6000000000001"/>
      <point x="549.2" y="1435.2"/>
      <point x="455.2" y="1435.2" type="curve" smooth="yes"/>
      <point x="368.2" y="1435.2"/>
      <point x="275.8" y="1379.0"/>
      <point x="240.8" y="1324.8" type="curve" smooth="yes"/>
      <point x="223.0" y="1297.6"/>
      <point x="226.20000000000002" y="1272.8000000000002"/>
      <point x="241.6" y="1263.6" type="curve" smooth="yes"/>
      <point x="256.6" y="1255.3999999999999"/>
      <point x="272.4" y="1263.6000000000001"/>
      <point x="298.0" y="1281.6" type="curve" smooth="yes"/>
      <point x="330.2" y="1304.8"/>
      <point x="353.2" y="1315.2"/>
      <point x="375.8" y="1315.2" type="curve" smooth="yes"/>
      <point x="420.8" y="1315.2"/>
      <point x="434.40000000000003" y="1287.4"/>
    </contour>
    <contour>
      <point x="735.2" y="832.8000000000001" type="curve" smooth="yes"/>
      <point x="815.0" y="832.8000000000001"/>
      <point x="875.6" y="781.1999999999999"/>
      <point x="872.4000000000001" y="654.4" type="curve" smooth="yes"/>
      <point x="864.4000000000001" y="305.20000000000005"/>
      <point x="622.8000000000001" y="65.6"/>
      <point x="439.59999999999997" y="65.6" type="curve" smooth="yes"/>
      <point x="340.6" y="65.6"/>
      <point x="284.8" y="113.19999999999999"/>
      <point x="284.79999999999995" y="224.39999999999998" type="curve" smooth="yes"/>
      <point x="284.8" y="480.2"/>
      <point x="539.0" y="832.8000000000001"/>
    </contour>
  </outline>
</glyph>
<glyph name="c" format="2">
  <advance width="865.4"/>
  <unicode hex="0063"/>
  <anchor x="599.0" y="1026.0" name="center"/>
  <outline>
    <contour>
      <point x="583.0" y="843.4" type="curve" smooth="yes"/>
      <point x="651.8000000000001" y="843.4"/>
      <point x="693.8000000000001" y="802.4"/>
      <point x="693.6" y="743.6" type="curve" smooth="yes"/>
      <point x="693.4" y="715.4"/>
      <point x="682.1999999999999" y="685.8000000000001"/>
      <point x="681.8" y="663.8" type="curve" smooth="yes"/>
      <point x="681.4" y="630.0"/>
      <point x="705.0" y="606.4"/>
      <point x="741.5999999999999" y="606.4" type="curve" smooth="yes"/>
      <point x="796.1999999999999" y="606.4"/>
      <point x="842.8000000000001" y="650.4"/>
      <point x="843.8000000000001" y="724.8000000000001" type="curve" smooth="yes"/>
      <point x="844.8000000000001" y="829.8"/>
      <point x="768.6" y="926.0"/>
      <point x="615.5999999999999" y="926.0" type="curve" smooth="yes"/>
      <point x="345.2" y="926.0"/>
      <point x="138.60000000000002" y="705.0"/>
      <point x="87.0" y="428.6" type="curve" smooth="yes"/>
      <point x="36.4" y="158.6"/>
      <point x="138.20000000000002" y="-18.0"/>
      <point x="353.0" y="-18.0" type="curve" smooth="yes"/>
      <point x="603.8" y="-18.0"/>
      <point x="749.4000000000001" y="149.2"/>
      <point x="757.6" y="276.6" type="curve" smooth="yes"/>
      <point x="762.6" y="306.0"/>
      <point x="748.8" y="324.0"/>
      <point x="730.1999999999999" y="324.0" type="curve" smooth="yes"/>
      <point x="709.8" y="324.0"/>
      <point x="693.4" y="306.4"/>
      <point x="682.0" y="281.6" type="curve" smooth="yes"/>
      <point x="638.8" y="157.2"/>
      <point x="536.1999999999999" y="83.99999999999999"/>
      <point x="411.19999999999993" y="83.99999999999999" type="curve" smooth="yes"/>
      <point x="281.2" y="83.99999999999999"/>
      <point x="200.0" y="195.20000000000002"/>
      <point x="233.8" y="433.79999999999995" type="curve" smooth="yes"/>
      <point x="267.8" y="672.6"/>
      <point x="423.2" y="843.4"/>
    </contour>
  </outline>
</glyph>
<glyph name="d" format="2">
  <advance width="1080.0"/>
  <unicode hex="0064"/>
  <anchor x="419.0" y="1022.0" name="center"/>
  <outline>
    <contour>
      <point x="1096.0" y="1225.0" type="line" smooth="yes"/>
      <point x="1139.4" y="1365.8"/>
      <point x="1104.2" y="1435.2"/>
      <point x="1002.0" y="1435.2" type="curve" smooth="yes"/>
      <point x="919.0" y="1435.2"/>
      <point x="824.4" y="1386.1999999999998"/>
      <point x="784.8000000000001" y="1324.8" type="curve" smooth="yes"/>
      <point x="767.1999999999999" y="1297.6"/>
      <point x="771.0" y="1272.2"/>
      <point x="785.6" y="1263.6" type="curve" smooth="yes"/>
      <point x="800.6" y="1255.3999999999999"/>
      <point x="813.2" y="1262.0"/>
      <point x="842.0" y="1281.6" type="curve" smooth="yes"/>
      <point x="877.4" y="1306.3999999999999"/>
      <point x="899.5999999999999" y="1315.2"/>
      <point x="922.1999999999999" y="1315.2" type="curve" smooth="yes"/>
      <point x="970.2" y="1315.2"/>
      <point x="979.4" y="1285.0"/>
      <point x="947.0" y="1181.6" type="curve" smooth="yes"/>
      <point x="757.6" y="576.0" type="line" smooth="yes"/>
      <point x="687.4" y="350.6"/>
      <point x="460.8" y="91.8"/>
      <point x="319.40000000000003" y="91.8" type="curve" smooth="yes"/>
      <point x="251.2" y="91.8"/>
      <point x="203.8" y="133.8"/>
      <point x="203.8" y="229.79999999999995" type="curve" smooth="yes"/>
      <point x="203.8" y="536.4"/>
      <point x="455.8" y="840.8"/>
      <point x="692.4000000000001" y="840.8" type="curve" smooth="yes"/>
      <point x="766.2" y="840.8"/>
      <point x="809.8" y="822.5999999999999"/>
      <point x="845.0" y="769.8000000000001" type="curve"/>
      <point x="939.6" y="806.0" type="line"/>
      <point x="914.2" y="873.8"/>
      <point x="847.2" y="925.2"/>
      <point x="734.1999999999999" y="925.2" type="curve" smooth="yes"/>
      <point x="399.0" y="925.2"/>
      <point x="77.59999999999998" y="618.2"/>
      <point x="65.2" y="237.79999999999998" type="curve" smooth="yes"/>
      <point x="53.20000000000001" y="59.19999999999999"/>
      <point x="131.2" y="-18.0"/>
      <point x="251.0" y="-18.0" type="curve" smooth="yes"/>
      <point x="411.2" y="-18.0"/>
      <point x="600.8" y="126.8"/>
      <point x="745.2" y="424.4" type="curve"/>
      <point x="730.0" y="424.8" type="line"/>
      <point x="652.8" y="197.8"/>
      <point x="633.0" y="136.4"/>
      <point x="633.0" y="82.0" type="curve" smooth="yes"/>
      <point x="633.0" y="13.799999999999999"/>
      <point x="666.2" y="-18.0"/>
      <point x="733.6" y="-18.0" type="curve" smooth="yes"/>
      <point x="817.8" y="-18.0"/>
      <point x="905.6" y="38.8"/>
      <point x="938.5999999999999" y="94.0" type="curve" smooth="yes"/>
      <point x="954.8000000000001" y="121.19999999999999"/>
      <point x="952.4000000000001" y="145.39999999999998"/>
      <point x="937.4" y="155.6" type="curve" smooth="yes"/>
      <point x="921.0" y="165.79999999999998"/>
      <point x="905.6" y="153.59999999999997"/>
      <point x="884.6" y="138.79999999999998" type="curve" smooth="yes"/>
      <point x="855.8" y="118.6"/>
      <point x="833.8" y="105.99999999999997"/>
      <point x="809.0" y="105.99999999999997" type="curve" smooth="yes"/>
      <point x="764.0" y="105.99999999999997"/>
      <point x="756.5999999999999" y="129.79999999999998"/>
      <point x="818.1999999999999" y="328.4" type="curve" smooth="yes"/>
    </contour>
  </outline>
</glyph>
<glyph name="e" format="2">
  <advance width="930.4000000000001"/>
  <unicode hex="0065"/>
  <anchor x="588.6" y="1035.0" name="center"/>
  <outline>
    <contour>
      <point x="158.6" y="413.4" type="curve"/>
      <point x="168.60000000000002" y="354.79999999999995" type="line"/>
      <point x="168.60000000000002" y="354.79999999999995"/>
      <point x="615.2" y="531.0"/>
      <point x="838.2" y="617.6" type="curve" smooth="yes"/>
      <point x="871.0" y="628.6"/>
      <point x="886.2" y="646.0"/>
      <point x="886.1999999999999" y="670.4" type="curve" smooth="yes"/>
      <point x="886.1999999999999" y="694.8000000000001"/>
      <point x="871.8" y="704.8"/>
      <point x="853.0" y="702.0" type="curve" smooth="yes"/>
      <point x="839.0" y="700.4000000000001"/>
      <point x="829.0" y="710.8"/>
      <point x="827.4" y="724.8" type="curve" smooth="yes"/>
      <point x="820.1999999999999" y="839.5999999999999"/>
      <point x="751.4" y="926.0"/>
      <point x="615.4000000000001" y="926.0" type="curve" smooth="yes"/>
      <point x="341.8" y="926.0"/>
      <point x="86.0" y="611.6"/>
      <point x="80.4" y="286.2" type="curve" smooth="yes"/>
      <point x="76.2" y="101.4"/>
      <point x="180.0" y="-18.0"/>
      <point x="373.8" y="-18.0" type="curve" smooth="yes"/>
      <point x="644.6" y="-18.0"/>
      <point x="815.8" y="150.0"/>
      <point x="815.8000000000001" y="282.8" type="curve" smooth="yes"/>
      <point x="815.8" y="307.2"/>
      <point x="806.9999999999999" y="323.6"/>
      <point x="787.8" y="323.6" type="curve" smooth="yes"/>
      <point x="770.2" y="323.59999999999997"/>
      <point x="759.8" y="314.8"/>
      <point x="745.0" y="290.4" type="curve" smooth="yes"/>
      <point x="686.8000000000001" y="153.6"/>
      <point x="566.1999999999999" y="79.99999999999997"/>
      <point x="439.4" y="79.99999999999997" type="curve" smooth="yes"/>
      <point x="307.79999999999995" y="79.99999999999997"/>
      <point x="221.59999999999997" y="165.99999999999997"/>
      <point x="224.6" y="352.0" type="curve" smooth="yes"/>
      <point x="227.6" y="595.6"/>
      <point x="426.8" y="844.4000000000001"/>
      <point x="569.0" y="844.4000000000001" type="curve" smooth="yes"/>
      <point x="645.8000000000001" y="844.4000000000001"/>
      <point x="694.0" y="789.8000000000001"/>
      <point x="694.0" y="704.4" type="curve" smooth="yes"/>
      <point x="694.0" y="664.0"/>
      <point x="690.5999999999999" y="636.4"/>
      <point x="680.4" y="607.1999999999999" type="curve"/>
      <point x="697.6" y="634.8" type="line"/>
      <point x="503.0" y="552.8000000000001"/>
      <point x="158.6" y="413.4"/>
    </contour>
  </outline>
</glyph>
<glyph name="f" format="2">
  <advance width="602.6"/>
  <unicode hex="0066"/>
  <outline>
    <contour>
      <point x="361.20000000000005" y="795.2" type="line"/>
      <point x="613.1999999999999" y="795.2" type="line" smooth="yes"/>
      <point x="662.4000000000001" y="795.2"/>
      <point x="703.8" y="822.6"/>
      <point x="703.8" y="860.2" type="curve" smooth="yes"/>
      <point x="703.8" y="883.6"/>
      <point x="686.8000000000001" y="892.6"/>
      <point x="657.4" y="892.6" type="curve" smooth="yes"/>
      <point x="390.8" y="892.8" type="line"/>
    </contour>
    <contour>
      <point x="125.8" y="853.2" type="curve" smooth="yes"/>
      <point x="125.8" y="834.1999999999999"/>
      <point x="140.4" y="818.8000000000001"/>
      <point x="170.2" y="809.1999999999999" type="curve" smooth="yes"/>
      <point x="262.4" y="802.0"/>
      <point x="287.6" y="763.6"/>
      <point x="265.8" y="688.4" type="curve" smooth="yes"/>
      <point x="13.600000000000001" y="-192.40000000000003" type="line" smooth="yes"/>
      <point x="-19.39999999999999" y="-305.6"/>
      <point x="-1.1999999999999957" y="-355.20000000000005"/>
      <point x="64.6" y="-355.20000000000005" type="curve" smooth="yes"/>
      <point x="134.6" y="-355.20000000000005"/>
      <point x="203.19999999999996" y="-314.4"/>
      <point x="203.19999999999996" y="-262.4" type="curve" smooth="yes"/>
      <point x="203.19999999999996" y="-222.39999999999998"/>
      <point x="167.60000000000002" y="-208.0"/>
      <point x="167.60000000000002" y="-165.2" type="curve" smooth="yes"/>
      <point x="167.60000000000002" y="-136.8"/>
      <point x="171.0" y="-111.0"/>
      <point x="179.59999999999997" y="-80.40000000000002" type="curve" smooth="yes"/>
      <point x="451.6" y="905.8" type="line" smooth="yes"/>
      <point x="476.59999999999997" y="996.4"/>
      <point x="448.20000000000005" y="1099.6"/>
      <point x="466.2" y="1185.4" type="curve" smooth="yes"/>
      <point x="483.20000000000005" y="1270.0"/>
      <point x="527.8" y="1317.8"/>
      <point x="603.4" y="1317.8" type="curve" smooth="yes"/>
      <point x="679.6" y="1317.8"/>
      <point x="718.4" y="1251.8"/>
      <point x="783.8000000000001" y="1251.8" type="curve" smooth="yes"/>
      <point x="833.0" y="1251.8"/>
      <point x="861.8000000000001" y="1282.0"/>
      <point x="861.8000000000001" y="1327.8000000000002" type="curve" smooth="yes"/>
      <point x="861.8000000000001" y="1379.0"/>
      <point x="817.4" y="1424.2"/>
      <point x="706.4" y="1424.2" type="curve" smooth="yes"/>
      <point x="514.4" y="1424.2"/>
      <point x="405.2" y="1312.6000000000001"/>
      <point x="356.8" y="1101.4" type="curve" smooth="yes"/>
      <point x="306.20000000000005" y="892.8" type="line"/>
      <point x="178.6" y="892.8" type="line" smooth="yes"/>
      <point x="147.0" y="892.8"/>
      <point x="125.8" y="876.4"/>
    </contour>
  </outline>
</glyph>
<glyph name="g" format="2">
  <advance width="1002.6"/>
  <unicode hex="0067"/>
  <anchor x="696.8000000000001" y="1010.0" name="center"/>
  <outline>
    <contour>
      <point x="755.0" y="-5.200000000000003" type="curve" smooth="yes"/>
      <point x="917.8" y="739.2" type="line" smooth="yes"/>
      <point x="929.0" y="787.4"/>
      <point x="956.6" y="802.0"/>
      <point x="959.3999999999999" y="844.4" type="curve" smooth="yes"/>
      <point x="963.8" y="892.6"/>
      <point x="898.6" y="928.4000000000001"/>
      <point x="752.4" y="928.4000000000001" type="curve"/>
      <point x="386.8" y="928.4000000000001"/>
      <point x="74.2" y="585.5999999999999"/>
      <point x="66.4" y="225.79999999999998" type="curve" smooth="yes"/>
      <point x="59.8" y="65.39999999999999"/>
      <point x="128.6" y="-16.8"/>
      <point x="243.6" y="-16.8" type="curve" smooth="yes"/>
      <point x="447.59999999999997" y="-16.8"/>
      <point x="649.2" y="156.20000000000002"/>
      <point x="752.0" y="415.0" type="curve"/>
      <point x="717.6" y="444.0" type="line"/>
      <point x="606.4" y="-56.19999999999999" type="line" smooth="yes"/>
      <point x="555.0" y="-291.59999999999997"/>
      <point x="393.0" y="-398.0"/>
      <point x="224.60000000000002" y="-398.0" type="curve" smooth="yes"/>
      <point x="134.4" y="-398.0"/>
      <point x="69.6" y="-320.2"/>
      <point x="4.799999999999997" y="-320.2" type="curve" smooth="yes"/>
      <point x="-44.20000000000002" y="-320.2"/>
      <point x="-78.60000000000001" y="-347.80000000000007"/>
      <point x="-78.60000000000001" y="-393.0" type="curve" smooth="yes"/>
      <point x="-78.60000000000001" y="-457.8"/>
      <point x="-11.800000000000011" y="-503.40000000000003"/>
      <point x="122.79999999999998" y="-503.40000000000003" type="curve" smooth="yes"/>
      <point x="438.8" y="-503.40000000000003"/>
      <point x="683.0" y="-331.20000000000005"/>
    </contour>
    <contour>
      <point x="211.0" y="261.79999999999995" type="curve" smooth="yes"/>
      <point x="218.0" y="553.0"/>
      <point x="481.6" y="840.8"/>
      <point x="696.2" y="840.8" type="curve" smooth="yes"/>
      <point x="749.6" y="840.8"/>
      <point x="780.4000000000001" y="810.2"/>
      <point x="778.5999999999999" y="747.2" type="curve" smooth="yes"/>
      <point x="772.4" y="464.0"/>
      <point x="533.0" y="93.6"/>
      <point x="333.20000000000005" y="93.6" type="curve" smooth="yes"/>
      <point x="255.79999999999998" y="93.6"/>
      <point x="207.2" y="142.39999999999998"/>
    </contour>
  </outline>
</glyph>
<glyph name="h" format="2">
  <advance width="1120.6"/>
  <unicode hex="0068"/>
  <anchor x="455.20000000000005" y="980.0" name="center"/>
  <outline>
    <contour>
      <point x="339.0" y="461.20000000000005" type="line"/>
      <point x="322.2" y="464.0" type="line"/>
      <point x="461.20000000000005" y="761.4"/>
      <point x="681.2" y="925.2"/>
      <point x="875.4" y="925.2" type="curve" smooth="yes"/>
      <point x="1020.6" y="925.2"/>
      <point x="1025.0" y="813.4"/>
      <point x="953.1999999999999" y="618.0" type="curve" smooth="yes"/>
      <point x="816.3999999999999" y="237.2" type="line" smooth="yes"/>
      <point x="783.4000000000001" y="146.2"/>
      <point x="790.0" y="108.39999999999999"/>
      <point x="834.3999999999999" y="108.39999999999999" type="curve" smooth="yes"/>
      <point x="857.5999999999999" y="108.39999999999999"/>
      <point x="879.6" y="115.39999999999999"/>
      <point x="910.0" y="138.8" type="curve" smooth="yes"/>
      <point x="930.2" y="154.39999999999998"/>
      <point x="943.1999999999999" y="165.79999999999998"/>
      <point x="960.4" y="155.6" type="curve" smooth="yes"/>
      <point x="975.4" y="146.2"/>
      <point x="975.2" y="121.2"/>
      <point x="962.4" y="95.6" type="curve" smooth="yes"/>
      <point x="931.0" y="34.199999999999996"/>
      <point x="846.6" y="-18.0"/>
      <point x="756.6" y="-18.0" type="curve" smooth="yes"/>
      <point x="648.4" y="-18.0"/>
      <point x="619.8" y="49.8"/>
      <point x="676.0" y="208.4" type="curve" smooth="yes"/>
      <point x="815.1999999999999" y="604.4000000000001" type="line" smooth="yes"/>
      <point x="869.2" y="758.0"/>
      <point x="846.8" y="805.2"/>
      <point x="767.2" y="805.2" type="curve" smooth="yes"/>
      <point x="651.0" y="805.2"/>
      <point x="435.20000000000005" y="665.8000000000001"/>
      <point x="313.59999999999997" y="332.8" type="curve" smooth="yes"/>
      <point x="274.59999999999997" y="226.4"/>
      <point x="266.0" y="205.0"/>
      <point x="266.0" y="161.6" type="curve" smooth="yes"/>
      <point x="266.0" y="128.8"/>
      <point x="282.0" y="100.39999999999999"/>
      <point x="282.0" y="63.199999999999996" type="curve" smooth="yes"/>
      <point x="282.0" y="13.199999999999998"/>
      <point x="226.79999999999998" y="-18.0"/>
      <point x="156.8" y="-18.0" type="curve" smooth="yes"/>
      <point x="89.6" y="-18.0"/>
      <point x="77.60000000000001" y="14.0"/>
      <point x="126.20000000000002" y="179.2" type="curve" smooth="yes"/>
      <point x="414.79999999999995" y="1166.3999999999999" type="line" smooth="yes"/>
      <point x="444.8" y="1269.8000000000002"/>
      <point x="444.8" y="1315.2"/>
      <point x="390.2" y="1315.2" type="curve" smooth="yes"/>
      <point x="367.6" y="1315.2"/>
      <point x="346.20000000000005" y="1304.0"/>
      <point x="314.0" y="1281.6" type="curve" smooth="yes"/>
      <point x="294.8" y="1269.2"/>
      <point x="275.0" y="1254.6"/>
      <point x="258.4" y="1263.6" type="curve" smooth="yes"/>
      <point x="241.4" y="1273.0"/>
      <point x="240.0" y="1298.3999999999999"/>
      <point x="256.8" y="1324.8" type="curve" smooth="yes"/>
      <point x="291.59999999999997" y="1379.8"/>
      <point x="385.0" y="1435.2"/>
      <point x="476.4" y="1435.2" type="curve" smooth="yes"/>
      <point x="566.5999999999999" y="1435.2"/>
      <point x="613.4" y="1380.8000000000002"/>
      <point x="568.8" y="1233.0" type="curve" smooth="yes"/>
    </contour>
  </outline>
</glyph>
<glyph name="i" format="2">
  <advance width="602.4000000000001"/>
  <unicode hex="0069"/>
  <outline>
    <contour>
      <point x="296.0" y="248.4" type="curve" smooth="yes"/>
      <point x="464.2" y="686.8" type="line" smooth="yes"/>
      <point x="532.2" y="858.5999999999999"/>
      <point x="480.6" y="925.2"/>
      <point x="386.0" y="925.2" type="curve" smooth="yes"/>
      <point x="309.40000000000003" y="925.2"/>
      <point x="218.60000000000002" y="875.0"/>
      <point x="178.2" y="814.8" type="curve" smooth="yes"/>
      <point x="161.2" y="789.2"/>
      <point x="163.60000000000002" y="763.0"/>
      <point x="179.8" y="753.6" type="curve" smooth="yes"/>
      <point x="196.4" y="744.6"/>
      <point x="213.8" y="756.8"/>
      <point x="235.4" y="771.6" type="curve" smooth="yes"/>
      <point x="265.2" y="793.1999999999999"/>
      <point x="291.40000000000003" y="806.8000000000001"/>
      <point x="313.2" y="806.8000000000001" type="curve" smooth="yes"/>
      <point x="362.0" y="806.8000000000001"/>
      <point x="368.4" y="769.4000000000001"/>
      <point x="324.2" y="657.2" type="curve" smooth="yes"/>
      <point x="153.20000000000002" y="214.0" type="line" smooth="yes"/>
      <point x="87.60000000000001" y="48.6"/>
      <point x="137.6" y="-17.2"/>
      <point x="236.2" y="-17.2" type="curve" smooth="yes"/>
      <point x="322.2" y="-17.2"/>
      <point x="407.40000000000003" y="36.599999999999994"/>
      <point x="441.2" y="93.19999999999999" type="curve" smooth="yes"/>
      <point x="457.20000000000005" y="120.39999999999999"/>
      <point x="455.0" y="145.39999999999998"/>
      <point x="440.0" y="154.8" type="curve" smooth="yes"/>
      <point x="422.79999999999995" y="165.0"/>
      <point x="406.59999999999997" y="151.99999999999997"/>
      <point x="386.4" y="137.99999999999997" type="curve" smooth="yes"/>
      <point x="352.6" y="114.39999999999998"/>
      <point x="332.40000000000003" y="103.6"/>
      <point x="310.79999999999995" y="103.6" type="curve" smooth="yes"/>
      <point x="263.2" y="103.6"/>
      <point x="253.6" y="138.0"/>
    </contour>
    <contour>
      <point x="466.8" y="1144.8" type="curve" smooth="yes"/>
      <point x="543.6" y="1144.8"/>
      <point x="606.8" y="1197.6000000000001"/>
      <point x="617.1999999999999" y="1260.4" type="curve" smooth="yes"/>
      <point x="628.4000000000001" y="1323.3999999999999"/>
      <point x="593.2" y="1370.0"/>
      <point x="523.8" y="1370.0" type="curve" smooth="yes"/>
      <point x="445.4" y="1370.0"/>
      <point x="380.8" y="1316.6"/>
      <point x="369.6" y="1250.8" type="curve" smooth="yes"/>
      <point x="359.2" y="1192.8"/>
      <point x="398.8" y="1144.8"/>
    </contour>
  </outline>
</glyph>
<glyph name="j" format="2">
  <advance width="588.8000000000001"/>
  <unicode hex="006A"/>
  <outline>
    <contour>
      <point x="460.19999999999993" y="621.0" type="line" smooth="yes"/>
      <point x="522.0" y="823.0"/>
      <point x="513.2" y="926.0"/>
      <point x="383.6" y="926.0" type="curve" smooth="yes"/>
      <point x="282.2" y="926.0"/>
      <point x="181.8" y="850.1999999999999"/>
      <point x="167.0" y="799.6" type="curve" smooth="yes"/>
      <point x="158.8" y="777.1999999999999"/>
      <point x="166.0" y="757.4"/>
      <point x="183.0" y="752.8000000000001" type="curve" smooth="yes"/>
      <point x="197.2" y="750.2"/>
      <point x="208.20000000000002" y="752.8"/>
      <point x="225.0" y="766.0" type="curve" smooth="yes"/>
      <point x="251.6" y="791.8"/>
      <point x="282.6" y="806.8"/>
      <point x="309.2" y="806.8" type="curve" smooth="yes"/>
      <point x="363.40000000000003" y="806.8"/>
      <point x="360.0" y="724.4"/>
      <point x="320.40000000000003" y="599.8" type="curve" smooth="yes"/>
      <point x="147.2" y="49.8" type="line" smooth="yes"/>
      <point x="113.0" y="-60.2"/>
      <point x="138.2" y="-138.0"/>
      <point x="113.4" y="-219.39999999999998" type="curve" smooth="yes"/>
      <point x="76.2" y="-337.8"/>
      <point x="19.599999999999994" y="-375.40000000000003"/>
      <point x="-27.799999999999997" y="-375.40000000000003" type="curve" smooth="yes"/>
      <point x="-85.2" y="-375.40000000000003"/>
      <point x="-110.0" y="-338.00000000000006"/>
      <point x="-164.0" y="-338.00000000000006" type="curve" smooth="yes"/>
      <point x="-218.0" y="-338.00000000000006"/>
      <point x="-247.2" y="-372.0"/>
      <point x="-247.2" y="-414.8" type="curve" smooth="yes"/>
      <point x="-247.2" y="-463.8"/>
      <point x="-203.59999999999997" y="-501.4"/>
      <point x="-119.20000000000002" y="-501.4" type="curve" smooth="yes"/>
      <point x="41.599999999999994" y="-501.4"/>
      <point x="145.99999999999997" y="-406.6"/>
      <point x="205.2" y="-213.2" type="curve" smooth="yes"/>
    </contour>
    <contour>
      <point x="465.40000000000003" y="1144.8" type="curve" smooth="yes"/>
      <point x="542.1999999999999" y="1144.8"/>
      <point x="605.4" y="1197.6"/>
      <point x="615.8" y="1260.4" type="curve" smooth="yes"/>
      <point x="627.0" y="1323.3999999999999"/>
      <point x="591.8" y="1370.0"/>
      <point x="522.4" y="1370.0" type="curve" smooth="yes"/>
      <point x="444.0" y="1370.0"/>
      <point x="379.4" y="1316.6"/>
      <point x="368.2" y="1250.8" type="curve" smooth="yes"/>
      <point x="357.79999999999995" y="1192.8000000000002"/>
      <point x="397.4" y="1144.8"/>
    </contour>
  </outline>
</glyph>
<glyph name="k" format="2">
  <advance width="1090.6"/>
  <unicode hex="006B"/>
  <anchor x="420.4" y="980.0" name="center"/>
  <outline>
    <contour>
      <point x="413.79999999999995" y="1180.1999999999998" type="line" smooth="yes"/>
      <point x="445.6" y="1292.2"/>
      <point x="431.40000000000003" y="1317.8"/>
      <point x="388.8" y="1317.8" type="curve" smooth="yes"/>
      <point x="367.0" y="1317.8"/>
      <point x="347.20000000000005" y="1307.6"/>
      <point x="316.59999999999997" y="1285.6" type="curve" smooth="yes"/>
      <point x="291.59999999999997" y="1267.8"/>
      <point x="282.59999999999997" y="1260.8"/>
      <point x="267.2" y="1265.6" type="curve" smooth="yes"/>
      <point x="250.2" y="1270.4"/>
      <point x="242.8" y="1290.8"/>
      <point x="251.60000000000002" y="1317.3999999999999" type="curve" smooth="yes"/>
      <point x="268.4" y="1367.0"/>
      <point x="355.8" y="1435.2"/>
      <point x="472.4" y="1435.2" type="curve" smooth="yes"/>
      <point x="578.0" y="1435.2"/>
      <point x="602.1999999999999" y="1362.0"/>
      <point x="555.2" y="1194.8000000000002" type="curve" smooth="yes"/>
      <point x="370.0" y="531.6" type="line"/>
      <point x="325.59999999999997" y="522.0" type="line"/>
      <point x="422.59999999999997" y="740.6"/>
      <point x="641.0" y="939.0"/>
      <point x="858.2" y="925.4000000000001" type="curve" smooth="yes"/>
      <point x="971.1999999999999" y="919.0"/>
      <point x="1042.6" y="853.4"/>
      <point x="1029.2" y="732.8" type="curve" smooth="yes"/>
      <point x="1009.8" y="564.1999999999999"/>
      <point x="768.6" y="404.20000000000005"/>
      <point x="269.2" y="313.0" type="curve"/>
      <point x="273.2" y="379.2" type="line"/>
      <point x="705.8" y="469.4"/>
      <point x="869.4" y="586.8"/>
      <point x="889.4" y="717.8000000000001" type="curve" smooth="yes"/>
      <point x="899.6" y="785.4000000000001"/>
      <point x="865.4" y="830.4000000000001"/>
      <point x="792.8" y="838.4" type="curve" smooth="yes"/>
      <point x="641.6" y="853.6"/>
      <point x="381.20000000000005" y="621.6"/>
      <point x="317.2" y="381.2" type="curve" smooth="yes"/>
      <point x="266.6" y="191.6"/>
      <point x="261.59999999999997" y="164.0"/>
      <point x="261.59999999999997" y="132.0" type="curve" smooth="yes"/>
      <point x="261.59999999999997" y="93.20000000000002"/>
      <point x="269.2" y="77.19999999999999"/>
      <point x="269.2" y="52.8" type="curve" smooth="yes"/>
      <point x="269.2" y="13.0"/>
      <point x="218.8" y="-14.799999999999999"/>
      <point x="162.39999999999998" y="-14.799999999999999" type="curve" smooth="yes"/>
      <point x="105.8" y="-14.799999999999999"/>
      <point x="86.0" y="33.8"/>
      <point x="110.0" y="116.39999999999998" type="curve" smooth="yes"/>
    </contour>
    <contour>
      <point x="528.6" y="397.40000000000003" type="line"/>
      <point x="649.0" y="433.8" type="line"/>
      <point x="729.9999999999999" y="204.2" type="line" smooth="yes"/>
      <point x="752.8" y="139.39999999999998"/>
      <point x="779.1999999999999" y="117.19999999999999"/>
      <point x="812.8" y="110.99999999999999" type="curve" smooth="yes"/>
      <point x="840.1999999999999" y="106.19999999999999"/>
      <point x="864.4" y="121.6"/>
      <point x="880.6" y="149.6" type="curve" smooth="yes"/>
      <point x="889.8" y="161.39999999999998"/>
      <point x="905.4000000000001" y="168.2"/>
      <point x="919.6" y="164.79999999999998" type="curve" smooth="yes"/>
      <point x="937.6" y="159.39999999999998"/>
      <point x="944.4" y="144.79999999999998"/>
      <point x="938.8" y="111.80000000000001" type="curve" smooth="yes"/>
      <point x="926.4" y="36.8"/>
      <point x="853.6" y="-27.6"/>
      <point x="758.1999999999999" y="-17.0" type="curve" smooth="yes"/>
      <point x="691.4" y="-9.0"/>
      <point x="654.0" y="35.6"/>
      <point x="620.8" y="132.0" type="curve" smooth="yes"/>
    </contour>
  </outline>
</glyph>
<glyph name="l" format="2">
  <advance width="597.1999999999999"/>
  <unicode hex="006C"/>
  <anchor x="193.8" y="1593.0" name="center"/>
  <outline>
    <contour>
      <point x="571.2" y="1194.6" type="line" smooth="yes"/>
      <point x="628.2" y="1372.0"/>
      <point x="590.5999999999999" y="1435.1999999999998"/>
      <point x="489.2" y="1435.1999999999998" type="curve"/>
      <point x="396.6" y="1435.1999999999998"/>
      <point x="303.6" y="1379.0"/>
      <point x="268.8" y="1324.8" type="curve" smooth="yes"/>
      <point x="249.60000000000002" y="1295.2"/>
      <point x="256.6" y="1271.3999999999999"/>
      <point x="270.40000000000003" y="1263.6000000000001" type="curve" smooth="yes"/>
      <point x="287.0" y="1254.6"/>
      <point x="306.8" y="1269.2"/>
      <point x="326.0" y="1281.6000000000001" type="curve" smooth="yes"/>
      <point x="358.2" y="1304.0"/>
      <point x="381.20000000000005" y="1316.0"/>
      <point x="404.59999999999997" y="1316.0" type="curve" smooth="yes"/>
      <point x="453.59999999999997" y="1316.0"/>
      <point x="464.6" y="1282.6"/>
      <point x="416.4" y="1132.8" type="curve" smooth="yes"/>
      <point x="132.0" y="257.2" type="line" smooth="yes"/>
      <point x="68.0" y="60.0"/>
      <point x="89.0" y="-18.0"/>
      <point x="214.4" y="-18.0" type="curve"/>
      <point x="341.6" y="-18.0"/>
      <point x="482.8" y="75.6"/>
      <point x="496.8" y="158.0" type="curve" smooth="yes"/>
      <point x="504.0" y="182.0"/>
      <point x="497.0" y="200.59999999999997"/>
      <point x="481.2" y="205.2" type="curve" smooth="yes"/>
      <point x="468.79999999999995" y="209.0"/>
      <point x="459.8" y="205.6"/>
      <point x="447.59999999999997" y="193.2" type="curve" smooth="yes"/>
      <point x="413.20000000000005" y="151.39999999999998"/>
      <point x="347.2" y="108.39999999999999"/>
      <point x="299.19999999999993" y="108.39999999999999" type="curve" smooth="yes"/>
      <point x="235.0" y="108.39999999999999"/>
      <point x="232.0" y="142.6"/>
      <point x="276.4" y="281.2" type="curve" smooth="yes"/>
    </contour>
  </outline>
</glyph>
